/* XPM */
static char *_d9d5d18c0364103af98a01dbfda8c1fuzHRDRw9GFR1VYhW[] = {
/* columns rows colors chars-per-pixel */
"64 64 238 2 ",
"   c #0C0D0B",
".  c #0A0605",
"X  c #130A05",
"o  c #130D0A",
"O  c #1A0E0C",
"+  c #160704",
"@  c #14110D",
"#  c #1B120E",
"$  c #0C0C10",
"%  c #140E15",
"&  c #141215",
"*  c #1C1413",
"=  c #16141A",
"-  c #1A161D",
";  c #1B191E",
":  c #1B1A17",
">  c #0E110E",
",  c #24140E",
"<  c #221512",
"1  c #241915",
"2  c #2C1B14",
"3  c #241C1B",
"4  c #2B1D1A",
"5  c #291615",
"6  c #321B14",
"7  c #341B17",
"8  c #240E10",
"9  c #2B211D",
"0  c #27221F",
"q  c #36221B",
"w  c #1D1B21",
"e  c #191721",
"r  c #221D24",
"t  c #291E23",
"y  c #311E22",
"u  c #1E2224",
"i  c #242126",
"p  c #2C2423",
"a  c #252329",
"s  c #2A242B",
"d  c #2B2A2E",
"f  c #262A2B",
"g  c #322422",
"h  c #3C2A24",
"j  c #342B2C",
"k  c #3B2D2A",
"l  c #352827",
"z  c #3B312E",
"x  c #2C2B32",
"c  c #332B32",
"v  c #392D36",
"b  c #2E3436",
"n  c #3B3C3B",
"m  c #383538",
"M  c #45241E",
"N  c #53271E",
"B  c #412E2A",
"V  c #482B25",
"C  c #4A332C",
"Z  c #473838",
"A  c #583A35",
"S  c #542E2A",
"D  c #64342C",
"F  c #643B36",
"G  c #7B3D3E",
"H  c #441C1A",
"J  c #45423B",
"K  c #5B413C",
"L  c #67423B",
"P  c #7C463E",
"I  c #3B3A41",
"U  c #463D44",
"Y  c #3D4147",
"T  c #484547",
"R  c #564948",
"E  c #5B524E",
"W  c #4B4C56",
"Q  c #575555",
"!  c #524F5A",
"~  c #694B46",
"^  c #784946",
"/  c #7A5149",
"(  c #655856",
")  c #795655",
"_  c #6B4F4F",
"`  c #67615E",
"'  c #595A65",
"]  c #6A6768",
"[  c #736B6A",
"{  c #797876",
"}  c #727172",
"|  c #645D62",
" . c #82473F",
".. c #864E4A",
"X. c #885858",
"o. c #985757",
"O. c #8B4F50",
"+. c #A54A5A",
"@. c #88615C",
"#. c #98635A",
"$. c #A8655E",
"%. c #925D63",
"&. c #AC5667",
"*. c #896867",
"=. c #9B6C69",
"-. c #976968",
";. c #9C736C",
":. c #857C7A",
">. c #9B7B77",
",. c #A66A66",
"<. c #A8726D",
"1. c #AA6D74",
"2. c #A97976",
"3. c #B67977",
"4. c #B76F72",
"5. c #C77C79",
"6. c #87827B",
"7. c #B6867A",
"8. c #C2857D",
"9. c #7C7B8A",
"0. c #847F82",
"q. c #B47C83",
"w. c #7C8384",
"e. c #898887",
"r. c #948C88",
"t. c #8B918E",
"y. c #96948C",
"u. c #878A97",
"i. c #989897",
"p. c #8D9393",
"a. c #B98886",
"s. c #BD928B",
"d. c #A59B98",
"f. c #B38F8B",
"g. c #A5A39B",
"h. c #8C8FA7",
"j. c #8C93A3",
"k. c #9397A7",
"l. c #999AB2",
"z. c #A29BA4",
"x. c #9EA2AA",
"c. c #9EA4BA",
"v. c #ABACA4",
"b. c #A7A7A4",
"n. c #B3ACAA",
"m. c #B6B6AD",
"M. c #A7A9B8",
"N. c #BAB6B3",
"B. c #B8B7B7",
"V. c #AFB0AC",
"C. c #9FA19C",
"Z. c #C88B88",
"A. c #C8928B",
"S. c #CB9A98",
"D. c #D59B98",
"F. c #D18F8F",
"G. c #E49799",
"H. c #D5A19B",
"J. c #CDA196",
"K. c #DD9DA3",
"L. c #DAA7A5",
"P. c #D9B2AB",
"I. c #C1BDBA",
"U. c #C9AAA4",
"Y. c #E2ABA8",
"T. c #E2B1AD",
"R. c #E7B7B4",
"E. c #BFC5B9",
"W. c #C7C3BD",
"Q. c #E6C0BD",
"!. c #A8ADC5",
"~. c #B4BACE",
"^. c #C0BECC",
"/. c #BEC2C3",
"(. c #B8C3D6",
"). c #B8CEE3",
"_. c #C4C5C3",
"`. c #CBCAC4",
"'. c #C9C9C7",
"]. c #D2CECC",
"[. c #CCD1C9",
"{. c #D4D4CA",
"}. c #CACDD4",
"|. c #D2CDD2",
" X c #D4D4D3",
".X c #DBDAD4",
"XX c #DCDCDC",
"oX c #D8D6D7",
"OX c #C6D1D8",
"+X c #E2DDD9",
"@X c #F1C7C3",
"#X c #DCE2DD",
"$X c #E4E3DD",
"%X c #E3E9DF",
"&X c #F1F0DE",
"*X c #CCD2EA",
"=X c #D5D9E8",
"-X c #C7D1EB",
";X c #DEE2E3",
":X c #DEE6F5",
">X c #E5E5E3",
",X c #E9E7E3",
"<X c #EBEAE6",
"1X c #ECECEB",
"2X c #E5EAE7",
"3X c #F2EEEB",
"4X c #ECF3EB",
"5X c #EBF2E6",
"6X c #F2F3ED",
"7X c #F5F9ED",
"8X c #FAFCED",
"9X c #F5F6E8",
"0X c #EEEFF1",
"qX c #E6EDF9",
"wX c #F1EFF2",
"eX c #EEF2F3",
"rX c #EDF5FD",
"tX c #ECFAFD",
"yX c #E7F3F8",
"uX c #F3F3F4",
"iX c #F9F5F2",
"pX c #F6F9F4",
"aX c #FAFBF5",
"sX c #F6F7FB",
"dX c #F5F6F9",
"fX c #F3F5F8",
"gX c #F7F8FA",
"hX c #F7F8FC",
"jX c #F6FAFB",
"kX c #F9F9FB",
"lX c #F8F8FA",
"zX c #F9F9F9",
"xX c #FAFAFC",
"cX c #FBFBFD",
"vX c #F9FAFE",
"bX c #FDFDFE",
"nX c #FDFEFC",
"mX c #FAF6FA",
/* pixels */
"kXkXkXkXxXkXkXkXkXxXcXcXxXkXsXkXkXsXdXaXlXlXmXkXaXdXgXgXuXjXjXdXdXsXfXfXfXsXsXfXfXwXfXfXfXfXsXfXwXuX0X0XfX0X0XwX0XwXwXuX0X0X1X0X",
"xXxXxXxXxXxXxXxXkXxXxXxXkXkXkXkXkXkXkXkXlXlXdXsXsXxXgXgXgXuXgXdXdXdXhXhXfXfXfXfXfXfXfXfXfXrXwXfXwXfXeXfXwX0X0XeX0XuX0XuX0X0X0X1X",
"cXcXxXcXcXcXcXxXxXxXxXxXkXkXkXkXkXkXcXkXxXcXcXxXlXcXkXgXkXdXsXbXrXeX0XeXfXfXfXfXfXfXfXfXwXfXfXwXwXuXuXwX0XeXeXeXuX0XwX0XwX1X0X1X",
"xXxXxXxXxXxXxXxXxXxXxXxXcXcXkXcXkXkXkXdXlXlXxXkXnXuXkXkXkXxXeXdXuXuXfXfXhXhXhXxXfXfXsXwXsXwXrXfXfXeXuXfXfXwXwXeX0X0XwX0X0XwX0X0X",
"xXxXxXxXxXxXxXxXxXxXxXxXkXcXkXcXcXcXcXkXkXkXkXdXbXuXmXaXuXsXgXeXeXhXxXxXhXsXsXhXsXsXsXdXfXfXfXfXfXfXfXfXfXwXwXfXwXwXwXwXwX0X0XwX",
"xXxXxXxXxXxXxXxXxXxXxXxXcXkXkXkXkXaXkXnXnXkXaXmX4XxXaXnXlX4XxXgXxXxXhXsXhXhXdXfXhXsXsXsXhXdXsXfXfXfXfXfXfXfXfXfXuXfXuXwXwXuXwX0X",
"xXxXxXxXxXxXxXxXkXxXxXxXxXkXsXdX1X1X3XuX6X3XuXuXaXnX3X,XnXcXmXaXhXxXhXfXhXcXhXhXhXhXhXhXsXsXdXhXhXfXfXfXfXfXfXfXmXfXfXfXwXwXwXuX",
"xXkXkXkXkXkXkXkXkXkXxXcXxXkXmXuX3X1X1X1X1X2X1XaX$Xn.[ R r.I.i.v.=X0XxXhXwXfXsXhXhXsXhXhXsXsXhXhXhXhXhXhXfXhXfXfXfXfXrXsXsXsXwXfX",
"gXgXkXkXkXkXlXlXxXaXgXgXgXgXkXkXcXdXxXlXlXnX.X:.E h q q 5 9 g E Z E m.mXcXcXgXgXxXhXhXhXhXsXfXhXsXsXsXdXfXhXsXsXfXfXsXwXfXfXfXfX",
"kXkXkXkXkXlXlXsXpXgXkXgXkXgXgXgXfXcXfXcXkX].J g p # # 9 9 q # o 1 4 Z 6.r.6.3XkX XhXfXxXhXhXhXhXhXhXhXsXhXdXdXdXfXfXsXwXfXfXwXfX",
"kXkXkXmXlXlXkXaXgXpXkXgXgXkXsXsXhXxXiX3XB.j 3 9 : @ o 1 4 3 # @ # < , 2 , < 6.:.Q wXhXhXxX0XcXuXsXsXhXhXfXfXfXfXmXsXdXmXfXdXhXsX",
"kXkXkXdXmXsXdXdXpXgXgXgXsXpXdXdXuXmXmXoXT 9 l < @ # : 9 9 # # : 3 # 1 2 1 0 1 < T B.xXeXdXcXuXeXfXfXfXfXdXfXfXfXdXfXfXfXdXdXfXsX",
"dXkXdXmXdXpXlXsXpXkXaXkXkXdXdXdXnX3X3Xr.z * : 4 @ # 3 3 4 1 o o 3 * o 2 O O * k 2 z.bXtX0XxXuXdXfXfXwXfXfXfXfXdXfXfXwXwXwXuXuXuX",
"aXdXdXpXmXdXmXaXxXgXgXgXsXsXpXdXuXg.[ h < O * < 9 # * < 3 * o @ & : o : o . : @ k $XdX1X0X0XsX1X0X0X0X0X0X0X0X0XwXwXwX0XwXwXwX0X",
"iXdXuXuXuXaXdXaXpXgXaXsXsXsXdXdX7XE B B q : * : : X @ 1 3 o   * # * < 3 o . o & g v.dXdX0XeX0X1XuX6XuX0X3X1X1X1X1X0X0X1X1X1X1X1X",
"uXiXuXuXuXuXuXdXdXpXuXdXdXpXdXkXr.* q 2 5 # 3 * & & * 1 3 o # > # y 5 < #   . @ + e.cX1XfXfXdXuXuXuXuXfXuXwX1X1X>X2X>X1X>X1X>X2X",
"uX6XpXpX4X6XuXuXuXgXxXhXrXbXmX,X_ 6 # 0 0 o *     : 5 < y O o @ V A K 6 g 3 : # * ( 1X6X4XaXnXiXcXxXhXfXeXuX0X0X0X0X1X1X0X1X>X0X",
"kXpXeXpXgXgXpXuXcXaXuXgXgXuXv.[ R q X 0 0 : @ . O O o : < * + B ..#. .N C O 3 # # Z `.oX>X2X<X3X<X>X1XwXuX6XuXuX1XfXlXlXsXuXwXuX",
"2XeXeXtXeXtXjXbXaXcXkXcXpXaX( , q 1 1 k p 0     M B * o @ . 7 X.$.<.P / V + 4 9 * 9 n.nX1X2XXX2X<X>X>X>X$X>X>X,X>X>X>X>X1X3X1X6X",
"Q ' ] { w.t.p.i.x.V.W._.`..X( h 0 , , 9 h + O 5 F A 6 l C L ,.3.7.7.7.7.N M , # 1 p ( e.<XcXaXdX1X3X2X>X>X>X2X2X1X1X1X1X1X>X2X>X",
"i.i.y.t.e.e.{ { { } { { { 6.R 6   : # h _ q S D O.2.a.2.2.A.Z.8.8.J.H.A.L 6 2 o 1 4 6.j N.aXmXcXcXcXcXcXcXcXgXeXuXsXgXuXwXuXuXuX",
"2X5X5X2X<X%X%X%X#X.X#X#X.XW.E q     # q ;.7.7.7.S.P.D.Z.D.S.J.D.;.L S #.@.6 2 : * 9 R 3 { N.N.B._.'.[.{.XX2X1X2XeXuXuXsXcXcXxXhX",
"2X7XpX4X7XpX7XnXnXnXpXpX7XnX{ q z @ @ 1 <.A.@.) -.q.L.L.D.D.s.A 6 Z / ~ ^ P 2 @ * . X l # E { } ] ] ] ] ] [ { :.e.6.r.b.B.I.N.v.",
"%X4X4X2XpXpXaXaXaXcXxXxXaXnXN.1 R 9 & q =...L R B Z @.S.U.S.*.) -.q.a.7.<./ 6 X * 1 1 1 6 ( W.`.`.I.N.N.v.d.i.g.i.i.r.e.:.{ { { ",
"pXpXpX4XaXaXpXaXaXaXaXaXxXxX<Xg.` J 1 6 -.2.f.S.Z.q.%.q.H.Z.#...X.) O.+.%.=.7 = 1 1 2 < ` i.].XXXX.X+X+X.XoX{.+X,X+X$X+X.X.X{.].",
"5X4X7XpXaXaXiXiXpXaXaXkXjXcX<Xr.l q 4 2 >.U.s.-.X.^ G ,.Y.F...P *.R U ^ O.1.A + O 1 h ( W.nX6XaXuX3X3XuX$X^.$X6X<X3X<X<X+X.X.X{.",
"%X4XpXpXnXaXiXpX4X6XaXaXjXbXi.. 9 0 # , f.S.-.X.S ) O.1.F.8.o. .q.%.O.&.,.a.*.8 # # l d.iXiXcXcXnXaXaXcX2XM.6XnXiXaXaXaX<X,X3X3X",
"5XpXpXpXaXaXaXaXuXiXpXkXdXcXB.1 h h , q U.S.q.1.X.%.%.q.F.F.<.o.&.1.q.q.Z.A.,.M o O Z +XcXuXxXcXcXnXnXcXXXk.aXcXcXnXcXnX6X6XnXiX",
"4XpXpXpXpXaXnXaXpXcX4XpXfXbX2XQ k q 2 ~ P.L.D.a.1.1.Z.S.K.D.5.$.2.7.Z.A.S.A.3.D O * k e.pXbXdXcXcXnXnXcX;Xl.jXxXnXuXnXaX6XiXnXnX",
"7X7X7XaXaXaXaXpXnXaXaXxXjXjX|.R Z 4 h K @XT.L.D.K.K.S.D.L.D.F.$.8.Z.F.D.S.A.7.P 1 q * 3 4X6X1XcXcXcXcXcX;Xc.aXbXcXiXnXnXaXnXaXnX",
"4X<X4XaXaXaXaXpXaX6XnXaXbXbX>Xe.z R k 6 U.R.T.T.L.T.L.R.R.D.5.4.4.F.G.G.F.A.8.P 4 B g 6.cXxX1XcXcXnXnXcX2Xc.pXcXnXaXnXaXiXiXiXnX",
"<X%X<XpXaXaXaXpX6XpX<X6XdX1XcXg.{ v.E J n.@XP.R.T.R.P.q.Z.3.D o.$.A.A.F.A.A.7.L h 2 E aXpXnXaXcXcXnXnXcXeXk.4XcXaXnXiX8XiX3XmXaX",
"nX8XaXpXnXxXaXpX5XxX6X4XfXdXjX>Xy.b.i.J f.@XP.R.T.Y.Y.3.3.=.G o.8.8.8.8.Z.7.2.C # @ m.nXaXnXaXcXcXcXcXcXpXl.;XcXaXiXaXiX3XiXaXaX",
"m.m.m.E.W.#X[.E./.[.'..X XoX;X.X.XW.i.J *.R.T.T.R.R.L.3.X.X.D D #.7.7.7.Z.<.P q 0 X m.mXaXnXaXnXcXcXcXcXpXM.2XxXaXaXnXiX3XaXaXaX",
"f u f b b I b b I Y n n T Q Q Q ` Q ` J ~ f.P.H.Y.D.1.A V C V 2 N L ..7.<...K 9 < # v.`.$XiX6XuX7XiXiX<X.X9.[.aX,XXX6X6X.X3XiXiX",
"b b J b Y n n n b f b f Y W T I T T E ( B @.s.H.H.X.A D S O.^ H H N D  .@.S q 9 O , n.,X<XiX6XiXaX6X3X6X#X9._.iX$X{.,X<XI.{.&X$X",
"u { {.[.{._.[.[.`._.[.} n { B.k.u.W T 6.K L *.f.2.L D ..&.&.+.+.^ ..^ ^ L 2 9 9 z { +XcXaXcXaXaXnXnXnXnX7Xl.#XnXnXiXaXnX$X9XiXaX",
"d b.aX8XiXcXcXcX7XjXtXt.m M.qX-X~.! J d.6.h ~ @.=...7.A.F.4.&.%.#.,.X./ V q k # :.iXcX<X6XcX6XnXnXcXcXnX6Xh.oXcXaX1X3XnX,X3XaX3X",
"0 g.8X8X&X9X7XjX7X#XOXw.U M.:X).M.Q n g.{.J J K X.s.H.s.) A S A ..4.#.K q * # 9 g.cXcX1X2XcXmXaXnXnXaXcXpXh.}.xXaX6X3XcX<X<XaX,X",
"f g.aX8XpX4XeXjX4X5XyXj.U k.:X-Xc.Q J 6.&X6.q K L a.D.A.#.F F ..#.#.F q 3 * # , y.cXcX;X;XcXnXnXaXnXaXiX6Xk. XxX6XaX6XnXuX,XaXiX",
"d m.nXaX8X7XfX7XpX7XpXv.Y M.-X~.!.W J y.8X{.n q B A *.-.<.4.X._ K V q # * + B V R mXcX1XoXxXuXaXnXaXcXiXeXk._.uXuX3X<XaXiX,XnXaX",
"u v.nXaX8XaXgX4X4XpXaXv.n i.-X(.~.Y b g.8XpX] < 2 9 h A ^ ) S 7 6 2 : # . 3 ~ B s N.nXuX XcX3XaXnXaXmXiXjXj.B.aX1X1X<X7X7X$XnXaX",
"f v.aXaX8X7XdX4X5XpXaXg.Y c.:X~.!.Y Y v.pX4XR 0 9 1 3 0 p s * & @ :   X + y Z 4 * r.cX>XoXcX<X3XiXnXiX6X5Xu.B.nXuX3X<X<XiX$XiXpX",
"f v.aXpX9X7XeX4X7XaXpXp.b k.-X!.c.! b C.nX.Xp p z # 3 &       $     X X 5 B y s c j I.cX|.dX+X9XaX8XfX6X#Xh._.nXiX$X+X$X9X9XnX6X",
"u v.nXaX8X5X5X%X5X7XpXt.s k.-X~.M.W n { 2Xe.c & ~ Z , +   $   $   . , V A R l t t j s y.|.wX,XmXaX9XmXnXeXu./.iXiX3X,X+X6XiXnXiX",
"u v.aXpX9X9X4X5XaXpXxXt.u h.*X(.M.W U } ] n m $ K >._ C 5 * O o 2 C ~ [ ) A 3 3 r s t 3 ] z._.cXmXaXcXaXbXj./.pXiX3XiX3X1XiXnX7X",
"f v.xX7X9X9XpX8X<X4XjXu.e w.=X(.u.T T U t a U * + *.f.;.) / _ _ ) @.) X.) Z 3 ; t * t j r t c | +XaXcXcXxXj._.nX<X+XuX3X$X6XiXiX",
"u v.aX7X9X9XeX7X4XeXbXk.u 9.l.' x t r t c e I v i k *.=.2.;.-.=.-.X.*.*.R l ; - * ; t s t s c a x { ~.nXjXj.~.nXiX,X3XfX+X6XuX6X",
"u t.jX7XaXpXuXtXpXbX;X:.T T s a w w w r s w w m I s c Z ) *.-.;.*.) _ U y r * = - r r r r r t x j s v ] !.u.=XmXsXrXtXtXtXtXtXtX",
"{ i.pXpX4XbXyXjXjXV.E s i r w = w r w w w w w w r s s y 4 v ~ ) E y = % % e % * r r r r r r r a a s c s v U 0.=XsXqXyXyXtXyXtXjX",
"*XbXeXjXfXyXqXOX] f r r r s = w w w w w w w w e w w x c $ . r x - % = e = e - r - - r r r t t a a t c s v I x U k.yXqX:XtXtXjXrX",
"=XjXcXpXcXqX{ x a i r r - = - - w w w w w w a w w = a u % % $ = = % e e % - w - < r r r r t a a r a s t v s I Z I } OXtXqXqXyXfX",
"OXrXfXXXN.] v s r r ; ; r w - = r w a w - = - w w r - % w e a e w % % = = - = 3 e r r r a r r t x r a x c c j v Z v W XXbXtXeXeX",
"!.tX|.] U v p t 3 r r - ; ;   ; w w w w w w w - w r r w w e I a % - w ; = = - : r t r t r a a s r r x c s c a v c Z c W >XgX2XrX",
").qXn._ U v - r - i = ; ; & w & e t w - w r - - w & w r e w ! x - w = % - r w e w t s s s y s a s x s r c s x c y v v * 0.cXhXbX",
").:Xz.| v - w w w - w w & = - = w r w = - - = w w = e - w w e w & - = w r e r s a s r s s a a a t s s a s x i d x x s c t |.cXeX",
"=X:X0.U a ; = a w ; w w = = - = - i w - - e w ; - - - ; u e - ; e w r w r w a r w a a a a a a a a a r x a r s s x s e y e [ uX|.",
"qX*X! R i % - e w - ; w = = - = e r w - - - w e e w - ; w e - e w w w w r w a w a w a a a a a a a r a a w a f a s r e t r U W.I.",
"wXk.c T i & e e w - w e % % - = - r w - - - w ; ; w ; w u ; e w w w w w w a w r a a a a a a a a a w s w w x s a x r e r i t r.n.",
"oX| c n s - > e ; - w - % % ; = w r w e w - w e - w ; w w w e e r r r r w r a w w a a a a a a r a a s w w x w r t a = r a 3 | z.",
"u.c I t a - $ = w ; w - % = e = w r e - w w w - ; ; - r w w w w a w r a a a w a a a a a a s s r w a a e w s w w a - % t t ; U n.",
"U y v a a w & = ; e e - = e w - w r - - - - w w w w ; w w w w w a a a r w w a w r a a a a s s a a a w e a r = w s = e - r t Z e.",
"v s I r w w % $ - - - = % - w = w r - - w w w w w w w r a w w w r w a w w w w a a a a a r s a r a a w e a w = a w - w - r t t m ",
"s e I e w r & o - = e = % - w - w r - - w e w - w w ; r w u w w a r w w w w a w a x a r a f s t a a = e a - = s - = - r r r s v "
};
