/* XPM */
static char *result[] = {
/* columns rows colors chars-per-pixel */
"16 16 28 1 ",
"  c #A22E2C",
". c #CD3A36",
"X c #805436",
"o c #925E3C",
"O c #9A633F",
"+ c #A85451",
"@ c #A96C43",
"# c #B17147",
"$ c #BC774A",
"% c #B27B57",
"& c #807974",
"* c #C77E4F",
"= c #62873E",
"- c #C2873E",
"; c #B58261",
": c #B78D71",
"> c #C98D66",
", c #CC9674",
"< c #99938F",
"1 c #A7A19D",
"2 c #AFAAA5",
"3 c #B9B4B0",
"4 c #CFA68B",
"5 c #CDC7C2",
"6 c #D5CFCA",
"7 c #D6D0CB",
"8 c #DAD4CF",
"9 c #DDD7D2",
/* pixels */
"**OX4X$***OX4X$*",
"*OX444X$*OX444X$",
"OX44444XOX44444X",
"X44::::;X:::::4,",
">X4:988865555:,X",
"**X:733333332;X>",
"***X73+3 3=31X>*",
"***o83333333<%**",
"**OX63-3+3.3&X$*",
"*OX:63333333&:X$",
"OX4:53 3+3+3&:4X",
"X44:53333333&:4,",
">X4:521<&&&&&:,X",
"*$X::;X%#@X::;X>",
"**$X,X>***$X,X>*",
"***OX>*****OX>**"
};
