/* XPM */
static char *result[] = {
/* columns rows colors chars-per-pixel */
"16 16 32 1 ",
"  c #110E08",
". c #1E150B",
"X c #19140C",
"o c #1B160D",
"O c #281E0B",
"+ c #262012",
"@ c #292114",
"# c #2B2315",
"$ c #2D2417",
"% c #582D1A",
"& c #5B2F1C",
"* c #41341F",
"= c #433621",
"- c #473A23",
"; c #4A3C24",
": c #4C3D26",
"> c #635230",
", c #695433",
"< c #7D5831",
"1 c #705938",
"2 c #735E39",
"3 c #755E3D",
"4 c #7C623E",
"5 c #99683A",
"6 c #A4733F",
"7 c #B4774B",
"8 c #9F844D",
"9 c #B4905A",
"0 c #BC9862",
"q c gray71",
"w c #D8D8D8",
"e c white",
/* pixels */
"X8888$7&%7$0000X",
"X09299+%%+89890X",
"X088<89#$009200X",
"X,,;;22oo2=OOO2X",
"X88<800+$8<O1O1X",
"X82O990+#95OOO>X",
"X00O000++8;wwq3X",
"X2,O,,,oo2,ewq-X",
"X00Oq28$$991wq3X",
"X8qwq39#+882eq>X",
"X911q38.+899wq1X",
"X,22**, o222@q*X",
"X006080.+8885e3X",
"X826000+$9988>>X",
"X08<800+$089000X",
"o224,,4Xo22,:,,o"
};
