/* XPM */
static char *b7fdc068383c4745dab400ea96bb4ce2EjJrN2GCkRg5Xr4C[] = {
/* columns rows colors chars-per-pixel */
"64 64 256 2 ",
"   c #0C0B03",
".  c #070703",
"X  c #140D04",
"o  c #16120A",
"O  c #191B15",
"+  c #101210",
"@  c #29190B",
"#  c #29190F",
"$  c #1D231A",
"%  c #262419",
"&  c #362416",
"*  c #32341F",
"=  c #1D2927",
"-  c #142630",
";  c #262B27",
":  c #293329",
">  c #36362A",
",  c #283738",
"<  c #393C34",
"1  c #2A2C2E",
"2  c #1A1E21",
"3  c #462916",
"4  c #573219",
"5  c #6F331A",
"6  c #583926",
"7  c #4B3125",
"8  c #6D3D2A",
"9  c #3B4335",
"0  c #3B453B",
"q  c #314636",
"w  c #454638",
"e  c #574A38",
"r  c #504B36",
"t  c #67442C",
"y  c #684937",
"u  c #774C32",
"i  c #76421D",
"p  c #2E3C46",
"a  c #183756",
"s  c #443F43",
"d  c #384746",
"f  c #374B56",
"g  c #344D4C",
"h  c #3A5E58",
"j  c #474B44",
"k  c #48584A",
"l  c #56584A",
"z  c #485857",
"x  c #585D53",
"c  c #4D4D45",
"v  c #645D54",
"b  c #74564A",
"n  c #476958",
"m  c #586558",
"M  c #536C55",
"N  c #646554",
"B  c #63655A",
"V  c #6B6B5C",
"C  c #656A5A",
"Z  c #6D6A5A",
"A  c #4C6666",
"S  c #596864",
"D  c #597668",
"F  c #5D7A73",
"G  c #526F6F",
"H  c #6D6E61",
"J  c #646D66",
"K  c #716F62",
"L  c #6D7263",
"P  c #67786B",
"I  c #737265",
"U  c #757569",
"Y  c #7A7A6D",
"T  c #76786A",
"R  c #6B7974",
"E  c #7D7D72",
"W  c #757C76",
"Q  c #636972",
"!  c #435561",
"~  c #8A2D30",
"^  c #912F15",
"/  c #865A3A",
"(  c #965938",
")  c #844930",
"_  c #A75631",
"`  c #88623C",
"'  c #865A45",
"]  c #8F5D4E",
"[  c #AD564E",
"{  c #8B6549",
"}  c #98694A",
"|  c #8B6859",
" . c #9A6955",
".. c #9C735A",
"X. c #97724F",
"o. c #A5734C",
"O. c #A76A5A",
"+. c #A87757",
"@. c #B57B59",
"#. c #AF6B4D",
"$. c #9A7766",
"%. c #817E72",
"&. c #8C7E75",
"*. c #8A7669",
"=. c #A87B65",
"-. c #B67C65",
";. c #AE7168",
":. c #C97B66",
">. c #C16C48",
",. c #6B8469",
"<. c #6A8478",
"1. c #7E8175",
"2. c #74867A",
"3. c #7B857C",
"4. c #748B7C",
"5. c #7B8A7C",
"6. c #758874",
"7. c #79937B",
"8. c #748A72",
"9. c #B7835C",
"0. c #838275",
"q. c #84857B",
"w. c #868A7D",
"e. c #8A8B7D",
"r. c #898778",
"t. c #948D7E",
"y. c #8F8F7A",
"u. c #AC8369",
"i. c #BC8C6D",
"p. c #B78467",
"a. c #AB8775",
"s. c #BD8C73",
"d. c #B78977",
"f. c #BB9379",
"g. c #AD907A",
"h. c #CA875E",
"j. c #C5896A",
"k. c #CB936C",
"l. c #C68975",
"z. c #C4937C",
"x. c #C99578",
"c. c #D49A7C",
"v. c #D59679",
"b. c #D38F72",
"n. c #D9A37D",
"m. c #E39B75",
"M. c #6C7D86",
"N. c #526F86",
"B. c #827D83",
"V. c #6B8783",
"C. c #7B8C84",
"Z. c #768985",
"A. c #789287",
"S. c #718C99",
"D. c #7896AC",
"F. c #7DA3AB",
"G. c #7CA2C5",
"H. c #848B83",
"J. c #8B8C84",
"K. c #8E8F8A",
"L. c #858987",
"P. c #918E83",
"I. c #8C9383",
"U. c #889389",
"Y. c #93938B",
"T. c #969788",
"R. c #879797",
"E. c #989B93",
"W. c #8C8D92",
"Q. c #B98E81",
"!. c #A99687",
"~. c #BA9686",
"^. c #AC968F",
"/. c #99A398",
"(. c #89A391",
"). c #A8A69B",
"_. c #B9A598",
"`. c #B6A28D",
"'. c #869CA6",
"]. c #9F9EA6",
"[. c #90A8B0",
"{. c #AAAAA3",
"}. c #B6B4AA",
"|. c #BABAB6",
" X c #ABB0AF",
".X c #C49483",
"XX c #CB9A84",
"oX c #C89987",
"OX c #D49C84",
"+X c #D99B86",
"@X c #CF968D",
"#X c #E19A86",
"$X c #C9A289",
"%X c #DCA383",
"&X c #D4A38C",
"*X c #DCA58B",
"=X c #DDAA8B",
"-X c #DBA885",
";X c #C6A797",
":X c #DAA793",
">X c #DFB18F",
",X c #E3A789",
"<X c #E3AD93",
"1X c #E4A996",
"2X c #E7B396",
"3X c #E1B38F",
"4X c #C9B8AA",
"5X c #C8BDB7",
"6X c #D0B3AA",
"7X c #EFB4A5",
"8X c #BCC4BB",
"9X c #C8C5BA",
"0X c #D3C5B9",
"qX c #E1C2AD",
"wX c #8EB2C9",
"eX c #ACBDC7",
"rX c #B0C6CE",
"tX c #B3D3E8",
"yX c #B8E4ED",
"uX c #C8C9C6",
"iX c #D7CBC6",
"pX c #DAD2CC",
"aX c #DBD7D6",
"sX c #CBD2D3",
"dX c #E3DAD5",
"fX c #E3DCDC",
"gX c #E6D9D8",
"hX c #E5D1C9",
"jX c #EBE2DD",
"kX c #E8E3DB",
"lX c #F3E6DD",
"zX c #DADBE2",
"xX c #C8D8E8",
"cX c #E5DDE1",
"vX c #D0E7EE",
"bX c #EBE3E3",
"nX c #EBE6EA",
"mX c #EDEBEC",
"MX c #E6E4E8",
"NX c #F3EDEC",
"BX c #F4EAE7",
"VX c #F5F1EE",
"CX c #FBF1EC",
"ZX c #EDECF3",
"AX c #E8EBF7",
"SX c #F2EEF3",
"DX c #FFEFF0",
"FX c #EEF4FC",
"GX c #EBF1F4",
"HX c #F3F2F5",
"JX c #FAF5F3",
"KX c #F4F4FA",
"LX c #FDFDFC",
"PX c #F8F9FA",
"IX c #EBF3EC",
"UX c #DAE1DA",
/* pixels */
"E E E Y Y Y 1.Y 1.E E E E E T Y E E H V N N N N V V V N V I I I U U I L L L I I I L I L H V H H H H I H K K K H V H H H H K H H ",
"Y Y Y 1.0.1.1.Y 1.1.E E 1.1.1.1.E U B I I V N N N N N N N N N B N N Z Z Z V Z Z V V I I I I H I L H K L K K K K H K H H K K K K ",
"1.1.1.1.1.1.1.q.1.0.q.%.1.E 1.Y E q.0.E Y E Y 1.Y T I I I H C V N Z C N N N N N L I I I I I U I L I I I I K K K K K K K K K I I ",
"1.1.q.q.q.1.1.q.q.q.3.1.q.w.w.q.q.E 0.0.0.E Y E 1.Y Y Y Y Y E Y 0.T V I ,.I K I I I I U T U U I U I U I U K U U I I U U U U K U ",
"q.0.q.q.q.w.H.e.w.q.q.q.1.Y 1.0.q.0.q.E E q.0.E Y 1.0.0.0.%.U V K E 0.E *.I T T Y Y Y U T T U U U U U U T U U U T T U I U U I U ",
"H.q.0.q.q.q.q.q.q.e.T.{.}. X).T.w.1.e.w.q.q.q.1.w.r.Y x < % % O O O w B T 0.*.0.Y E Y Y Y Y Y Y U Y Y Y Y Y Y Y Y T *.Y *.U *.Y ",
"e.w.w.w.H.q.e.I.{.uXVXLXLXLXLXPXuXe.0.q.q.3.q.J.I r % o X o o . . . . . O x r.Y %.%.%.%.%.%.%.Y E E E E %.%.%.%.%.%.%.%.%.%.E %.",
"w.w.e.H.J.).9XbXLXLXLXLXLXLXPXUX).q.I.w.r.J.q.V %   . X X X     X .     . + r r.0.0.%.%.0.0.%.0.%.%.%.%.%.%.%.%.%.%.r.0.r.0.0.%.",
"J.J.H.I.sXLXLXLXLXLXLXJXkX|.E.J.0.K.J.P.w.e.B O   o @ O o o   . X . .   . .   : I y.r.r.r.r.0.0.w.q.q.q.r.e.e.r.0.r.0.Y 0.1.*.0.",
"e.J.P.E.9XkXMXVXIXaX|.E.H.w.J.Y.Y.H.K.w.e.x X # @ % # # % # @ % o o o     . . . o Z P.%.y.0.y.t.r.e.J.y.r.r.r.y.T.).|.9X4X}.).r.",
"e.w.w.3.J.w.q.I.Y.Y.J.J.Y.K.I.K.r.P.H.J.K % & & & # @ & & & & & & # o X o @ o o   X v T.y.y.T.y.t.t.r.y.E.{.9XUXNXLXLXLXJXJXVX}.",
"0.3.q.q.w.q.w.e.w.q.q.H.J.J.K.J.P.Y.K.E & 3 6 7 4 6 y y t 4 6 t y t 4 3 3 3 @ @ # X @ I y.t.t.y.T.}.pXbXLXLXLXLXLXLXLXLXUX9X8XT.",
"J.J.K.J.K.I.J.H.J.J.H.H.J.K.K.W.K.L.K.> 6 t / {  .p.z.z.i.p.-.@.9.9.o.{ / / u 4 6 & o w y.t.`.).}.BXLXLXPXLXPXHXgXuX}.E.T.e.e.t.",
"H.H.H.J.J.J.K.J.K.P.K.K.K.K.K.K.K.E.x & | p.j.x.%X*X%Xc.OX,Xn.v.k.k.j.j.k.k.i.9.o.{ 3 @ 0.4XT.!.!.).}.}.9X9X{.T.P.Y.Y.P.T.!.P.P.",
"c l l x m C H K U Y 1.3.q.H.q.q.e.e.l y i.OX%X*X*X<X<X,X%X,X,Xn.c.k.k.v.,Xn.n.n.n.k...3 & `.).t.T.Y.T.T.P.J.t.T.T.T.t.P.Y.J.t.T.",
"> w : 7 7 < < < < w w w w r c c l l r | OXc.=X:X1X2X:X&X-X,X+Xc.c.OX%X%Xn.,X-X3Xm.,Xc.b @ K ).P.Y.Y.Y.U.K.Y.J.w.0.P.q.J.w.%.w.r.",
"w , : w l j k c c r c w w w w w 7 w e | XXOX*X=X<X<X=X=X*X,X+X%Xn.n.,Xm.m.n.n.n.n.>Xk.u.3 e T.w.U.J.P.J.T.Y.J.Y.Y.J.I.I.I.J.w.w.",
"0 , : j n m J C C m C C m m m N m l e ..XXc.*X<X,X<X=X<X*X,X%X,X3X,X3X3X3X,Xn.,Xn.k.k.9.t 3 N l x N V B I I I Y E 0.q.J.H.e.P.P.",
"x f q z M D ,.<.<.P 6.2.,.R R 5.L.H l =.XXc.,X=X1X1X,X#X=X=X-X%Xn.,X,X3X2X2X,Xn.n.k.k.o.u e e 9 9 7 < > w > w w w w w w c x v v ",
"z f d m n n n D P <.2.R 2.<.<.R.rXE y =.x.*X:X:X#X1X1X7X1X,X,X,Xn.,X,X,X,X2X3X2Xn.m.h.9.` y l C N m N x l l c c r l r r e r e e ",
"h ! d M M n n n M <.<.R <.4.C./.PXr.b .X:X.X$.' ' b ] B.@X@X+X+Xn.l.l.-.+...=.l.3Xk.9.9.u t 6.8.P R M.R P U.M.W R L J H N l e N ",
"d f q k n n n n M D 2.6.2.5.A.U.uXN b @Xf.' 6 7 & # # 3 y  .l.b.l.O.y 7 & @ @ 3 u +.k.9.u r ).sXiXrX XR.R.xXrXE.[.'.W.C.C.x w N ",
"d g q 0 k h h n n M 6.2.2.2.2.3.C.c | :X;.b ] | *.v 6 7 3 8 =.l.;.u 3 @ # 7 t t 5 4 o.9.u t UXPXIXsX[.R.A.xXrXD.[.'.'.R.U.B 9 1.",
"d p q q k q g n S P <.<.Z.4.R 3.U.v b ;Xa.Q.$.' 8 7 6 u ' ' p.c.o.u 5 8 t y u ` { u o.9.` 6 E.].I.Z.S.U.A.rXrX'.'.W.R.U.3.m c 9X",
"g p d k n h h h G <.<.<.q.4.Z.U.A.x | oX$Xu.u y s . s b u O.s.<Xk.) i 8 v + # & 6 } @.k.) 4 Y 2.4.q.R.U.K.tXrXR.].R.K.Z.2.x c ).",
"g f d m G h n ,.n <.7.<.C.A.4.4.I.N | :X$Xz.+.=.| 8 b ' ;.l.b.1X3X) u / b 7 7 b 4 ( 9.k.` r R.8XuXsXvXUX{.[.R.W.S.R.Z.C.3.z j H ",
"d p d m G <.,.n A <.4.<.A.A.A.7.g.$.=.&X*X<X+XoX.Xs.;.:.l.v.+X#X2X#._ (  .{  .[ k.k.k.n.X.u 9XkXsXrXrX XC.Z.Z.w.R.R.W.W.L.S j L ",
"g p , k ,.G h ,.A F A.7.7.C.w.7.[ d.Q.:X:X2X1X:X,X+X%X+Xv.+Xb.#X2Xb.o.@.:.j.j.b.,X3Xn.c.o.9.9.o.Y U C.5.6.C.3.Y U.U.U.R.R.S j J ",
"z p : k D n h h n D 6.6.2.2.w.w._ l.~.;X1X1X1X1X1X+X1X*X+Xv.b.#X,Xm.#.@.v.v.v.,X2X,Xc.c.h.#.^ ^ *.T H.7.6.3.3.w./.rXUXvXuXQ j H ",
"k , , M D ,.n ,.n G <.<.4.2.8.7.:.-.d.;X1X1X1X:X7X1X,X+Xv.b.#X#X#X,Xh.[ j.#X1X1Xc.,X,Xk.+._ _ ^ | I C.3.6.5.3.H.{.8X8X|.].S 0 C ",
": - = < q g q g g n M M D J L L :.:.l.oX;X:X1X7X7X1X:X+Xl.l.l.@Xl.@.#.( >.m.,X,X,Xv.j.k.@.5 >._ *.C.K.W ,.0.3.5.7.U.].R.3.S d V ",
": 1 + X   + + + + = q > < < < w -.:.@Xf.&X1X:X1X2X:X@Xl.l.-.8 O.[ 5 ( ( @.b.v.v.v.j.j.9.h.^ ^ >.b W M.W P Y T T A.U./.E.3.S c v ",
"q = O +       +   % > > > * > > ;.,XXXf.$X@X1X-X1X:Xb..X:.~ 8 | b 4 8 _ @.:.j.l.j.@.9.j.@._ _ 9.x x C B x N N C L L C C m r 9 N ",
"q - O   : q q ; : 9 0 d 0 9 w > ..7X+X.X~.&X1X&X1X+X+X#X@X;.O.[ ) ~ ;.:.@.@.-.j.-.9.9.p.>.m.k.a.q.R L.3.P r.r.y.y.7.8.8.L l w m ",
"g = $   k 7.0.,.D P P <.P D P q c @X@Xf.Q.@X$X:X+XOX+X#X@X+Xl.[ O.;.l.v.j.p.@.@.+.p.9.9._ h.n.`.E R R.U.w.E.E.E./.T.y.7.,.x 9 N ",
"g - = O ,.y.7.,.D <.<.V.V.4.<.q : | !.t.~.@XXX:X%X*Xx.@X@X@Xl.;.l.-.d.l.i.p.j.9.9.@.p.@.( ( x.8X{.Y.H.5.5.I.T.I.T.(.y.y.1.x 9 C ",
"z , , ; D H.,.,.<.D <.<.V.A.<.0 : v E.C.Q.@X@XoXb.OX.X.X@X@X;.;.;.[ [ O.O.O.@.9.p.@.@.u.=.$.g.!.;XpXuXE.E H.E.I.(.y.y.U.1.x 0 C ",
"h , - 2 M 7.7.8.<.<.V.V.V.A.D 0 > J (.(.^.@X:XoX$Xf.O.] ~ ~ ~ ~ ~ ~ 5 5 5 ' +.p.9.9.@.g.!.T.g.u.!.0XDXcX9XE.q.J.y.(.y.w.,.l 0 C ",
"f p 1 1 M A.7.7.V.<.V.V.V.V.,.q > m [.8X_..XXX$X$Xd.-.;.[ [ [ [ ~ [ #.#.+.@.+.o.+.@.9.~.!.^.`.`.`.6XaXcXSXbX}.%.y.I.w.w.8.l 9 C ",
"z d 1 2 k P 8.7.<.<.<.V.<.<.,.q * x eXgX;X~.oX.XXXl.XX@X@X.X:.O.[ ;.-.9.9.+.o.@.+.+.p.`.~.;X`._._.uXpXgXcXcXfX}.7.7.w.r.1.x 9 m ",
"z d 1 - m 8.8.7.7.<.<.<.V.<.n h % J nXhXB.Q.@X~.oXz.s.z.i.p.-.;.;.O.O.} o.X.o.X.u.X.u.`.`._.4X_.6XiXaXgXaXaXgXBXT.m 1.r.,.m 9 C ",
"A p 1 = S I.7.7.A.<.7.A.<.<.<.q > |.BX}.| ;.f..Xf.oXz.z.j.i.l.i.:.-.+.o.X.o.o.+...9.f.g.!.;X$X4X5XhXgXcXcXaXgXfXaXr w 1.6.l 9 m ",
"z p 1 > ,.y.7.7.A.<.A.<.V.V.F q j NXbX^.y =..Xd.oX$XXXx..X+X+XXXl.b.j.j.9.9.+.+.9.i.a.t.!.g.`.4XiXgXcXcXcXgXaXgXLXT.% L 6.z 9 N ",
"z d < 1 D 7.8.8.,.,.7.7.<.V.F - L.NXhX=.y $.+Xd.g.oX$X@XXX@X@X+Xl.j.p.@.9.+.+.+.9.x.z.t.g.`.~.}.iXgXcXnXcXcXgXgXkXbXw m R x 9 m ",
"S z 1 $ k ,.,.,.,.,.,.<.V.A.A x cXNXiX$.u | :X.Xa.a.f.oX.X.XQ.;.O.O.O.X.X.} X.+.9.i.qX0X`.g.;X4XiXgXbXMXnXbXcXgXcXBXH J L.A 0 x ",
"! j , : M ,.,.,.,.D <.<.V.N.V.HXKXnXiX$.u X.&X&Xf.u.=.a.Q.d.;. .{ } { } X.} X.+.k.k.i.dXBX4X_.9XiXgXcXnXnXnXcXfXbXSXW U. XV.d m ",
"p d 0 < P 7.7.8.<.<.V.V.V.'.AXJXSXNXhX| u X.&X&X$Xd.=.=.$.$. . . .{ ] { } X.+.9.i.k.9.qXJXNX0X4XiXhXbXnXnXnXnXcXBXJXJ Z.rXD.p R ",
"! p = : C 7.y.w.F.eXrXrX[.AXLXBXSXGXhX| 6 X.%X&X&X.XQ.a.=.=.$.*.{ | { } +.@.9.i.x.n.` 4XIXJXlX0X0XpXfXnXnXnXNXnXCXgXx k [.D.d Z.",
"j f M.S.D.[.R.7.F.tXyXyXyXPXKXPXFXSXlXg.4 } &X&X&X$XXX.Xd.a.=.=.$...X.+.9.i.i.i.x.n.u ~.JXVXCXdX0X0XiXkXnXmXmXmXBXiXj < W W.f wX",
"! p wXyXxXeX(.y.A.[.tXtXGXPXPXFXJXPXSX6X4 ) c.<X:X:XXX~.Q.Q.Q.=.=.=.+.+.p.i.s.i.x.v.5 *.VXVXJXlX0X0X0XpXdXMXmXVXCX|.j d l C.A [.",
"! p D.wXwX[.A.8.A.wXwXyXVXJXHXFXJXKXFXNX{ i k.v.&X:XOX.XQ.Q.Q.Q.d.u.9.u.p.i.i.k.f.k.5 *.HXHXJXVX4X9X0X0XpXBXVXlXlX}.d j j Q A wX",
"! a M.wXF.F.F.<.S.wXwXvXVXPXPXPXSXFXFXKXiX/ } ,X&X*XOXoXQ.Q.Q..Xf.p.u.u.p.p.i.x.k.k.5 r.LXVXVXVXhXqX}.0XjXCXVXkXjX}.j j c Q Q [.",
"p p M.G.M.D.S.D.F.[.xXKXPXKXPXHXPXGXKXHXJX6X' @.$X&X&Xz..X~.Q.Q.d.d.=.p.p.i.i.f.j.@.i _.LXVXCXVXlX0X0XkXJXJXkXpXBXK.: : < l M.D.",
", - M.M.N.D.D.G.G.[.KXJXKXFXGXJXFXHXJXHXZXCX6X} u.f.x.oXz.~.Q.d.d.u.u.p.i.i.s.s.j.} u iXHXCXCXVXBXlXkXJXJXkXdXdXlXv O % ; > Q D.",
"a f '.N.N.M.S.G.wXeXKXSXHXPXHXPXKXPXSXKXHXmXDXiXu.u.i.z.z.z.Q..Xd.p.p.s.i.x.s.s.@.' a.bXHXHXCXVXVXNXVXNXkXaXdXjXjXw O ; % O d '.",
"a N.D.A ! N.M.G.tXxXAXFXKXCXLXFXKXKXKXKXMXmXZXcX`...X.i..XQ..X.Xz.f.s.s.s.f.l.s.+./ 6XLXGXHXVXHXVXVXBXkXpXaXkXjXiX> % % % % = F ",
"p Q B.W Q R  XMXAXAXHXHXAXFXKXKXSXKXKXKXSXZXSXeX X_.d.{ i.d.Q.oXXXx.a.i.XXz.z.p.] $.BXHXHXVXJXVXNXmXdXpXdXkXdXdXpXv % o % % $ j ",
"B.M.Q M. XzXFXZXZXAXHXHXSXHXAXSXKXKXZXZXKXSXSX XcX9XCX;X' +.a.d.z.l.j.z.f.f.f.+.] 6XCXGXHXVXmXNXbXaXiXdXjXdXhXdXJXJXpXI > $ $ > ",
"W.B.].zXKXAXnXZXZXSXSXKXKXKXSXSXnXSXKXSXAXmXAXzXfXcXaXPX6X .o.j.f.s.x.OX$Xf.u.} $.jXJXKXJXNXnXbXiXaXdXjXdXiXpXbXCXVXJXLXdXT.j O ",
"uXMXSXSXnXZXHXHXSXSXSXKXKXKXKXKXAXZXAXAXZXAXAXSXKXaXcXmXHXgX=.} l.x.x.XX<X~.....0XLXSXmXmXdXaXuXpXkXbXpX0XiXkXCXVXJXVXIXJXLXbX).",
"SXSXZXZXZXmXZXSXSXSXKXSXSXFXSXKXKXZXnXAXAXAXMXAXZXMXsXnXNXLXCX`.} =.s..X@X~.;XgXiXcXnXnXcXpXpXcXbXfXiX5XuXjXCXVXmXVXVXVXJXIXBXLX",
"SXAXSXSXHXHXHXZXSXSXKXSXHXSXKXSXKXKXKXFXMXAXzXMXDXaXzXmXNXbXNXLX6X$.;.6XhXBXLXiX|.{.zXcXzXcXcXnXpXuX5XiXdXNXVXNXHXJXHXVXVXJXVXBX",
"SXSXSXSXSXSXZXZXSXKXKXKXKXHXSXHXKXJXKXKXAXKXZXMXZXcXzXzXmXNXHXKXLXlXfXDXLXPXcX XcX XiXcXaXcXaX5X5X5XiXcXNXNXNXHXCXbXNXJXHXVXJXJX",
"SXDXSXSXSXHXHXSXKXSXAXHXHXKXHXSXSXKXSXKXSXKXKXKXAXAXzXcXAXKXKXCXKXLXPXFXZXcXSXzXnX5XiXaXaXuX5X5XpXdXjXNXNXHXHXIXmXJXHXVXJXHXHXVX"
};
