/* XPM */
static char *result[] = {
/* columns rows colors chars-per-pixel */
"16 16 13 1 ",
"  c #3A0102",
". c #480102",
"X c #620204",
"o c #106300",
"O c #116F00",
"+ c #127200",
"@ c #8F0305",
"# c #910205",
"$ c #BA050B",
"% c #D10609",
"& c #F7070F",
"* c #168700",
"= c None",
/* pixels */
"================",
"================",
"================",
"================",
"================",
"========$$======",
"======$X@$%=====",
"=====%% .##=====",
"=====&&$##======",
"======%+o=======",
"========*=======",
"========*=======",
"========*=======",
"=====+*=*=**====",
"======+=O+======",
"=======+o+======"
};
