/* XPM */
static char *_104d78f6fe546f09ef0b2bc931f9010ZO1PY9WuAgBJYINF[] = {
/* columns rows colors chars-per-pixel */
"64 64 256 2 ",
"   c #080703",
".  c #160B04",
"X  c #191409",
"o  c #181917",
"O  c #0F100F",
"+  c #241B0C",
"@  c #2B1C0C",
"#  c #281607",
"$  c #351C08",
"%  c #251C12",
"&  c #271B15",
"*  c #341D13",
"=  c #220D04",
"-  c #35220B",
";  c #3B240C",
":  c #3C2508",
">  c #2C2215",
",  c #28251B",
"<  c #332314",
"1  c #3B2512",
"2  c #38281A",
"3  c #191722",
"4  c #2C1A30",
"5  c #182427",
"6  c #252B26",
"7  c #352923",
"8  c #2B3528",
"9  c #373527",
"0  c #383A37",
"q  c #253538",
"w  c #431F01",
"e  c #42250C",
"r  c #4C2B0C",
"t  c #482707",
"y  c #532C04",
"u  c #522D0A",
"i  c #592B06",
"p  c #4D320A",
"a  c #55320C",
"s  c #5C340C",
"d  c #5A3507",
"f  c #452B13",
"g  c #4B2C13",
"h  c #4B2E1A",
"j  c #452A18",
"k  c #522D17",
"l  c #4C3214",
"z  c #4A321C",
"x  c #543313",
"c  c #5A3512",
"v  c #53341B",
"b  c #5C3A1B",
"n  c #5A3719",
"m  c #633303",
"M  c #633A0C",
"N  c #67380A",
"B  c #633B13",
"V  c #663917",
"C  c #6F3710",
"Z  c #483526",
"A  c #593A26",
"S  c #593838",
"D  c #48322C",
"F  c #653C24",
"G  c #70392A",
"H  c #324736",
"J  c #75460A",
"K  c #694319",
"L  c #774719",
"P  c #704611",
"I  c #5D4527",
"U  c #584839",
"Y  c #524B35",
"T  c #674527",
"R  c #764926",
"E  c #684936",
"W  c #7B4C37",
"Q  c #715436",
"!  c #5F4218",
"~  c #313848",
"^  c #4E384C",
"/  c #703C49",
"(  c #384549",
")  c #3A4B56",
"_  c #3A536F",
"`  c #5A5448",
"'  c #575856",
"]  c #4C4E4A",
"[  c #685949",
"{  c #72564E",
"}  c #696459",
"|  c #756656",
" . c #716A4E",
".. c #4B5A6C",
"X. c #556673",
"o. c #797568",
"O. c #787976",
"+. c #6C6E68",
"@. c #59625B",
"#. c #923C2A",
"$. c #864B18",
"%. c #8F540F",
"&. c #9C6217",
"*. c #844827",
"=. c #845326",
"-. c #865538",
";. c #93583C",
":. c #8D5130",
">. c #95643B",
",. c #A6693A",
"<. c #A96D31",
"1. c #A65F2C",
"2. c #965B47",
"3. c #885853",
"4. c #89554B",
"5. c #A7564E",
"6. c #9A664A",
"7. c #996756",
"8. c #8C6954",
"9. c #A97449",
"0. c #B57848",
"q. c #A56857",
"w. c #AA7657",
"e. c #B67856",
"r. c #AB6A49",
"t. c #867869",
"y. c #857D73",
"u. c #897E75",
"i. c #817D7A",
"p. c #906C69",
"a. c #AA7B68",
"s. c #B77A67",
"d. c #B97B76",
"f. c #AB6E6D",
"g. c #975B66",
"h. c #C97373",
"j. c #C16C5D",
"k. c #778478",
"l. c #B98459",
"z. c #AF8150",
"x. c #8C847C",
"c. c #888379",
"v. c #93877B",
"b. c #8F8A70",
"n. c #B98569",
"m. c #B88775",
"M. c #B18571",
"N. c #C48969",
"B. c #C78976",
"V. c #C89479",
"C. c #D5967A",
"Z. c #CE8F71",
"A. c #C08357",
"S. c #717B86",
"D. c #937A90",
"F. c #D37585",
"G. c #758888",
"H. c #738F8E",
"J. c #7B979D",
"K. c #8D8983",
"L. c #8A8786",
"P. c #938B84",
"I. c #958E8A",
"U. c #978C86",
"Y. c #96918C",
"T. c #9A928D",
"R. c #959F87",
"E. c #898C96",
"W. c #89989A",
"Q. c #9B9692",
"!. c #9D9995",
"~. c #9C9B9C",
"^. c #959599",
"/. c #8B938C",
"(. c #A19A96",
"). c #A29D9A",
"_. c #A49995",
"`. c #A8938B",
"'. c #8AA69B",
"]. c #99A99A",
"[. c #97AD90",
"{. c #A4A19C",
"}. c #A8A59A",
"|. c #A9B598",
" X c #B0AB95",
".X c #9C9DA3",
"XX c #8A98B0",
"oX c #A19FA1",
"OX c #AC87B2",
"+X c #8AA8A7",
"@X c #9AA8A8",
"#X c #9AB5A8",
"$X c #9CA9B2",
"%X c #9CB4B4",
"&X c #8DB1AE",
"*X c #A5A3A4",
"=X c #AAA6A4",
"-X c #ABAAA5",
";X c #A4A5AA",
":X c #ABAAAC",
">X c #A6AAA8",
",X c #B3ADA9",
"<X c #A7B7A9",
"1X c #B4B5A9",
"2X c #A7ABB3",
"3X c #A7B7B7",
"4X c #B4B4B2",
"5X c #BBBBB4",
"6X c #B4B4BA",
"7X c #BCBCBB",
"8X c #B8B7B8",
"9X c #B5AEB7",
"0X c #C98B86",
"qX c #C99686",
"wX c #D89887",
"eX c #DB9C92",
"rX c #D1928E",
"tX c #E29C89",
"yX c #E59C94",
"uX c #F69396",
"iX c #DAA294",
"pX c #D2A28E",
"aX c #E4A59B",
"sX c #E8A389",
"dX c #C2BCB8",
"fX c #E5AAA4",
"gX c #B3C3AE",
"hX c #B4C29C",
"jX c #C4C3BC",
"kX c #C3CDAC",
"lX c #93A9C6",
"zX c #ACBAC5",
"xX c #BABCC4",
"cX c #AAB8D6",
"vX c #9BB7E4",
"bX c #C0BEC5",
"nX c #B9C3C8",
"mX c #B0C5CF",
"MX c #BBCEE7",
"NX c #C4C3C3",
"BX c #C3C4CB",
"VX c #CAC9C8",
"CX c #C7CAD4",
"ZX c #D7D7D8",
"AX c #CFD1D2",
"SX c #E6E3DD",
"DX c #C9D6E6",
"FX c #D8DBE5",
"GX c #C7D4F1",
"HX c #DDE5F2",
"JX c #EAEAE8",
"KX c #E6F4FF",
"LX c #FEFEFB",
"PX c #FBF8F4",
"IX c #EEEEF1",
"UX c #E4DEDE",
/* pixels */
"Q.Q.Y.!.Q.Q.Q.Q.Q.Y.Q.Y.Y.Q.Q.Y.I.T.U.v.v.K.v.P.K.K.I.Y.(.{.{.{.Q.Y.P.L.K.K.L.L.x.x.u.x.x.x.x.u.c.i.c.u.u.u.u.u.u.i.u.u.u.u.u.i.",
"Q.Q.Q.Y.Y.Y.Q.Q.Q.Q.Q.!.!.Y.Q.Q.I.P.x.y.o.c.c.x.v.K.P.K.K.x.c.x.x.c.x.b.v.x.x.u.L.u.x.x.x.x.x.x.u.x.c.x.x.u.u.u.u.u.u.u.u.u.u.u.",
"!.!.Q.Q.!.).).Q.Q.Q.Y.!.).Q.Q.Y.T.I.P.K.K.v.K.P.P.v.v.K.x.x.y.y.b.t.o.t.t.t.u.u.x.K.K.x.x.x.x.x.x.x.x.x.x.x.x.x.x.u.x.u.u.c.u.u.",
"!.!.!.!.Q.(.(.Q.Q.).~.Q.Q.!.Q.!._.Q.Q._.Q.T.T.Y.I.U.P.P.P.v.x.u.c.c.t.t.t.u.u.v.P.P.P.L.K.K.K.K.K.K.x.x.x.x.x.x.L.u.x.u.x.D.u.K.",
"!.).).)._.Q._.}.(.(.}._.).).Q.Q.Q.(.Q.Q.Q.Q.Q.Q.!.!.Q.Q.I.I.T.T.U.P.U.U.P.K.P.P.U.U.U.P.P.P.P.P.P.P.K.P.K.K.D.K.x.v.x.v.x.u.v.K.",
").).).}.).).).).{.Q.Q.Q.Q.!.!.!.).).(.!.(.Q.(.!.^.Y.I.I.Y.T.I.U.I.T.T.I.T.U.I.I.I.I.I.I.I.P.P.U.K.P.P.P.P.P.U.U.P.U.v.D.v.P.u.P.",
"}.).).).).).)._.{.5XVXZXVX5X5X).!.!.!.).).Q.Q.Q.!.Q.Q.T.T.T.T.U.T.I.I.I.T.Q.I.Y.E.I.T.I.I.I.I.I.U.P.I.I.U.U.I.I.P.P.U.U.U.U.U.U.",
").).}.oX).).5XVXJXPXPXLXPXLXPX8X(.).).(.(.).(.!.Q._.T.v.o.| t.u.P.K.x.v.U.I.Q.T.T.T.T.T.T.Y.T.I.T.Q.Y.T.T.T.T.T.U.T.U.U.U.U.U.U.",
"{.{.(.-XjXUXLXLXLXLXLXLXIXUX5X).).).)._.).oX).(._.t.U z ; f A R { U A U | u.`.I.T._.T.T._.Q.T.I.Q.Q.T.T.T._.Q.T.T.T.T.T.T.T.T.T.",
";X=X5XJXLXLXLXLXPXPXUXVX-X).{.=X=X-X}.=X*XoX_.T.[ Z 1 z z v A V g k A h h { u.`.Q.Q.(._.Q.T._._.R.`._.Q.T.U.T._.=X).T.T.T.T.`.U.",
";X*X=XjXZXZXUXUXVX8X{.).=X:X=X).=XoXoX=X*X}.v.E t b F A h z T T R T F v v A T u.`.Q.(.{.(.oX_.`.(.T.T.}.1XjXZXSXIXPXPXSX4X_.I.`.",
"].=X].{.{.{.{.(.).*X-X-X=X=X:X:X:XoX=XoX).U.Q g T T b k v n V R 6.V n R R T F A v.}.`.Q.)._._._.5XjXSXJXPXPXLXLXPXPXPXSX,XT.T.Q.",
"!.oX=X=X;X=X=X=X=X;XoXoX:X:X;X;X;X;X:X:XQ.{ Z T E F V V m V ;.r.9.>.R R R R T r E b.M._.-X}.dXPXLXLXPXLXLXLXJXZXVX,X).(.T.Q._._.",
":X:X;X*X;X;X;X2X;X:X2X2X2X:X:X:X;X2X:X:Xt.Z F F S R R R ;.w.N.Z.C.Z.Z.e.*.V R u l 8.`. X,X=XdXSXJXJXJXZXNX4X-X).~.Q.!.)._.).).!.",
"@X;X:X:X9X2X;X$X2X;X$X.X$X;X;X$XoX2X:XI.U v W A F -.2.r.Z.Z.Z.tXC.C.sXC.e.$.s n r T  X,X=X=X=XoX*X*X=X*XoXoXoX~.).oXoX).oX~.!.Q.",
"} } } +.@.+.X.O.S.S.G.E.E.E.E.^.^..X.X{ D F A A R 6.B.wXwXpXsXC.sXtXC.C.N.r.V r n - `.dXoX:X:XoX*X*X*X).oX).oX.X).).(.^.Q.!.~.~.",
"Y Z 9 6 , 8 6 6 5 6 8 8 8 H 0 0 ] ] } S Z S A T 2.B.wXeXiXiXeXtXC.tXC.C.Z.e.=.t f r Q ,X:X$X$X2X;X;X.X;XoXoXoX.XoX.X.X.X^.^.(.Q.",
"' } +.X.@.@.@.@.' ' ) ] ] ( ( ( 9 Y E h Z U F *.s.wXaXaXaXeXyXtXsXwXtXC.Z.Z.w.i - e n v.I./.^.Y.~.^..X.X.XoX.XoX.XOX.X.X.X.X.X.X",
") O.'.'.'.J.W.H.J.H.S.G.H.H.G.k.O.| n z S A G q.rXaXfXfXaXaXtXtXyXwXsXwXC.C.n.L # ; ; [ [ ` ` E ' ' } } } +.} +.+.O.O.i.i.L.L.Y.",
"..W.%X%X<X%XgX%X%X&XJ.%XmXmXmX3X&Xo.z 9 Y F :.n.pXfXfXfXaXaXaXeXrXtXtXC.tXwXZ.,.# # @ A 8.} } } [ [ ` ` ` S ` ` ] U U ` U ` ` ` ",
"X./.<X#X#X].$X<X2X@X@X3XnXAXHXJXxX` h Y U n 5.eXyXaXfXuXyXeXyXeXtXC.h.C.B.yXC.0.f . - f u._.E.^.T.T.I.D.P.u.i.t.y.t. . .{ | | } ",
"S./.[.'.].[.@X%X%X%X3XzXxXZXIXLX9XS h S A g n.iXyXrXB.rXrXwXyX0XZ.e.5.q.q.w.Z.Z.z   > $ t.xXcXCXzXxXxXxXBXxXxXzX:X-Xo.' /.;X.X~.",
"_ k.[.J.].'.@X3X%X%X3X3XnXCXAXgXt.S h D * k d.f.f.5.4.2.q.B.wXB.r.2.4.4.3.4.W W Z O X $ Q 6XzXMXbXDXFXDXFXDXDXCXCXBXK.' 9XAXnX7X",
"_ O.[.J.W.'.&X%X%X3X6X6X3X7XjX4X| 7 D U & ^ ' p.D.D.p.{ { f.wXwXq.{ { g.f.`.M.E # o X $ l ~.6XCXbXDXFXCXDXCXbXCXbXnXP.` -XNXbX:X",
"..o.G.H.W.+X#X2X2X%X3X%X3XxXCX3XE 7 D 9 & 4 ` rXOXD./ g.g.^ p.3.j / / / ^ ^ g.3.3 #   & ; u.2XbXxXDXHXCXCXCXCXbXxXxX/.' }.jX5X-X",
"_ y.[.J.].^.#X8XzX3X3X%XzXnXCX].A < S o   4 { g.^ ~ ^ / 5.o.o * * 4.g.+.S S G 4.4 @   X $ } gXVXFXFXFXbXbXCXbXxX6X6XK.' _.jX7X1X",
"_ /.3X+X+X@X3XxX3X%X3X%XzX7XnX/.h Z Z . . 4 { 3.3.5.4.#.B.3.3.V.h q.f.g.7.q.f.r.^ g   = w E ZXSXAXVXCXxXDXbXxXzX6XxXE.' ].NX7X>X",
"_ J.gX&X%XzXmXzX3X3XnXzXzX3XNXL.Z 2 v   * ^ p.qXm.D.f.h.`.[ qXuXi g.d.h.h.s.j.N.{ T . . $ e }.7X4X9XxXxXbXCXCXCXNXBXE.' (.VXnX-X",
") c.$X'.].@X#X6X3X3X3X3XgX3X7Xy.z D f . < { a.iX0XrX0XaXp.4.sXuXe.V w.wXiXrXC.a.q.K . = ; : v.BX5XdXbX2XxXCXFXFXFXFX.X' Q.VXNX4X",
") /.<X'.H.+X&X%X3X2X<X3XnX3X}.| Z Z k   @ f.p.f.qXrXrXg.W wXsXsXZ.,.G q.7.q.3.7.N.C . + $ $ t.xX:X5X7X5XBXUXIXIXFXFX.X' Y.nXxX1X",
") k.&X'.H.&X&X+X%X#X#X%X#X<XT.| z A :   + d.iXf.p.p.p.2.e.wXeXrXZ.0.#.6.r.q.h.C.C.$.. & e e  .6X4X7XxX7XbXZXFXFXBXBXE.' Q.xXxX-X",
"q 8 0 H H H H H ( ) ] ) ] @. .E z S r X = m.eXaXwXF.d.9.e.r.s.e.$.#.1.,.M.h.h.A.A.*.# & j w I 6X:X,X2X,X8XBXAXFXbXbX^.' !.7X6X-X",
"( o X X O O O X o O o o o , I T Z T k # = s.eXyXtXZ.,.N.eXm.n.-.;.r.e.r.,.e.e.e.l.*.. @ h g M E.Y.L.Q.I._.).!.{.].Q.O.] o.Q.I.v.",
") 5 X 9 9 6 6 8 6 8 5 5 q 9 I E f F A 7 = 7.rXrXh.e.6.wXfXfXrXF.h.e.s.e.r.0.e.1.0.$.  & z g B ).9X2X7X4XdXjX4X4X*X=XL.] i.).].Y.",
"( O 9 v.|.[./.k.G.J.G.G.G.} T T h I T h # 3.rXB.qX9.s.0XF.g.f.j.5.#.5.#.;.w.9.0.0.T   + k h B _.dXdXAXVXVXZXVXjX4XbX).' ^.NX5X}.",
"( 5 Y hXkX|.].@X&X&X+X#X%XO.E T v I F k # E rXB.V.w.;.F q.0XwXn.m.n.;.i :.N.l.r.0.l   X k k V v.9X5XVXbXjXAXVXNX1XgX~.' ^.VX5X=X",
") 3 6 |. X|.|.@X3XzX&X%X&Xo.T n h I b k $ j d.m.B.N.w.q.d.rXwXeXd.q.;.;.n.C.e.0.,.$   X g k c b.4X4XVXbXdXVXVXNX5XjX;X..W.NX7X1X",
"( 5 H |.1X|.|.].%XmX%X%X'.k.Q ! x T b x e = 8.0Xm.V.C.eXf.h.F.F.h.j.j.e.l.l.0.,.R . O X f u c M.,X4XAXdXjXjXVXBXgX6X.X' ^.5X7X6X",
"( 5 0 1XkXhX#X#X%X3X%X'.'. .T c l T c p e . Z M.m.m.V.rXrXf.f.d.j.5.w.n.l.z.9.<.; . X X ; y s b.}.1XBX8XdXjXNXCXdX4X^.' /.5X5X8X",
"( o 9 1XgXgXgX<XgXmX#X'.#Xk.T ! l G a p g o   W 0XV.V.qXV.N.s.s.q.q.z.z.l.z.>.R . + = . ; y s b. X,XNX5XdXkXdXVXdX,X].' c.<X4X6X",
"( 5 9 R.|.gXhX#X#XgX#X'.#Xk.! c v V c a t -   X 3.m.qXqXwXpXqX0X0Xh.N.N.0.<.-.@ . + X X : a a 8.,X,XdXdX4XgXxX7XdX8X~.' O.>X4X<X",
"( o 9 [.gXkXgXhXgX3X'.#X[.k.T I v F b a t ;   X V 8.a.qXqXiXiXeXB.Z.Z.l.,.*.s . # @ + # e a a 8.}.4X9X6X5X4X4XxXdX8X^.' L.1X:X-X",
"] 5 8 [.gXhXhXgXgXgX<X%X'.k.M n v F B a u ; . . n W 4.7.a.m.qXh.s.s.e.;.*.m e + + + + # l d a >.}.,X9XdX-X4X7X,X9X1X~.' x.,X*X*X",
"~ 3 8 [.hX|.|.[.8XgXgX<X[. .! d v ! B s u l X   n 4.-.-.-.4.7.6.7.;.*.C m i $ & + + + $ v d d R T.,X,X X,X4X5X1X9X4X~.../.5X-X<X",
"( 5 H b.[.|.|.|.gX<X#X#X'. .K x v n V m y g # . * 4.q.8.>.W W R R C C C C u # & o # - $ x s d B 8.U.@X>X4X7X7XzXBXnX@X..c.gX9X-X",
"( O 8 k.[.|.[.[.|.#X'.#X]. .V A l x C m y u $ # # Q q.w.a.8.6.-.:.R R $.C g * < X @ ; ; x c a a P t.zXGXDXDXHXKXKXKXDX..O.gX4X-X",
"( o 9 R.|.|.[.].#X&X&X@X].Q T A h x K N y u g $ # b 7.w.a.b.a.w.q.6.;.=.C g * * + @ : e n c p a P Q x.!.DXKXKXKXKXKXGXX.O.6X2X;X",
"H 5 8 @.k.R.[.gXMXMXmX6X|.Q P n v l L P y u g 1 @ e ;.a.a.a.a.a.w.6.2.:.*.Z j # % $ : g v l y a x P =.R L.CXGXHXHXDXcXS.E.DXxXxX",
"q _ J.J.J..X@X%XvXlX%X%Xc.Q K n l v T L N y a f $ t R w.z.M.M.a.a.w.6.>.R A 1 @ * ; 1 h A x t a y K s L K W b.1XVX9X6XW.XXGXMXMX",
"( H.MXGXMX$X].k.6 5 Y  .I M L l l l K L C i y z : e T 7.M.M.M.b.a.w.7.6.-.V f 1 ; 1 1 g b k t p d K a x a g j Z  ._.9XE.XXMXMXMX",
"q S.vXvX2X^.Q.' 9 I l - g L c b l e T L P m y v f w s >.z.M.M.M.M.w.w.7.-.V g e 1 ; 1 g v x r y s ! l : < < 7 2 e Z o.L.XXlXlXXX",
"~ ..lXlXXXS.} ' 9 > + > $ T V b l ; ! R K C y x x t s R z.n.m.m.M.M.a.w.-.V p f < - ; f v k a r d c v # % % , > < Z j ` D.E.L.S.",
"q _ lXXXXXS.0 . X > + X - K d s e f b L R C d t x y N =.9.n.m.m.M.M.M.z.-.K r f 1 - : l v u a y P a I + , o , * , 7 2 1 A t.b.O.",
"q S.lXS.S.~ o , < - # X 1 B d K r h x R K B M t u u J =.z.V.V.V.m.qXm.M.=.s r f 1 - : g x r a a B y b $ o , & < , 9 j A g Z | +.",
"5 S.XX_ ~ O 3 > - @ # # 1 K M x g h g K V B M y t y N :.z.N.V.V.qXpXpXz.R d t f ; ; f r x y d a c d K l - > & @ 2 # v I < > ` } ",
"5 J.XX_ 3 O 4 < < $ # + g M m M r g g B c M M s r y N 1.z.N.N.V.wXpXpXw.$.m u v f e g r n u M c c M M x 1 7 9 2 e h 1 < 9 # 9 [ ",
"^ E.^.~ X X > 2 - @ + $ c P d m : r c F g u d m $ t m ,.n.B.Z.N.C.pXN.,.%.M a r g y y p s n n J m B c r < 7 < 2 2 * < 2 Z @ % Y ",
"~ E.D.3 o , 7 # : - * 1 s M N s e r c V n x y i $ t d <.n.B.V.V.C.C.N.<.%.P s a g B u a B V a P P y P p + 7 > , 7 * 2 2 2 Z + Y ",
"3 O.' O o & 9 + r - @ z d N B u t a M c n k y m $ $ m :.n.V.Z.wXwXZ.<.<.$.$.d d x M s c B K c C L M P ! 1 2 % X > < 2 2 < Z * > ",
"  0 6 o & , , % l - # j d N B u r d P s k h x d $ $ y =.n.0XV.qXwXN.<.&.%.L i N c N N k B L ! m L L m b f 2 2 , X % > , , 2 7 - ",
"3 X o o o , > > v 1 = f M N s a y N P M k g b y e # r L 0.B.V.wXsXj.&.&.$.C N N s M M c d L P B N L P K p 2 2 9 , + + , & 2 9 f ",
"] O 5 , X 7 > 2 z 2 X < M m u p M N d d y k K y t # $ C ,.n.V.wXsX0.&.&.C J $.m M s P N t B =.L M J L =.c f 2 % 7 9 X , X o 2 h ",
"] o 6 o o > > z 2 > X 2 K m i p P M s d i V b r e & $ m $.w.V.wXeX<.%.&.%.%.J N M c P N y a =.L K J C $.P z 9 < % 2 X , O X > Z ",
"( 3 &   , , < 2 + X O 2 B i s r J d K c K R i e w * $ m $.9.V.C.wX0.%.%.%.&.J J d x P N c u L J K J $.J L I * z , > 7 X o X X 2 "
};
