/* XPM */
static char *result[] = {
/* columns rows colors chars-per-pixel */
"64 64 201 2 ",
"   c #0A0702",
".  c #0C0903",
"X  c #130E07",
"o  c #161109",
"O  c #1A140B",
"+  c #1B1B0C",
"@  c #181C18",
"#  c #370403",
"$  c #3D0202",
"%  c #25180B",
"&  c #331E0D",
"*  c #261E11",
"=  c #1B260D",
"-  c #1D340E",
";  c #1A2218",
":  c #1E3D15",
">  c #3D230E",
",  c #3C2B0C",
"<  c #26291D",
"1  c #181F20",
"2  c #172725",
"3  c #0F2B3D",
"4  c #123230",
"5  c #143B37",
"6  c #15333F",
"7  c #243D39",
"8  c #4B0303",
"9  c #500303",
"0  c #7F1414",
"q  c #43260F",
"w  c #472B0E",
"e  c #4F2F0F",
"r  c #512C10",
"t  c #493516",
"y  c #4D3B1C",
"u  c #563917",
"i  c #64320F",
"p  c #663412",
"a  c #743A13",
"s  c #7B3D14",
"d  c #523C21",
"f  c #1E410F",
"g  c #1A471F",
"h  c #204A10",
"j  c #225A14",
"k  c #0C6B12",
"l  c #077612",
"z  c #097212",
"x  c #057B13",
"c  c #147A13",
"v  c #236913",
"b  c #257816",
"n  c #1B4920",
"m  c #1C5525",
"M  c #1E5A27",
"N  c #13433F",
"B  c #284335",
"V  c #1D6438",
"C  c #23672C",
"Z  c #287834",
"A  c #7C4A18",
"S  c #655612",
"D  c #675812",
"F  c #6B5B12",
"G  c #705F12",
"H  c #76661B",
"J  c #494A29",
"K  c #73542B",
"L  c #7A653A",
"P  c #677630",
"I  c #0F2E43",
"U  c #0F3147",
"Y  c #153541",
"T  c #173845",
"R  c #14384C",
"E  c #183D4B",
"W  c #143C54",
"Q  c #163E56",
"!  c #4D0E45",
"~  c #540E4B",
"^  c #550E4C",
"/  c #580F4F",
"(  c #5D1754",
")  c #48126F",
"_  c #491271",
"`  c #4F1279",
"'  c #51127D",
"]  c #0D4442",
"[  c #16464A",
"{  c #1C4453",
"}  c #15435E",
"|  c #18445C",
" . c #0F595A",
".. c #125554",
"X. c #115D5D",
"o. c #28494A",
"O. c #0F744F",
"+. c #0F7550",
"@. c #0F7B59",
"#. c #134261",
"$. c #105F60",
"%. c #106464",
"&. c #106768",
"*. c #106B6C",
"=. c #106F70",
"-. c #107273",
";. c #107778",
":. c #117C7E",
">. c #746642",
",. c #811515",
"<. c #8B1515",
"1. c #931515",
"2. c #9A1515",
"3. c #A31616",
"4. c #AD1717",
"5. c #B61818",
"6. c #C80808",
"7. c #DD0808",
"8. c #E70909",
"9. c #834114",
"0. c #8C4515",
"q. c #814A15",
"w. c #8A4F15",
"e. c #934715",
"r. c #9B4B16",
"t. c #8E5015",
"y. c #935315",
"u. c #9A5715",
"i. c #A34E16",
"p. c #AA5117",
"a. c #A35C16",
"s. c #B25618",
"d. c #AE6217",
"f. c #B66618",
"g. c #826536",
"h. c #856A3A",
"j. c #8B6D3C",
"k. c #8D723D",
"l. c #91723E",
"z. c #8E7645",
"x. c #947542",
"c. c #9A7644",
"v. c #9C7B46",
"b. c #9D7D4A",
"n. c #A37E46",
"m. c #A27E4A",
"M. c #028014",
"N. c #268716",
"B. c #289417",
"V. c #299D19",
"C. c #2AA419",
"Z. c #2BAC19",
"A. c #2BB219",
"S. c #2DBB1A",
"D. c #019620",
"F. c #338D29",
"G. c #66812B",
"H. c #69852C",
"J. c #749631",
"K. c #769932",
"L. c #7A9E34",
"P. c #7DA235",
"I. c #2EC41A",
"U. c #2FCC1A",
"Y. c #30CA1C",
"T. c #0F835A",
"R. c #0E8664",
"E. c #0E8C70",
"W. c #0E9977",
"Q. c #109774",
"!. c #0EA47F",
"~. c #79B96F",
"^. c #84A838",
"/. c #91B63D",
"(. c #9F814C",
"). c #A5824D",
"_. c #A9854E",
"`. c #AE884F",
"'. c #A68450",
"]. c #A98650",
"[. c #AD8A52",
"{. c #B08C54",
"}. c #B18E58",
"|. c #8CBD7A",
" X c #B2A879",
".X c #551284",
"XX c #5B138C",
"oX c #5D1491",
"OX c #64149B",
"+X c #6715A2",
"@X c #98578F",
"#X c #A6609D",
"$X c #A966A1",
"%X c #118485",
"&X c #13A781",
"*X c #98BF81",
"=X c #B9AF84",
"-X c #C4BC96",
";X c #B6C494",
":X c #C2C69C",
">X c #CAC5A0",
/* pixels */
"'.'.'.[.[.].[.[.[.].[.{.}.}.].[.[.[.[.{.{.}.}.}.}.}.}.'.{.{.}.{.[.}.}.}.}.}.}.}.}.[.}.}.[.[.[.[.}.[.}.[.[.[.[.[.[.].].].].].].].",
"'.'.'._.'.'.'.'.].m.].].'.'.].].[.'.].].m.m.'.m.'.}.'.}.{.}.{.}.'.}.].}.}.].}.}.[.[.[.[.[.[.[.[.[.[.[.}.[.].[.[.[.].].[.].].].].",
"'.)._.'.].].'.].].'.'.].'.'.'.].'.).'.].'.m.'.'.'.[.}.[.].[.].}.}.].'.{.[.}.].[.[.].].).].].].].[.].].].].].].'.'.].].).'.'.'.'.",
"'.'.).).m.'.'.m.'.m.m.].].].{.].[.'.'.].m.b.b.m.'.[.'.'.].[.].}.}.}.'.{.[.}.}.'.).v.b.).'.'.].'.'.(.'.'.'._.).).'.(.).(.).(.).).",
"'.).'.'.O O O O O O O O O O O O O O + O O O O O @ o O O O O O @ O O O O O o O o o O o O O O O O O O O O O O O O O O O O ).(.).b.",
"'.'.'.'.O O O O O O O O O O O O O O O O O O O O O O O O % @ O O O O O O O O O O O O O O O o O O O O O O O O O O O O O O ).).].).",
"'.m.'.'.O O O O O o O O O O O O O O O O O O O O O @ O O O O O O O O O O O @ O O O O O O O O O O O O O O O o O O O O O o m.b.).).",
"'.m.m.m.,.,.,.,.0 O O O O O O O O O O O O O O O O O O o O O O O O O O O O O O O O O O O o O O O O O O ! ! ! ! ! o O O O '.b.).).",
"'.].'.[.0 ,.,.0 0 O O O O @ O O O O O O O o o o o o o o O o O O O O O O o O O O O o O o O O O O O + O ~ ~ ! ~ ~ O O O O '.].'.'.",
"'.m.'.'.<.,.0 ,.0 O O O O O O O O O O O O O O o O O O O O O O O O O O @ O O O O o O O O O O O O O O O ( ( ( ( ( H.L.L.L.'.'.'.'.",
"m.m.m.'.5.5.5.4.4.O O O O O O O O O O O O o o O O o O O o O O O o O o o O O o O o O O o O O O O O O O @X@X@X#X@XH.P.P.L.).).'.).",
"c.c.l.x.2.2.3.3.3.o o o o o o o o o o o o o o o o o o o o X o o o o O o o o o o O o O O O O O O O O O $X$X$X$X$XH.P.^.P.v.c.c.c.",
"y q , w ,.,.,.,.,.  . . . . X . . . . .   .     .               .                       . . .         #X$X#X@X@XH.P./.P.t y y u ",
"j.h.L h.<.1.2.,.0 o o X o o o o o o o o o o o o o o o o o o o o O + o o o o O O O O O O O O O O O O O ^ ^ / ! ^ H.P.^.L.h.h.k.k.",
"v.(.).(.,.<.5.,.0 O.O.O.W.Q.O.O.O.+.O.@.@.@.+.O.O.O.@.&XE.@.+.+ v V.v - = O O O O % O O O O O O O O O ^ ^ ^ ^ ^ H.L.P.K.(.(.).).",
")._.)._.3.<.2.<.,.O.O.+.&XE.O.O.@.@.@.@.@.+.+.@.O.O.@.&XW.+.+.= V.V.C.I.N.- = + O O O O O O O O O O O / / ^ ^ ! G.L.P.P.].].].[.",
").].].).0 0 1.1.0 O.O.+.!.E.O.E.Q.T.@.T.R.!.E.R.T.@.@.&XE.+.+.j V.B.A.U.Z.V.N.h - + O O O O o O O O O / ^ ~ ^ ^ G.L.K.L.'.'.'.[.",
").].].).0 <.3.2.<.O.O.+.!.E.O.@.@.O.O.R.O.T.R.T.W.T.T.!.E.+.+.b B.C.I.S.C.A.A.Z.N.j : = O O O O O O O / ^ ~ ^ ^ G.L.^.L.'.[.[.'.",
"].).'.).,.,.1.1.2.O.O.O.W.R.O.@.O.@.+.O.+.+.O.+.O.O.-.&XT.+.+.- f b A.Z.V.A.S.Z.Z.C.B.v h = + O O O O ^ ~ ! ~ ~ G.L.L.L.].).).].",
").].).].,.<.5.1.<.D F G H G G G G G G G G G G G H =X-X XH F D O O = f j b B.Z.A.A.A.A.Z.V.N.j : = O O / ~ ! ~ / H.L.L.L.).'.).].",
").'.'.).0 2.5.3.,.S S G F F S S F F F G G G G G G -X-X=XH F S O O O O + = h b B.A.A.I.S.A.Z.V.Z.b h = / ~ ! ^ / H.K.P.K.).).).).",
"'.'.).).,.<.3.1.,.D S G G D F S S S S D F F G G F =X>X=XH F S O O O o O O O = : v B.Z.A.Z.C.A.I.A.B.b ^ ~ ! ~ ~ H.K.P.P.].].].].",
").].'.m.,.3.1.0 0 S S G G G G F F G F F F G G G G  X>X=XH F S O O O O O + O O O = - h b V.C.I.Y.A.F.j ^ ! ! ! / G.K.P.K.).v.b.).",
"].m.).m.,.<.<.,.<.S S G H G G G G G G G G G G G G =X>X=XH F S O O O + O O O O O O o o = : b Y.I.C.F.; / ~ ~ ~ ~ G.P.L.L.).).).).",
"].m.].m.1.<.<.1.<.q.q.y.f.u.q.w.w.a.A A q.q.q.q.q.q.u.f.y.q.A @ 2 2 2 1 1 1 1 1 + @ 1 @ 1 2 : b B.C 2 ^ ~ ~ / / G.K.L.L.)._.)._.",
"m.].].m.5.5.5.5.5.q.q.q.d.a.q.y.w.w.q.t.A w.u.w.a.w.t.f.a.q.K 3 W E E W W Q W Q #.#.W R W Q 7 B o.W R / ~ ^ / / G.P.L.L.)._.).).",
"m.m.n.v.1.3.2.4.3.q.q.q.d.a.q.a.f.u.y.a.u.f.f.a.y.w.w.f.u.A K W #.| #.#.#.#.#.#.#.#.| #.#.| o.J o.{ W ^ ^ ^ ^ ^ G.L.L.P.).l.v.v.",
"n.v.v.c.,.,.,.,.,.q.A q.d.a.q.q.q.t.u.u.u.y.a.y.q.w.y.f.u.A A } #.| #.#.#.#.#.#.Q #.#.} #.#.o.o.{ } R ~ ~ ! ! ! G.L.L.L.(.v.v.v.",
"t w e , ,.0 ,.,.,.q.q.q.d.a.9.q.A q.q.y.u.w.q.q.q.q.w.f.a.w.q.I I 3 3 3 I I 3 I U R U U I I I I I I 3 ! ! ! ~ ! G.P.L.L.w w , , ",
"k.k.j.h.h.h.g.g.j.k.j.j.j.l.j.l.l.l.l.l.l.l.l.l.l.x.c.c.c.l.c.>.>.L L L >.L L L g.g.L >.L >.L L >.L L L g.g.K L L K L g.g.L L j.",
").).).n.).).n.n.).).n._._.`.`.`.{.`.`.`.`.`.{.{.{.`.`.{.[.`.`.`.`.{.`.m.)._.).`.`.`.`.`.'.'.{.{.`.`.)._.`.`.`.n.n.n.v.).l.n.(.).",
").).).)._.v.).n.m.).)._.m.`._.`.`.`.`.`.`.`.`.`.`.{.{.`.`.`.`.[.`.`.`._.m.m.).)._.m.`.).m.m.v.c.m.n.).).`._._._._.n.)._.`.)._._.",
").'.'._._.).).).).).).).).).).).m.n.n.n.m.m.m.m.m.n.m.m.m.m.m.m._.).m.m.c.m.n.n.n.n.v.m.c.m.m.n.c.n.c.c.m.c.m.m.m.m.[.].].].m.{.",
"'.'._._.).).).).).).n.).).).)._.m.{.m.n.m.`.`.m.n.`.n.m.m.`.`._.`.`.].m.).).n.v.m.m.m.m.m.m.m.m.m.m.m.m.m.c.c.m.m.m.m.].].[.].].",
"_.'.'.'.)._._.).)._.)._._._._._.{.m.m.{.{.m.`.[.`.{.`.m.`.`.[.[.`.]._.].`._.[.[.`.[.).[.[.[.].].[.].m.].m.].].m.m.[.m.].'.[.].].",
").].'.)._.).).)._._._._.).).).).{.m.m.{.n.m.m.m.m.`.`.{.{.`.[.m.m._.`.`._.m.[.].`.].`.{.{.[.`.{.[.{.m.h.L g.n.m.m.m.].[.'.].].].",
"].).].m.O O O O O O O O O O O o % O O O O o O O % O O O O O O O O O % @ O O O % O O O O O O O + O O o X . X o o O O O O m.m.m.m.",
"'.].].].O O O O O o O O O O O O O O O O O O O O O O X O O O O O O O o O O O O O O O O O O G.J.K.J.^.o X X X o o O O O O [.'.'.'.",
"m.[.].m.O O O O O O O O O O O O o O O O O o O O O O O O O O O O O O O O O O O O O O O + O H.K.P.^.K.o o O O O O O O O O '.'.'.[.",
"[.m.].].k k k k k O o O O O O O O O O o O O O O O O O O O O O O O O O O O O O O _ _ _ _ _ H.K.P.^.J.Y Y Y I Y O O O O O ).m.).).",
"m.m.m.[.z z z z l O O O O O O O O O O O O O O O O O O O O O O O O O % o O O O O _ ) ) ) ) H.K.^.^.P.Y Y Y 6 6 # # # # $ m._.).'.",
"m.{.[.m.D.D.D.D.D.O O O O O O O O O O o O O O O % % O O O O O % [ 2 O O m m M n .X) _ ) ) G.L././.^.T Y 6 6 6 $ # 8 $ # '.).).).",
"m.m.{.m.~.*X*X;X|.O O O O O O O % O O O O O O & r r % O O O O 6 $.$.4 O m M m n OXOXOXOXOXG.K.P.^.L.{ { E { { 8 8 9 9 8 ).].)._.",
"m.[.m.m.;X:X:X:X;XO O o O O O O o O O O O O & i s s w % O O 5 *.$.$.$.5 m C M n XXXXXXXXXXG.J.P.P.L.E E E E E 6.6.6.7.6.v.c.b.b.",
"v.(.).).;X:X*X~.*XO O O o % O O % O O O O & a e.9.s a q O @ :.:.&.$.$.$.V Z C n ) ) _ ) ) G.J.K.L.L.Y Y Y 6 6 7.8.8.8.7.v.b.).).",
"t w t t x M.M.x M..     .               % i i.p.e.9.9.r % ..=.:.:.*.$.4 M C m n ` ` XX) ) P J.K.L.L.Y T [ 6 6 7.8.6.6.6.y t t y ",
"v.).b.c.M.M.M.M.x O O O O O O O o O o & i 9.r.p.p.0.s w B %.$.=.:.:...O M M m n ` ` +X` ) G.J.P.P.L.Y Y { 6 6 $ $ $ $ $ ).l.v.).",
").).).'.M.M.M.M.x O o O O O O O O O q a 0.0.0.r.p.e.r 7 %.=.=.$.*.=.O O m m n n XX` .X` ) G.J.P.L.L.E T E Y 6 $ # 8 $ $ ).n.).).",
").).'._.M.M.l M.M.O O O O O O O O > a e.r.r.0.0.0.i < =.&.E.;.$.X.; O O m m m g ) ) .X.X) G.J.P.L.L.Y Y T E 6 $ $ $ $ 8 ).).).).",
").].).].M.M.z x M.O O O O O O % q p 9.0.r.r.9.a q %  .X.&.-.%.$.2 O O O m m m n ) ` XX.X` G.J.K.L.L.6 T E T Y $ $ $ $ $ ).).).).",
").'.'._.M.x k x M.O O O O O % q p 9.e.e.e.0.a q + [ X.*.-.*.X.N + O O O m m m n ) ) .X.X.XH.J.P.L.L.Y Y E T T 8 $ $ $ $ )._._.[.",
"'.'.).'.M.l k x M.O O O O O > a 0.e.r.r.0.a > o N $.%.*.-.*.[ O O O O O m m m n _ ` OX.X_ G.J.P.L.L.Y Y { T Y $ $ $ $ $ ).(.(.(.",
"'.).m.m.M.l k M.x O O O % q a e.i.p.r.e.s , + 2 X.=.%X;.=.&.+ O O O O O m m m n ) .X+XXX) G.K.K.L.L.Y E { E 6 $ $ # $ $ v.b.b.m.",
"'.'.m.m.M.l k l M.O o % q a e.r.p.i.e.s w o @ $.&.;.%X*.&.2 O O O O O O m m m n _ ` XX.X) G.J.P.L.L.Y T E T 6 $ $ # $ # ).).).).",
").).m.m.M.k k l M.O * u 9.0.e.r.r.0.a > O O  .%.;.-.-.%.5 O % O O O O O m m m n ) XX.X) ) P K.P.L.L.6 E T Y 6 # $ # $ 8 v.n.).).",
"'.).].).M.z l x M.% p r.i.0.0.0.9.p & O o X.*.%.&.X.X.] O O o O O O O O m m m n _ ` ` ` ) G.J.K.P.L.6 Y Y Y Y 8 $ # $ $ (.).v.).",
"].).b.(.M.x z x c r 9.i.s.i.0.s p > O O 5 :.%X*.&.$...O O O O + O O O O m M m g .X' ` .X` G.J.L.L.L.T T Y T Y $ $ $ $ $ ).).m.).",
"(.'.).(.M.x x M.c p 9.e.p.s.r.i * o o 2 $.=.%X%X;.$.; O o O O + O O O O m m m g OXOX+X+XOXG.J.L.L.P.{ { { { { # $ $ $ # m.).(.).",
"x.j.j.j.M.M.M.M.l q a 9.r.i.a & o o + [ $.$.*.%X%X4 o o X o o o O o o o M m M g .XXXXXoXoXG.K.L.L.^.T E E { [ 8 $ # 8 8 x.x.k.x.",
"J y y y l z k k k X > a 9.i % . . . . . 5 $. .*.] . . . . . . . .   . . m m m g _ ) _ ) _ G.J.L.L.K.6 Y Y 6 6 $ 8 # # $ y d y y ",
"k.l.l.j.k z z z k O % w r & O O o O O o O 4 X...o + O O o + o o o O O O m m m n ) _ _ ) ) G.K.P.L.L.Y Y 6 Y 6 # # # # # j.l.x.x.",
"m.).m.b.v.v.b.b.(.v.).).n.m.m.)._._.)._._.].z.(._.).).).].).)._._._.(.(.).).).b.(.(.(.).(.(.(.).m.b.b.m.(.(._.(.m.b.b.v.b.b.b.).",
").'.).).).(.).)._._.)._._.[.`.[._.[.[.[.`.[.[.`.[.`.[.[.`.[.{.(.).(.(.[.[.[.[.[.[.[.`.[.[.[.[.`.[.[.{.[.[.`.b.(.m.b.v.(.v.v.c.b.",
"'.).).).(.v.(.(.b.v.(.(.(.).(.).(.(.(.(.(.(.(.(.(.(.(.(.(.(.(.'.`.`.[._.[.].].[._.[.[.].[._.].].[.[.'.[.[.).).).].).'.(.(.(.).)."
};
