/* XPM */
static char *result[] = {
/* columns rows colors chars-per-pixel */
"64 64 73 1 ",
"  c #16A2E5",
". c #1EA0E8",
"X c #22A5E7",
"o c #2EA4E7",
"O c #24A2E8",
"+ c #2EA4E8",
"@ c #3EA5E8",
"# c #32AAEA",
"$ c #3DACEA",
"% c #35B2EC",
"& c #3BB0EB",
"* c #4DA7E9",
"= c #43ACEA",
"- c #4BADEA",
"; c #53AEEA",
": c #59AFEA",
"> c #45B2EC",
", c #4CB3EC",
"< c #45B8ED",
"1 c #4EBAEE",
"2 c #54B3EC",
"3 c #5BB4EC",
"4 c #55BAEE",
"5 c #5CBBED",
"6 c #5CBEF0",
"7 c #63B6EC",
"8 c #69B6EC",
"9 c #64BBED",
"0 c #6BBDEE",
"q c #72BEEE",
"w c #65BEF0",
"e c #6CBFF0",
"r c #72BFF0",
"t c #5DC1EF",
"y c #5CC0F0",
"u c #64C1EF",
"i c #6CC1EF",
"p c #73C2EF",
"a c #7AC4EF",
"s c #7DC9EF",
"d c #65C2F0",
"f c #6DC3F0",
"g c #6BC8F2",
"h c #74C4F0",
"j c #7BC5F1",
"k c #75C8F1",
"l c #7CCAF1",
"z c #82C7EF",
"x c #8ECBEF",
"c c #82C6F1",
"v c #89C7F0",
"b c #83CCF2",
"n c #8BCDF2",
"m c #92CEF2",
"M c #85D0F4",
"N c #8CD1F4",
"B c #94D3F4",
"V c #9BD5F4",
"C c #97D8F5",
"Z c #9DD8F5",
"A c #A2D6F4",
"S c #ABD7F4",
"D c #A4D9F5",
"F c #ABDBF6",
"G c #B2DEF6",
"H c #B9DFF7",
"J c #B2DFF8",
"K c #B4E0F7",
"L c #BAE0F7",
"P c #B1E0F8",
"I c #BCE2F8",
"U c #C1E4F8",
"Y c #C8E7FA",
/* pixels */
"77uisnh445upNNbszVVxbs933-9873:7q3ipxBBmmmcrerxSASAABh6fjnlii998",
"090bCBp9t5uilbspsxbs0;:77pp07737089abmVBmmmmrvAAmAABMhhhjns00859",
"00pjbpp51,2usakap92;;:7970saq8898888qzxxvnVJHHGSAZVNMbMlkjp09390",
"q079p9piiuflbhiiu7379999ssaasqq890qqzxmVmvvAFGAAVAZVMMkhww0i0i99",
"9:-9p9iabMbbkiu49pzp9ppsszzssapaqqa88psvvVBnVVnBZBNNCMldgssbii0p",
":237009pkhkkpa9pbxbi0pbbxVBxzsaaaq022qrvVVmBmVmnnlkMMlllssza8235",
";3--23259ppp5bxlssmbpasbxBBxvsaaq82--:8jmSSAmvbkMMMlMCMlgps933;3",
"-*-33234tipnZZnp5uBbbMbbzxxCmmbpi752337qcADVABnbNNMMBCMbp533;--3",
"3-;7p0935ibmVAVjkpbabNzxvmVVBnje9552237wecNAAAVCZZCNNNMhu7;23;:8",
"80879qp9ilbCZAAmbBasbBBBVVVBnbhhut5223e88whnAJSJPPDNNMlkpip09i0i",
"sba78pqslbnCAAAmbpsnxBCmmbjhhlljgd6145q0ewejVASFPPDCMMMsbMbpabzz",
"mms:8aszljbNNbbj52kbbbbajrwwrlNblfw68eqkefklVDSFFZCMMCNMmxbnmVCC",
"DVx9p833ipkspp95>,5pkhfw66fjbNNnMbgfkcjreehjbVFFZMlksnBNCNxCSKDD",
"Bbap8-7iukbns03,35555d4deejbNnMMBNlljjpe336wjmVZBlgguussaksCFDCC",
"B9093ibzaBZBa00320i54tdfhjlNMblMnMblkhe9514whlMnNspt5uksMMBCxCCZ",
"Z8p98bbVZPKSxzzpsi9dtdgnlff6hhenBBBNnkhf546wjlblsskhkutibbxCMCCA",
"s90aZBnBVVxSxvvcjjfhkllMNeddwhcMDDDVVNlju4tglMMgsNNNk04whbBCCZDB",
"ipazxxSAAAmmvxmvcjklkMCClf46lnBBDKKDZmbji9glMltglMNbj955kBCCCCZN",
"pppzmAAZmav8:80qabNNMBMlnlMVBBBVDSABbbapsklMlMkguglblkfdkNCZDNMb",
"bp0pzmVmxvq;*:qjbbBVNkbCVVCAADDDDDCbjhjlsbkNCNkt<1uMlklhkBCZCklk",
"sp-7qzxshqcq:,8bNCDNnDJFJFFJJFSDZCMkfrjbzsNBBNkgtiplifkfgMNNNlkl",
"sp459qpq88qjr;5jCDFFPDDDJHIUUHHJZNlghkjbxNNBMbllbNMafflkkMlkkbbM",
"b9298qp083:rj8eMAJJFDDDJJHUYYUHJZBMkhplapkliukMMNNBxNNBNMkkfgklb",
"a45990p8338rjlcMCAFDDDDDFJIIUHJFDCMff5,49u4tkkhbMNCNNNMblkgdifab",
"i4553233:::qrrejbCZZBVVASSJSFADVZCNlh6637kff9ffjnMBBVBNlkfdyyipb",
"iu0072:-;:7qerhjbnBNNnBVAVABBMlMCCNblhfejldfhfehlnBCDAnbkdyyt6hN",
"hlape87:;7q87rhjlBBBMMBVBBBnkdlNZDZBnjfhbnbj959klNBVZDZBlkdytuhs",
"bnzsr8888773wrrjBBVZVAAVBnjjhhlMZDCCMllbBBnMlhfkknMBDDDZNlffthpl",
"zNznxjrqe:;;wrjnvBVAAAZBMrfefklMCZBNNBMnblcjjjhklblMVASFZNnkklpp",
"asccvrr8;;;3rjcvnmDAANBBjh6djljkllMNZCNblbh599ifkjknBZSJFVMlkMkj",
"qjjza88::33ejcnnnVAZBNMchfgfflhf6fMCCCBNMl9d59w9wfjbBZDDDZCnbbbM",
"rjrjq7:::7ejcnnmmvVABMhfhkjkfhgwwhlBDFDZBdffuu545fjbmVVVADDVCNmZ",
"mmvr7*;:37weljcbbBBBnh66gbbhffwhklMNBDDZMdllgdut49pnBBMCDFGZZVAA",
"AAnjr:::;43errrnvNBBkfdfhblf6fklMnCBAFABbNllllky54pbBBnBDFGDZVDS",
"Acehr8e735;3wrjbmBBNMfdhhhfwdfjCBAFZFJFZCNCMlMlk15fcmnkNDKKFSSAS",
"q327rrr8738whjjcvBCMnkklnlkdblMCADSDJJDZCCCNMlMg,50aNNnCDKKGDxsx",
"2-=,2;87ehehhrrjNZZMlllnbchfMMCCVVACDDZNMNNNNNlh99aBCDDDZGKGB945",
"-=-3-*=wrjlreehjmnBBNnbblwdfknCVVBVBVVCMbbllllMbllnmZDDDZASx9--:",
"2-,22,,,7eeew8whjBZVMbjbkhhhkklnvmNNBBBNNMlkfkbnbbsbmADDCxxi3,,2",
"5358e3:;26w3633djNDDBjhklbnkkfhjMcbMNMbNNNMkkkbjpphbBAFDBxsiu399",
"--;;i8:5w6,#-5w4gMZBbkMbnnbjhdhlBBBMbbbbjbblblkrpipbVDFSCmMsu535",
"-oo25909,##O=-3jbNMMjBBBBBMhhfjNAZBlkbjjjklbjkfhpkaNAAGFVBBspu4i",
"i;9pi5=o..#$,whhlnnnljMBCBnnbMbVFDBbjpre0hphw8fjbBCAVAAVZmNMkuiz",
"a0i3=-0,,4w8jlrcbNMMMkhllBBCNNBZDZMlf0335999wwhnDFFFSBmnxMMzuusb",
"e3=2svjjjjbVncbbnbMkh66w3fBCblNVABMhw32;-235ejBVFKKFABbcjjjkpkkp",
"e*:jvjc8qcvbnnbbNNMNblbe,46fjBBBBmhhf3;---35qbnVDFFACnjarhewiiii",
"278hcvcrqjccccbpklllbnNk444fnnnlcnjwe532=-38jjnVZAZCjhf0i7,425ik",
"7qccmbrrqrjrjhiidhgbMnNn515flllplcewr83;;28ejcnVAACbhw140f-4wu97",
":qrva0pip0950iiidhlDCBBBj99flphkhjcbj8,2;errhbnVFDZnkbhfhhljw867",
";:8qa9npi552580udgkbblNnBffhNlfi0qcbh72;7hjjhbnBBCCNMblfjwreww52",
"378qaxbsi54423544dkNNbcnBjbbli25h0rjce:eejhejcbnbMNBMnkljjww8;-3",
";3880bbzht4553,%1dklnbbjbnnnhf99jjrjchhjjnnhbnbjasbBNhhnb64-,;=;",
":-327uuiiuu5&5t&1ggflaiahjkh00rrnnnjcnchhlklbnchiiklnbbNe4&$432;",
"====4445uuf$ 5gfgdykbjakh75458jcmvVmcnjffnlbjjhwtugfffbbNb4432--",
"@$@-===>445t1flblkfhblsid51,29pjnnVmbbbnbnbhjrf3454hd6dNCVld4,,-",
"$$25941141>uktdllllbnbsg6=#>2wjjrcvvjlbMBnlhrww7dlkkhkknnbkw4>-4",
"-39iu&4t444tugplxCBBCmsu411t0qqprq7;2wjbbNhwwwwwwwhkMMMlhjhew66e",
"jpa4#%tuigguuhkNBBAAAmNsiiiipq0078333wfhcjhwhr365wkflBkkbbNkkgdh",
"jjb3.gpakgiugkMNVAASVxbsssbsp03:3wbchjjeew542w2;3w5whlllNBNbdehk",
"bcpisMBnNbhkkslNCADABzasBVxsi832258hcmmce64>,=wew8flNblNbnbehkhl",
"hk0hkjzbsskasbMnBBVxsizxVVs70qq23558bmAnh6>>4372,whbBBklkkjjjjjc",
"08980lbaiiikBCBBVxxsszxVxp57aa03345pcVVveww;;w2=7bmVCNk,1halBjrj",
"9358ipspu19aCVBBxxxxAxxsi3;9099245ijmmmmcje2ww3,jmVVNkfklbpubhwe",
"357i0ui51,1ivmCbVVCVAVa97:38732=55hbmmnmmcew723jbmVmNbbnNblwqw77"
};
