/* XPM */
static char *result[] = {
/* columns rows colors chars-per-pixel */
"64 64 245 2 ",
"   c #010101",
".  c #0A0503",
"X  c #0D0904",
"o  c #0D0C0B",
"O  c #070809",
"+  c #130B05",
"@  c #1A0C03",
"#  c #130D0B",
"$  c #180605",
"%  c #1D1104",
"&  c #15110D",
"*  c #1B120E",
"=  c #0E0C11",
"-  c #1D1511",
";  c #1B1818",
":  c #120E10",
">  c #280D04",
",  c #231304",
"<  c #2C1A0B",
"1  c #271709",
"2  c #341B0C",
"3  c #361A08",
"4  c #211712",
"5  c #241A14",
"6  c #2A1C16",
"7  c #261D19",
"8  c #2B1E19",
"9  c #28161C",
"0  c #2E1613",
"q  c #3C230B",
"w  c #372206",
"e  c #2D221B",
"r  c #282119",
"t  c #3B2512",
"y  c #32241D",
"u  c #39261D",
"i  c #3B2A1E",
"p  c #362414",
"a  c #181D23",
"s  c #3C1B20",
"d  c #1D232A",
"f  c #2D2B2D",
"g  c #292828",
"h  c #332720",
"j  c #392720",
"k  c #352921",
"l  c #3C2A23",
"z  c #332D2D",
"x  c #3C2D2B",
"c  c #3A3225",
"v  c #262E3A",
"b  c #2B3238",
"n  c #353132",
"m  c #373739",
"M  c #451D09",
"N  c #45280C",
"B  c #522A0E",
"V  c #4C310E",
"C  c #442A13",
"Z  c #492817",
"A  c #532B15",
"S  c #572D17",
"D  c #49331A",
"F  c #533213",
"G  c #5A3617",
"H  c #58380F",
"J  c #62371A",
"K  c #723D0F",
"L  c #422C24",
"P  c #4E2E22",
"I  c #462726",
"U  c #532C21",
"Y  c #592E22",
"T  c #443226",
"R  c #493225",
"E  c #45332C",
"W  c #4B352B",
"Q  c #4C3A2E",
"!  c #4B3B27",
"~  c #51362C",
"^  c #533A2E",
"/  c #5A3826",
"(  c #4B3730",
")  c #4E3B31",
"_  c #453A36",
"`  c #533C32",
"'  c #5A3E33",
"]  c #533C39",
"[  c #653B26",
"{  c #783E23",
"}  c #511F26",
"|  c #5A4019",
" . c #76441A",
".. c #6C4814",
"X. c #57412A",
"o. c #4F4838",
"O. c #4A4139",
"+. c #554135",
"@. c #5D4235",
"#. c #564338",
"$. c #5C4539",
"%. c #5D493B",
"&. c #564C38",
"*. c #534932",
"=. c #6A4726",
"-. c #764A2A",
";. c #6A522B",
":. c #7B592C",
">. c #624436",
",. c #6A4636",
"<. c #644B33",
"1. c #634639",
"2. c #694639",
"3. c #654A3C",
"4. c #6B4B3C",
"5. c #6A4C33",
"6. c #714D3D",
"7. c #7A4A35",
"8. c #6C513E",
"9. c #665236",
"0. c #72523E",
"q. c #7B523D",
"w. c #775837",
"e. c #77623B",
"r. c #3A3C42",
"t. c #403C41",
"y. c #3B484F",
"u. c #494446",
"i. c #584944",
"p. c #585247",
"a. c #575457",
"s. c #4E4C53",
"d. c #654D40",
"f. c #6B4E40",
"g. c #744D41",
"h. c #6D5241",
"j. c #6C544D",
"k. c #665749",
"l. c #725542",
"z. c #755B44",
"x. c #7A5C45",
"c. c #745D49",
"v. c #795848",
"b. c #685953",
"n. c #7A5D52",
"m. c #7F6046",
"M. c #776049",
"N. c #7B644C",
"B. c #7B654A",
"V. c #7B6454",
"C. c #7C6951",
"Z. c #766458",
"A. c #6F685C",
"S. c #5C5B63",
"D. c #796264",
"F. c #766C67",
"G. c #85541D",
"H. c #864B28",
"J. c #85582A",
"K. c #845839",
"L. c #8F5633",
"P. c #89642A",
"I. c #89653C",
"U. c #92693A",
"Y. c #916128",
"T. c #A16C3B",
"R. c #885B45",
"E. c #955D49",
"W. c #81654B",
"Q. c #8A6E4C",
"!. c #886848",
"~. c #966747",
"^. c #89724B",
"/. c #977548",
"(. c #836B53",
"). c #896A57",
"_. c #936C54",
"`. c #976D59",
"'. c #897559",
"]. c #957454",
"[. c #977959",
"{. c #A46D46",
"}. c #A87649",
"|. c #A47957",
" X c #B27453",
".X c #896D62",
"XX c #806F61",
"oX c #877567",
"OX c #907E63",
"+X c #997A67",
"@X c #8A7D76",
"#X c #957B76",
"$X c #916D63",
"%X c #A97967",
"&X c #AF7F73",
"*X c #9A825A",
"=X c #A58457",
"-X c #B48C51",
";X c #8D8269",
":X c #9C836C",
">X c #998669",
",X c #9C8672",
"<X c #988678",
"1X c #AF8169",
"2X c #A68B68",
"3X c #B3886B",
"4X c #AA946A",
"5X c #B69768",
"6X c #A78B77",
"7X c #A89577",
"8X c #B79877",
"9X c #B28E7C",
"0X c #B5A178",
"qX c #BDA168",
"wX c #C1996C",
"eX c #C8A87C",
"rX c #978C86",
"tX c #9D988F",
"yX c #A78D84",
"uX c #A89789",
"iX c #B39A85",
"pX c #AB9D93",
"aX c #B3958A",
"sX c #ADA28A",
"dX c #BBAB84",
"fX c #B8A688",
"gX c #ADA399",
"hX c #BAAB9D",
"jX c #B7A795",
"kX c #BEB19A",
"lX c #BEB381",
"zX c #B8AEA5",
"xX c #BBB4AD",
"cX c #C3AB88",
"vX c #C4AC97",
"bX c #C5B49D",
"nX c #CBB488",
"mX c #C8B7A8",
"MX c #CABDB6",
"NX c #C6B1A9",
"BX c #CDC3AA",
"VX c #CBC1B9",
"CX c #D2C5BB",
"ZX c #D4CCC6",
"AX c #CDCAC6",
/* pixels */
"$.+.` +.@.+.$.>.3.2.4.2.4.+.#.` ` #.#.+.+.+.#.#.+.+.` +.` ] +.$.+.+.+.+.+.` +.+.+.@.#.$.' @.@.1.4.2.g.g.g.g.2.g.' R.1.$.1.1.$.L ",
"$.' ^ ` ' ,.>.>.4.l.0.8.2.1.2.1.4.4.f.l.l.l.l.h.0.0.4.3.1.3.0.l.8.8.4.4.4.4.6.4.,.4.4.,.2.2.,.3.,.2.4.2.2.' ' ' ' g.2.1.' 1.f.h ",
"1.' ~ E W $.3.f.f.f.h.h.l.l.8.$.1.1.d.d.$.h.M.N.C.B.M.8.l.1.@.` ` +.@.3.>.>.' >.' ' >.' ' ] @.>.' ,.$.' ' ` ^ ` ' ' ' ` ` ' 1.h ",
"1.>.` OXC.] d.f.f.f.3.3.3.1.$.+.#.$.d.d.k.c.c.c.h.h.d.3.3.@.1.1.0.z.>.@.@.,.4.,.4.@.4.2.4.4.4.5.2.' ' 4.6.' ` ` ` ^ ~ +XC.' 3.h ",
"#.x.3.&.o.+.3.f.h.2.1.>.$.@.>.$.1.$.' 2.l.4.3.1.4.h.3.1.1.' z.W.Q.4.' 2.W.1.,.1.l.z.6.2.4.6.>.4.6.6.6.6.q.,.^ ^ W ' ^ &.o.$.0.j ",
"1.0.$.` ` >.4.l.x.z.3.l.l.h.2.$.d.f.z.M.h.h.1.d.N.C.N.c.l.4.1.>.1.2.6.1.w.x.6.4.x.>.4.0.0.0.l.x.4.x.x.6.4.^ ' >.2.2.1.+.@.3.M.k ",
"l.1.3.f.3.1.1.1.3.1.1.d.h.h.h.c.h.1.h.x.h.3.4.4.d.h.4.3.3.2.l.0.4.4.,.<.m.x.g.0.0.0.0.x.W.l.0.8.x.l.3.1.' ,.6.q.0.l.l.4.h.l.m.u ",
"1.3.1.$.@.1.$.@.$.] +.#.3.4.$.` ` ( #.+.1.1.4.4.3.>.$.` ` ` $.@.1.1.4.4.3.2.>.1.4.4.4.>.>.1.3.,.>.1.2.3.' ` ' 4.4.l.l.l.l.h.h.j ",
"4.+.] ` ` ` ( ` ` ) ( ` ` ` ( E ^ ( ` ' ' 2.>.' >.$.>.' ` >.>.' >.>.>.>.@.@.>.<.1.4.>.>.@.1.3.] @.+.@.@.` $.3.1.1.3.f.f.f.1.1.x ",
"~ k y y h k k h h h e e e e e 7 5 5 6 8 7 h 8 8 r 5 6 8 5 e e 6 8 8 7 5 5 r 6 5 7 7 7 r e e e 7 8 5 7 e 7 8 h h h h k l l k h l ",
"4.L y L L y u e h - # # * - - - 5 4 5 0 - 5 5 5 5 5 5 5 5 5 5 5 5 5 4 5 r 5 5 1 4 5 4 5 1 4 5 4 4 - - * * * h r y k l l l E W L ",
"g.W L W ^ P L l k 5 & - 4 5 5 8 6 6 5 8 5 8 8 8 5 p 8 8 p 8 8 5 5 4 4 5 5 5 5 - 5 4 5 5 9 6 8 8 5 5 5 4 - - l k l E Q L E X.^ l ",
"6.` W / ' =.W W E 8 - 4 5 8 8 u y 8 8 8 y y y y e y y u j u j u y y 8 8 8 6 r 5 5 5 e e y y e y y 8 7 6 5 - W L ! @.@.W ` <.^ L ",
"g.>.` ^ @.4.` ' W 8 # 4 5 6 6 6 8 8 p 8 6 5 5 5 6 y 8 8 e 8 e 8 8 5 5 5 4 4 - % - 4 5 5 8 y j j h e 8 8 5 - ( E +.#.$.~ +.3.+.k ",
"g.2.' ` 5.l.8.] ) e 5 5 6 8 6 5 5 8 8 8 0 8 6 8 8 8 8 y y u 8 u 8 5 8 5 5 y G.Y.z 5 5 u l L l j h y h u 5 4 +.E ` 3.>.@.` 3.1.y ",
"f.[ ' ' 4.3.0.' ` e - 4 5 4 4 - - - - - * * * x i 8 4 4 5 4 5 4 - * * # # p ....b.& - 4 8 8 u j L l I u u 5 Q E Q h.#.@.` @.$.y ",
"1.2.@.4.2.z.4.>.` y 5 5 5 4 5 4 4 - e 5 4 T N t U.D 5 6 6 8 e 8 rXsXzXe # + Z.4XvX+.5 5 u L R R ~ ~ ^ R i y Q W ` f.3.1.] $.4.y ",
"' 2.' 4.>.0.0.1.3.y 4 5 * * 8 N =.A X.2 4 q % U./.@ * * * h @ z sX[.*Xi.O u J.P.dX1 + i.i.0 y u u j y u 8 5 Q E ( $.f.$.1.$.4.u ",
"' 2.' h.4.0.z.1.1.k # d.[.OX(.oX@ # x.=.s h X [.q # - i._ oXi.>Xw.| ;.AXX.R.=.+ J., ] C q 5 5 8 8 u 8 5 5 * ` ` ] h.z.@.d.d.8.h ",
"$.2.' 2.4.0.m.>.$.k A.;XC N hX1 ,Xt $ / @ D c | 9 0XQ .XZ.6X#X6X7X< .XwX` K.P./.*  .2Xe.4 w.* * 4 * 4 5 4 4 +.' $.x.M.2.i.3.l.y ",
"@.,.` 4.4.l.x.1.>.h b.< % @ + uXD.# <.p 6 p e fXQ.w.V.(.k.* b.yXw.fXkX7XvXU./.I.mXP.8.MXyXdXtXo # _.:X).d.O.] >.1.8.h.l.k.3.h.h ",
"+.6.' ,.l.2.8.4.3.e A.% X . . yXb.m.2 @ $ $ - V.H <.2XG , + o.gX^.T ;.H . 5X..^.cXK #X8Xq U D g kXjXA q @X& +.4.1.3.h.4.z.h.h.h ",
"@.4.' >.z.@.0.4.4.e i.oXX O aXyX9X6X1 .   . {.q.  3.7Xz., + * kXpX7XQ.0X{.5XwXfXC & % w xXAXAXvXjXq , + X b.` >.4.3.%.3.c.M.l.k ",
"#.2.' 4.6.W.6.4.>.g   M.tXpXuXW.xX5 u # . [.v.@X< c.NXOXt i.F.VX7X;.V [.2Xw.].D &.].CX4 tX1 4 9XvX, X .   k.+.+.4.3.d.1.M.C.h.y ",
"' 4.' 6.,.4.6.1.>.y X _ XXD '.pXpX#X* p :XC iXF uX6X<XhXhXuX:XW.V D T c <.&.[.=.=.I.< ZXk rX4X/.<XpXX O F.b.+.>.,.4.N.3.h.N.l.h ",
"+.4.' 4.,.6.l.>.>.y p.! ;X^.V q C ).VXX p X.2X[.V.<XF.uX6XC.W 8X9XOX@XX vXK.V w w q e.<XmXm [.,Xb uXzXuX;XX.Q @.3.d.(.h.h.N.h.h ",
"+.4.>.,.>.z.x.>.@.y b.'.X e.N w % =.6X_ 9./.F w 1 < yXm mXbXBX;.F MX2 uX0 F 1 % @ @ 1 2 w.A.BXpX% xXrX.X<Xg +.@.$.4.C.1.3.M.4.y ",
"+.4.>.' W.z.m.4.+.e E 9.e.| w 1 % * pXuXt -.w % @ + (.1 MXmXB 1 % @ bX#XVXw @ + . . + gX4X7X' * . gXpXyXrXR ] ` ` 3.z.1.d.h.4.e ",
"' 4.1.>.2.1.1.4.>.e l rX5.H w % % nXMX>.x.w.w @ + xXmXU.vXCX3 % # X NX.X8Xt . . .   + ZX=.R l $ # 0 gX6X[.#.) ` ` 3.l.1.d.l.3.e ",
"+.4.@.>.' 6.2.4.<.e k 9.:X2X+X@ fX6XiXN.sXV.C @ zXbXmXCX5XzXCX& = MXmXmX;.4Xh . . o ZXbXr $ K &XAXMXz zXD.2 #.1.` 4.2.' $.3.3.y ",
"+.0.' z.4.4.4.>.>.h L r ).zXVXiX6X6X#X(.o.O CXMX6XmXnXwXH X mXZXCXhX`.[ * o 6X4XnXdX0Xr X   jXMX X} 6XS J E +.>.@.l.3.z.>.#.8.u ",
"+.8.` 8.Q.@.6.1.>.u E %.R.n._.`.).).).).fX8XvXbXvXzXjX9X5X3X1X%X1X8X8X1X%X1X3X8X8X8XwX8X1X1X[.%X1X%X`.`.l.L ` >.@.0.>.W.1.+.h.k ",
"$.l.` 1.B.>.6.@.>.y 5 8 k l W W ` ` ' ' ' @.` ^ ~ ` ` Q ` ( ^ ) ` ' ' ` ^ +.` @.$.$.>.>.3.>.+.` ` ~ E x l e $.>.1.4.1.Q.h.` h.y ",
"+.h.@.1.l.4.l.@.>.h - - 8 8 8 5 8 8 8 5 y 8 8 y y y u y u u u l u y y u y u j y e y e y 7 5 8 y y 5 8 5 4 * +.>.>.4.4.4.l.' 4.h ",
"` 3.1.$.' 4.3.` >.y o # # # & * * * - * * 4 * * - * * * - - * * 4 4 * - 4 - * * * - * * & - - * * * * * * & Q >.4.2.6.' 1.@.8.h ",
"` 3.l.4.1.l.3.` ` e                                                                                         Q >.4.<.1.2.>.3.4.y ",
"` 3.h.3.1.c.3.` ' y                                                     # + + O   O     o g r.d   - : o =   Q ' 3.x.z.W.' >.4.y ",
"` 4.M.d.1.N.f.1.@.y 5 < /       S U.{.{.L.9.  O O =.U.wXH |.3 q l.K.].~.^.[.'.X 9.;X@.5 g v v r.  * ; z r o +.+.<.R.z.>.,.>.4.y ",
"+.h.B.h.h.(.f.1.$.e T t $.+ $.D.U >X*X'.7X/ X.9.^.G _.iX3 n.S 2 ` K.=XE.9.'.4X  &.N.R.L v r.m s.  l m k f ; *.>.>.l.6.,.4.' 2.k ",
"#.l.C.h.3.N.3.<.>.h E C d.q 7Xn.~ 2X>X*XuXZ w./.Q.J.).cXA yXM 3 4.~._.~.6 o.O.  h r !.I k.z.(.z.  h.W.8.9.c ) 1.1.6.4.,.4.@.4.h ",
"+.8.B.M.%.d.3.4.' h d.X.;XC OX6XT c.d.Z.A.g.I.*X4X=.[.jXA :XM 3 =.%XaX%XS n.b.O g.' E.I   = a d   o r a ; o ) 1.4.0.x.l.4.>.2.y ",
"$.l.M.c.3.%.4.4.>.h ; X.<XG ).).F <.2XsXZ.-.-.w.v.M z.).Z 2X[ Z ' E.aX`.I W E Z ' / K.8 d _ u.y.  e n n f = ) 3.4.0.>.x.' ' 4.j ",
"+.0.l.c.4.h.3.3.1.k = p a.S _.).!.4X0XfXkX[ w.I.'.| >XfXM 6XY 3 Y E.`.E.D +Xk.  <.[ E.0 r u.O.s.O l z m z : ) <.4.0.4.4.4.' 4.h ",
"+.8.%.k.l.8.8.>.>.h 0 l j.G 4.4.D 2X2XiXuX[ H [.iXG 2XuXS ,XG 0 S L.E.7.=.|.w.o {.L.7.* ; m u.m   h z f f O +.>.>.z.0.4.4.' 2.h ",
"+.l.i.d.3.M.M.$.' j > Z d.B 2./ Z @.j.k.n.A :./.fXM W..XM `.S 2 S H.`.E.( >XC.X '.C.{ 6 4.2X2X(.  X.].W.8.e #.@.1.x.l.4.,.' ,.k ",
"+.h.3.d.' z.g.#.` h + k.#XS +X2.R ] $.&.a.< ;.*XjXJ l.(.M `.S > Z { W.K.X.7XC.O C.z.K.* O a v a   : g a d & $.3.1.z.0.6.8.' 2.y ",
"$.4.$.3.$.h.1.( ( 8 = XXd.B v.Z 2X7XsX;XhX@ !.=XyX[ $Xg.S $X-.> I !.+X-.c tX&.O k.p R.# 7 m a.b   h z r.f X +.2.3.0.q.1.4.' 2.j ",
"] 4.1.#.1.2.h.) ) 8 $ P ~ A v.Z '.5X8XsXuX$ (.=XcXR >Xl.J $X-.M A 7.~.H.< 7XX.X >X9.Q.O 7 r.s.r.  e g m f o +.' 1.0.z.4.4.@.,.l ",
"` 1.$.+.1.$.l.` ( h 4 ] Y B n.M ^.4X0XsXiX  ^.>X4XG 7X].S :XA > U =.].7.2 k p t ` [ R.. - m s.r.  5 f n f X ) +.1.z.6.6.>.' 2.L ",
"+.4.4.@.1.3.h.$.( h < i.[ S _.> / >.V.j..X  4X2X~./ 7XR.G $X[ 0 P U.1XH.< uX9.5 *X6.E.. ~.'..Xn.  / 8.p.k.- +.+.1.l.z.6.' 2.,.L ",
"+.1.z.$.@.h.h.2.) k C >XL.=.iX- ' ,.n.p.D.  ~.0X`.:.<X=.{ 6XK.$ A |.8XH.J.2X7.[ |.{.~.  O d y.v   o f m g   Q @.2.2.x.6.' @.4.L ",
"4.4.l.3.$.l.h.3.] k 2 8.{ { #X$ 0XcX0X,XhX. }.0X[ *XmXJ { 6XH.C Y -XcX=.*.jX^.2 dX!.!.  + y.y.r.  r f r.z   +.$.3.1.0.6.4.' 4.I ",
"2.6.l.1.$.l.d.#.+.h q 4.{ 7.9X> Q.0XdX8XfX  /.lXt [.lX~. .3XL.J I L.aXJ K.#X=XG 7X X|.  5 n S.a.  - b.u.m   +.` ' ' ,.q.6.` ,.I ",
"2.0.f.1.1.3.1.#._ l G ,XS L.jXq qX8X5XnXcX1 -XcX, -XbXT.-XBX1XI.7.5XbXH.T.8X XG.5XeX X  z t.a.i.  7 ] i.] # +.$.' >.^ 4.>.` >.L ",
"4.#.$.d.1.$.#.#.+.+.3.3.d.$.$.%.%.3.d.4.4.%.$.#.$.3.%.#.@.#.3.4.3.3.6.3.3.3.%.%.%.3.d.1.d.$.$.$.$.f.h.h.d.d.#.#.` #.@.+.+.+.+.E ",
"3.1.1.f.f.f.1.1.1.3.@.` $.@.' +.+.4.3.@.>.3.4.>.1.>.' ' @.>.<.>.>.>.>.` ' @.@.1.' >.2.>.' ` ( ( E ) ` ` ` ( Q ` ` ` ` ` ` ] +.L ",
">.8.l.l.l.l.l.4.>.>.` ' ,.2.1.$.,.3.1.>.>.4.4.4.1.>.3.4.,.4.>.>.@.@.` ` ` $.1.3.4.4.3.>.>.#.( ` ) $.4.1.$.#.` $.$.$.1.$.3.1.3.k ",
"+.M.l.8.4.g.l.0.0.6.,.' 1.2.l.z.6.l.z.x.x.0.l.0.0.q.x.x.<.4.4.6.0.0.4.3.3.4.4.4.3.3.3.8.x.h.%.h.c.h.h.l.d.$.3.3.1.1.1.2.4.3.$.W ",
"$.x.3.@.@.1.2.2.>.' ` 4.6.x.x.f.z.l.8.0.l.2.1.x.4.6.l.z.1.6.4.>.>.3.4.l.c.N.C.V.d.d.8.h.M.z.f.2.$.d.h.l.l.3.z.x.l.f.1.) Q >.l.j ",
">.l.$.OXC.^ ' W ` ^ ,.q.6.6.0.6.4.1.0.4.4.6.z.l.1.2.1.W.2.' 4.Q.W.l.' 1.3.1.8.3.1.3.2.h.4.' $.1.1.1.' @.@.1.4.h.4.3.` OXC.3.x.h ",
"+.4.+.&.+.W ^ ( ` ` >.6.,.' ' ,.4.4.8.,.4.,.@.4.4.4.,.' >.>.z.0.1.>.%.3.4.3.k.l.M.c.c.k.d.d.3.+.` $.1.3.3.3.f.d.d.d.` &.o.` >.j ",
"` >.' Q ` ' >.' ^ ^ ` ' ' >.2.' @.' ' ' ' ' ' ' >.' >.>.3.#.] ` ` @.3.h.h.M.M.C.N.M.h.%.3.d.1.%.$.4.l.l.0.h.f.4.f.2.$.W W ^ ' l ",
"] l.1.$.1.2.4.2.' 2.>.1.4.4.,.2.,.2.,.4.,.4.4.4.4.4.4.4.4.4.8.h.l.8.3.3.4.3.8.l.h.l.l.h.h.h.4.4.3.2.3.1.4.0.z.4.$.1.4.^ ` ` ' h ",
"T h j l h l R h L I L L I L l I l j h j y y k y y u y y h u y y k h e h y y y u h h y h h h h h e y k L l L L l j u h j y h h k "
};
