/* XPM */
static char *result[] = {
/* columns rows colors chars-per-pixel */
"64 64 245 2 ",
"   c #3D36CE",
".  c #5A2BD8",
"X  c #473ADA",
"o  c #5633DC",
"O  c #5029D0",
"+  c #6629DA",
"@  c #7427DB",
"#  c #583CE4",
"$  c #4F3BE0",
"%  c #6839E7",
"&  c #7739E9",
"*  c #762DE0",
"=  c #7016C5",
"-  c #3648D7",
";  c #2F53D7",
":  c #197ACB",
">  c #2969DA",
",  c #2875DB",
"<  c #3C55E3",
"1  c #3967E7",
"2  c #387AE8",
"3  c #2E74E1",
"4  c #4344DE",
"5  c #4848E4",
"6  c #5948EC",
"7  c #4856EA",
"8  c #5153ED",
"9  c #5A59F3",
"0  c #4E5EF0",
"q  c #6744ED",
"w  c #694CF2",
"e  c #744AF2",
"r  c #7A48F2",
"t  c #6859F6",
"y  c #7453F6",
"u  c #7C52F6",
"i  c #745CF9",
"p  c #7B5BF9",
"a  c #7857F8",
"s  c #7A43EF",
"d  c #4665ED",
"f  c #4276EE",
"g  c #4D67F2",
"h  c #5C63F6",
"j  c #5769F6",
"k  c #4976F2",
"l  c #5472F6",
"z  c #5C73F9",
"x  c #577CF8",
"c  c #6464F9",
"v  c #6C64FA",
"b  c #636CFA",
"n  c #6D6AFB",
"m  c #6060F7",
"M  c #746BFC",
"N  c #7C6CFD",
"B  c #7764FB",
"V  c #6474FB",
"C  c #6C73FC",
"Z  c #647DFB",
"A  c #6C7CFD",
"S  c #7373FD",
"D  c #7C74FE",
"F  c #747CFE",
"G  c #7C7CFE",
"H  c #8827DB",
"J  c #9928D8",
"K  c #9D28D6",
"L  c #AA32DB",
"P  c #B93AD9",
"I  c #A82BD5",
"U  c #8737E8",
"Y  c #9638E6",
"T  c #892EE1",
"R  c #A73CE3",
"E  c #B03CE0",
"W  c #861BCE",
"Q  c #CB34C4",
"!  c #BE42DC",
"~  c #8742EE",
"^  c #9844ED",
"/  c #884AF2",
"(  c #964CF1",
")  c #8353F7",
"_  c #8B52F6",
"`  c #835CF9",
"'  c #8C5CF9",
"]  c #8357F8",
"[  c #9B5CF6",
"{  c #935DF8",
"}  c #9755F5",
"|  c #A648EB",
" . c #B649E4",
".. c #AC55EF",
"X. c #B859EA",
"o. c #A65AF3",
"O. c #A14EF0",
"+. c #8364FC",
"@. c #8B63FB",
"#. c #836CFD",
"$. c #8C6CFD",
"%. c #9364FA",
"&. c #9C65F8",
"*. c #9B6BFA",
"=. c #946CFB",
"-. c #8474FE",
";. c #8C73FD",
":. c #837CFE",
">. c #8B7BFE",
",. c #9373FC",
"<. c #9B74FB",
"1. c #947BFD",
"2. c #9C7BFB",
"3. c #BB68ED",
"4. c #BD76EE",
"5. c #A362F6",
"6. c #A769F6",
"7. c #B267F1",
"8. c #A373F9",
"9. c #A27DFA",
"0. c #AB79F6",
"q. c #B576F2",
"w. c #CC4FD8",
"e. c #D76BD9",
"r. c #C456E2",
"t. c #C569E7",
"y. c #C778E8",
"u. c #E371CC",
"i. c #2B98DB",
"p. c #2789DA",
"a. c #34B0D9",
"s. c #3789E7",
"d. c #3C98E8",
"f. c #2E82E2",
"g. c #3AA6E3",
"h. c #1B93CB",
"j. c #47BEDF",
"k. c #4288EE",
"l. c #4698EE",
"z. c #4A87F3",
"x. c #5887F8",
"c. c #4C96F2",
"v. c #5D92F9",
"b. c #5798F5",
"n. c #6583FC",
"m. c #6B84FD",
"M. c #6C8BFC",
"N. c #648CFB",
"B. c #7483FE",
"V. c #7C84FE",
"C. c #748CFD",
"Z. c #7B8BFE",
"A. c #6C94FB",
"S. c #6C9BFA",
"D. c #6496F9",
"F. c #7492FD",
"G. c #7B93FD",
"H. c #749BFB",
"J. c #7B9AFB",
"K. c #49A8EB",
"L. c #53ADEE",
"P. c #58B5EC",
"I. c #57A6F2",
"U. c #4FB5E8",
"Y. c #67BAEE",
"T. c #73BDEE",
"R. c #69A7F6",
"E. c #73ABF6",
"W. c #7BACF6",
"Q. c #73A3F9",
"!. c #7CA3F9",
"~. c #7EA8F8",
"^. c #6AB3F2",
"/. c #73B3F3",
"(. c #7BB6F2",
"). c #58D3D6",
"_. c #4DC9D9",
"`. c #68D6D9",
"'. c #77D7DB",
"]. c #70E4CA",
"[. c #59C4E3",
"{. c #69C9E5",
"}. c #77C7E8",
"|. c #77D1E1",
" X c #8383FE",
".X c #8B83FE",
"XX c #838BFE",
"oX c #8B8BFD",
"OX c #9383FD",
"+X c #9989FB",
"@X c #8494FD",
"#X c #8C93FC",
"$X c #839AFC",
"%X c #8C9BFB",
"&X c #9392FB",
"*X c #9999F9",
"=X c #BD89EE",
"-X c #BB9AEC",
";X c #AB84F6",
":X c #A483F9",
">X c #A38CF9",
",X c #A98AF7",
"<X c #B487F2",
"1X c #A797F5",
"2X c #B395F1",
"3X c #8ABDEE",
"4X c #97BBED",
"5X c #8AACF6",
"6X c #83A4F9",
"7X c #88A8F8",
"8X c #9CA3F6",
"9X c #93AAF5",
"0X c #98A7F5",
"qX c #83B4F3",
"wX c #8BB3F3",
"eX c #87B9F1",
"rX c #95B2F2",
"tX c #A9ADEE",
"yX c #B5A8EB",
"uX c #A9B7E9",
"iX c #B8B7E3",
"pX c #A4A6F2",
"aX c #BDB8DE",
"sX c #D597D9",
"dX c #D58CDB",
"fX c #E48FCA",
"gX c #CFAED4",
"hX c #C78AE7",
"jX c #C496E7",
"kX c #D08CE0",
"lX c #C5A6E2",
"zX c #87D8DA",
"xX c #98D5D9",
"cX c #9CD7D7",
"vX c #ACC9DD",
"bX c #B7C8D8",
"nX c #A1D7D6",
"mX c #86C9E7",
"MX c #98C4E7",
"NX c #85D1E1",
"BX c #A3C4E4",
"VX c #B1C0E1",
"CX c #9BE1CC",
"ZX c #C3C6D0",
"AX c #99EBBD",
/* pixels */
"H.6.P T 4 d 8.lX{._.mXhXu.e : g.R.,XG.R.BXNX{.S.m.F.@X Xt.} < 0 6.7.h k F 1.=X+XC j g 6.=.h G <.4.k 2 :.V.>X<X-._ / Y L X w <X%X",
"A p Y H &.E.I.q.OXP.}.XXL J - 2 m.*.-.M ;X>.Z Z.5XmXzX{.pXN f 0XvXT.k.h S OX=X@Xk h z %.0.F D.2.hXv.s.F.@X1X2XA.v i U J + & ..~ ",
"x.k F ,.sX#Xs.R I * r 8 % L @ $ i ' p / R T % u 8.+X0XxXCX]._.mXtXv.l.m.Z.*X4.C d x A D 0.,XH.rX2Xb.I.MXcX|.S.G H.Q.H.H.XX;.o.Y ",
"E.Y.Y.W.t.~ - t q...% 8 n <.F V G :.V.V.>. X:.<.o.^ J U o.M.f.e K % f 3XqXQ.&.i g z F G &.q.*XwXZ.c n *X>Xz.9 5. XmXzXzX].].|.{.",
"M B.W.qX&Xl g :.yXpXL.b.J.8X(.^.J.G.V. X.XpXMX}.S.N ( L I W X < ) 6.+XqXb.j p ,.C.b.A.V.:...t._ j i $.| R X d ;X,.' &.-.A 9X4X`.",
"/ U / =.m.k.B.&X<X&Xx.W.4XMXY.L.R.H.J.9X4XMX7Xk C G m..XhX2Xg.L.J.,.7./ 7 8 M 6.;.N.S.A.F %. ./ 9 G :. X&XW./.XXv Y K W @ r.%.2 ",
"N #.} O.p x Q.*X8.{ t XX1XV.g 6 y B OXiXMX!.t 4 w $.D D hXq.2 x F.B...u 7 F B.=.' p *XE.{.W.%X;XV.C..XoX+XJ.n.z b G oXV. XfXq., ",
"}.(.R.-.*.@XqX5XH.@X$XOX%.6 $ & e u 7.dX.X1 7 j ,.9.V.C.X.O.6 t S C.@XA.n.Z.C.C.:.@.q.%XP.R.M.:X+X%X7X9X8XV 7 t M .XoXXX@Xu.+Xi.",
"M D %XeXuX3XE.J.A.8XwXv.v 9 x.Q.H.G.jXdXF , k C V.2.OXC.<.2.J.(.E.C.Z.G.6XqX^.R.Q.$Xy.*.9 j n $.%.@.:X*X#Xc.s.C.OX X.X.XoXr.Y X ",
"& & / ` *.7.1.m.A.+X.Xd g v B.%X4XNX4Xy.N s.U.^.5X8XV.V ,.-XuXU.c.$.N V.G B.G J.(.}.0XG t v G .X=.&.O.} _ 6XU.[.W.5X7XBXW.V U & ",
"G.V.o.^ T | jX(.i.~ U 9 x.M.M @.0..XM ^ ^ *XP.`.cX{.K.V @.t.X.7 5 ) ,.,.M e ~ ) +.;.S z n G .XXXXX.X&.} ( o.b f M $.$.=XZ.s.B.oX",
"B.m.V.Z.+X=Xe.t ; e _ $.G.v.D.:XkXM < } } | s w 4.z f.V ;.X.| 5 d $.*.' z V .X%.@.[ D z.C.V.XX XXXXXV.D %.| & 4 e / ~ I U k ~.$X",
"T.I.A.oX+X9.P + - C ,.6.;XD.L.9X2Xx.k 2X.X/ U @ w.w > n.V.*.8.C v.A.+X$.V V.XXZ..X9.yX}.[./.J.Z.XXV.Z.G.B.1.F v.H.J.XX9.0.G H.%X",
"G S.Q.4X4XJ.n.b B.B.-.;XjXnX_.L.( q 9 0.:.x.!.9X=XF.2 Z F ;.<X8XI.D.oXV.F >.V.V..X:X=XB.k.M.0X4XmXxX|.[.^.9X5XT.}.}.xXzX}.V.y ) ",
"U r v 8.lXT.j.(.eXT.Y.pXsX2Xf., v N .X;.B B >.-XyXv.2 n.G .X=XyXK.c.OXV.C..XXXXX0X8X6.& o w 6.9.V.>.+XS.l.G OXG V.@XlXmXd.l i ) ",
":.%.) ( r.@.z.D.XXB.N.1.X.I X ; M.#X1XrXR.A.+XlXVXa.i.n.V..XhXhXd.s.&X7XeXmXP.D.=.&.i 0 B +.X.y.i 6 U & h p _ / u ' r.y > x A.G.",
"J.!.J. X .L % 9 / ~ w i ( U t rXcX].}.5X^.}.bXZXE.s.d.I.F.oXhX7.7 d ;.2.+X#Xz.j ' ( t V XXoX,XjX~.g.>.*.V D.@XXXXX+XkXN.f.G.W.(.",
"CX`.a.n ) ^ y.tX`.'.xX'.[.A.;.<X*Xb.Z.2.Z F.jX5.# $ c 3X'.zXvXE.f.j $.{ O.~ 7 h :.:..X%X4X}.E...U 5 S 1XuX{.P.XXV.>XkX/.g.(.qX(.",
"lX(.h.k.D ;.dXsXY.P.&X!./.NXCXvXz 6 t XXG..XX.%   & } [ .XXX,XrX`.).{.E.pX9XK.K. XXX X2XaX}.K.b ~ q p y.hXk.1 ' 2.2...& $ u } ) ",
"w.( : K.7X4XsXt.5 + T * y XXlXT.i.@X+XoX XB.OXz.s.oX2...^ & 3.=.l.c.b.N.2.2.x v.$X@X$X8.r.( 2 l.G.XX-.t.! $ - ` &.} U @ % & / U ",
"2X-.> c.4XbXBXN.8 t #.;.7.| P . ; =.OX-.#.M 2.x.d.%X7X!.#XV.kX4.8 o 7 9 ~ Y % -.uXzX{.N.^  .b d.R.M.C.7.o.h x.V.=X.Xk.B.V. X>.;.",
"@XA k x.*XkX$.3 V $XXX.X,.+XkXb.f.0.oXF G :.9.b.2 ;.%.] i ` fX*Xi.D.z.m.V.F V.lXuXP.x.z.Z 7.0.x b.m.S ;.;XZ.b.F.lXwXg.F.B.XXpXMX",
"q 9 n V.,Xt.b 2 6X0X(.eXwXG.o.c Z pX6XH.S.Z.@.9 j  XG #.M 1.e.=Xs.K.c.A.!.E.vXgXwX, 6 j M.2.5.i l v.C.#XlX3Xa.!.kXH.f.M.m.0XyXMX",
"l 9 u 2XZXnX).i.S %.>X%Xb.t H @ * 7.-XvX_.K.t 9 n  X8XMX|.}.7.R % d x.Z.%X6XbXgXU.h.Z F V.Z.<.,.B.S.S.0XlXrXK.^.*.' h x.m.;XkX2X",
"U.K.V.hXdXoX1 < p } 3.) - 5 w ) R J P e.f p.j m.#.+.6.-XE.b.V.( ^ w x.Z.oX*XhX! X ; H.Q.F.Z.pXvXCX).j..X .^ t x.m ~ u C Z.2.7.^ ",
"l s.R.t.P = O $ A oXy.B > l XXXXXX[ ! Q . ; i C C G y.r.q 5 t M <.2.A.G.OX>X} & O s pXNX).P.*XjX+Xs.1 ' } ^ ^ g s.:.,.oX!.G.} Y ",
"n k x q.%.d t >.:.:.y.Z.s.^.7X!.Q.F.2.e.] 3 G F Z.C.2X7.j t +.M 9.:Xn.G  X8.t 7 a q.7.%.z k _ P J   < C G 9.5.v A wXwX7XZ F XX!.",
"+.n F +XH.D.6X@XZ.@X;X1XK.[.wX(.^.E.7XsX@X2 XX%X6XqX1XXXg G V.%X>X:.t r ) ..l 2 &X9...Y % 8 C } &.@XY.P.%X8XJ.m.#.OX*X6X(.MX{.Y.",
"s #.XXG B -.J.S.XXoX;.o.v x 0XQ.R./.(.1XXXk #X&X$XF.$.M n #X$XG.' y w ] _ 5.8XP.Y..X:. XZ.m.m. X2.jXeX_.Y.9XC.x..X&.&..XwX5Xx.m ",
":.:X<.l M q.-.k ` %.#.} @.i OX.XM.A.V.' i j 1.,XF b p B  XtXW.z.i v M G :.q.=XN.c.V.>.-.M M S  X1XkX X2 n.+.:.M.Q.$X2.0.} % X q ",
"CXCX`._.}.uXT.d.M.,.OXZ.&X.X,.,.m.S S c M +.1.8.C z S S ' X.<.k.b.M.G :.:.8.r.) k B.Z.n t u <.1X9X0._ 6 h A 1X7X(./.qXlXwXg.P.eX",
"5X.Xj B.%X#XF x.(.eX7XG. XF $.=.M C Z.A.v.Z.+X<.z 9 M B ) | 3.F.`.{.{.E.A.1.q.:.M.#X5Xb.z.B 6.q.*.p y t B. X:X>.S XX@X2XZ v.MXzX",
"W = = H X.N z j F pX6XS.V.A >.;.S  X%X(.{./.J.S b M A A G.+Xt.q.A c.n.$XeXmX@XB r r _ F c.D.5. .} v D >.V.XX2XB.h q.@.e + @  .[ ",
"e j G.hXq.j A OX>.:XB.z.V.C.XXXX:..X1.N F J.S.N.M.7X/.^.wX4XtX8.q # e =.oXM.j w r ~ Y & 9 Z G &.7.>.Z.oX:.&X;Xx.f 3.) 5 w ( w.E ",
"-..XiXbX(.j q +.1X-Xv.f :.G F D -.+.) / ~ ' A b.J.0X7X^.9XpXH.S c m +X2X+XV z.b.S.M.D %.] n Z..Xq.q.C.%X#XF ( 6 c q.b < B.#XjX=X",
"@X8X-X-XI.d.m.' 7.o.0 9 $.>.XXm.C p +.-.-.&.2XMX`.^.N.V 9.2.h 9 V @X*X,X#XR.^.T.|.zX`.{.E.J.rXeX~.0.` $.+X9XR.c.*X9XP.^.(.7X-X-X",
"J..X .I & l b.6XhX@.- s _ } =.z h #.>.>.G $.y.-XL.s.v M %.u 8 y +.B [ ../ u i v OX0X|.'.'.{.MXE.b.2.@._ 7.:XI.L.:X2.m.R.Q.6X,X6.",
"C u ~ U R ~ b $XlXI.p.B _ ( ^ w t OX+XG F D e.P O 4 i  XoXV h +.B i ' O._ ) u y ^ | & 6 i b } ' g Z.oX#X=X4.g d p ' &.S n.G +.^ ",
"b z D -.} ( s ^ r.#Xa.j.F.=.@.N #X&XXXN :..Xq.4.f k yXwXL.b.Q.6XD.m.1.:X.X#X@XD.&X0.t * H % U <XH.P.#XZ.<.7.:.b.Y.Z.#.` ;.Z.x.F ",
"A A V.V. X%.@.} r.( k {.{.|.3X/.tXrX^.S.C.:.q.jXP.`.ZX}.i.l S XXN.!.uXnX{.R.n v 0.1.k z V. X*XlX$Xf p u U Y Y 2XmX_.x.*.2XW.L.J.",
"M S G :.G XX*XpX#X| U e z.H.*Xv.=.{ v uXmX[.%Xy.n j t.p , k #.OX5XmX3X#Xb 9 y i 5.@.g m.XX8X0Xq.y 5 i i N ` E w.O.3 2 9.sXqXg.A.",
"XX@X6XwXqXNXMX(.C.C @. .q q _ 6 s Y U ..0.c.Z.X.s # L U d I.(.0X9XF / * # 9 B.V.;X1.x.G.9XiX3Xz.9 9 F Z.oXZ.G e.! ; l 1XdX+Xf.x.",
"rXwX/.7X$XXX;XXXx.v.V.>.V.F M t S G $.! w.N Y.T.I.v.OX8.v Z uXrXQ.B k x.Z.Z.V.V.>XyXP.I.,.t.<.s.b.m.G :.>.B.m.t.4.l v.;. .T o t ",
"+X1.S +.` ( _ +.G.b.A.OX Xx l -. XV.V.<.dX<Xx.b 9 y $.*.;. X0.v 0 N n.C.XXZ.J.J.1X,Xk g _ L t.v._.^.qXmXMX{.{.0X1.t e / U H @ & ",
"*X@XD.!.W.qX0XoXA A F.uXqXg.x.-.$.S G ,.e.! o . # ' $.1.&XC.} q # / q B ;.V.Z.Z.>X[ 8 8 F +Xt.' 0 F @X%X8XE.E.J.C y t M S D ;.;.",
"MXNX[./.J.J.*XH.x B -.jX!.p.z.G >.:.V.OXfXpXi.x.G OX1.:X,Xz d t G >X7XQ.@X:.D -.*.#Xc.I.0X8X8.s % ) @.[ ( w r v x.eXmX}.T./.eXeX",
"q.+Xk.z ;.>.<.n.E.(.b.X.{ > k.V.V..X X*XfXvXa.g.V.>.,.&.o.h g A #.,.+XZ.C.G G  XOXyXmX).}.7XD.v.XX+X+X8XXXN.M v t %.#.C V.tX4X}.",
"y.[ 1 9 D >XyXT.Y.^.T.#XG f l.F.Z.#X%X%Xw.P - k.rXBX{.v._ p x n.-.[ y.:.c.B.V.OX1XhXG.d.B.D S D.S.&X>XpXR.c.b t u Y T & o.jXwXP.",
"xXI.s.C >.=X1Xc.e % a $X7X^.{.CXAX].).N.R W = $ 8.=Xx.s.#.8.C z V.&X=X#Xx.$X6XrX9X:X_ 6 9 S 8X~.L.B.&.O.B B.K.l.B.Z.XX*XyXy.=.v ",
"C.2 1 C N t.Y . % _ ( w q ] v lXgX_.a.i.x @.{ _ ..P o 5 ,.,.Z A V.>X4.#.h V.>.2.{ r e n C.XX2XB.2 B } ^ / y j A.MX}.P.OX7.R T T ",
"0 ; < t ( r.p 1 #.1XZ.t & U U Q Q   ; f z.V.oX#XOX*.c b :X.XZ F XX:X+X:.V.:.+.{ p t ;.-.V.oXjXM., z :.>.' ~ % u <XS.c.;.' p _ ( ",
"6 < 5 t 6.gX}.a.vXpXd.f V. XD r.! X X t z  X+X+X.XtX}.{.9XS.m.Z.pX1XF.$.:.Z.C.V.G F ,.1.:.pX-XL.i.R.@XXXV b -.6. .e 7 G  X&XtXMX",
"+ 5 0 Z.-Xy.b d jX#Xs.z.C.XXZ.8.5.9 b G N.Z.1XuXcXcXP.l.:.V M *XiX/.c.=.1. XC.Z.Z.B.:.+XOX>.Y % 5 A tXE.d.A &XiXrXI.V %X0XwX8X8X",
"m.R.mX'.5X| @ + P o.k.P.I.F.0XbXNXa.S.7XR.!.pXyX8X&.7 # a h +.8.t.M k *X&XB.V.G.A.G.@X2XXXc % % s y 6.S 2 B.2XlXE.d.@X*XG.N | R ",
"wX(.E.m.c c S >.6.X.p k z oXpXlX(.g.Q.$Xv.C &.E J @ 5 @X(.K.m.} P & B >XXXm.:..XC.6XvX4Xl.d V B..X:.3.i 1 G 0.r.y k 9XG.c q / _ ",
") ~ & % 6 S .XoX:.o.Y % t $.7.P @ 4 v B t t _ ~ & { 2XuX{.K.b.S %.[ } o.,.%XrXR.x B 3.6.3 f F V.0X7XuX}.j.I.{ | ~ p *.c d n :X2.",
"/ r 9 S V.XXXX+XXXA -.G G ;.[ / ) y 9 p v m.V.V..X-XlX+Xj < g F :.,.o.( / 6.%.g 6 U I H 4 G.3XmXcXzXmXE.s.z.F $.[ ( ( 9 x Z.*X1X",
"A.M.XXZ.XX@X0XtX^.l.V.>.V.G -..X1X!.l.F.#X!.W.wXMXbXyXj 8 M.}.'.[.E.%XOX@.r.Y < 9 D @.( _ 1.tXwXoXB & & 5 f F.C. X*.<.G A.F.yXiX",
"G.F.G.%X0XwXE.yXQ.d.F.#XXXC.V.OX-XF.s.G .XXXC.XX2.7._ 9 z .XpXeXU.I.@X.XZ.jXG.s.G :.V.V.8.t...r * @ % e Z.MX'.`.Y.7XtXeXP.H.<X7.",
"p M N $.<X*Xx ^ & 0 Z.Z.V.F V.OXkXM.f.D ;.$.B ` ^ T Y y Z '  .& 7 9 #.-.1X2Xb.1 S -.:.G OXq.&.t j Z G ,.1.2X$XK.b.XX<XiX{._.;.Y ",
"+.#.M +...7.d 9 / e ,.*X!.R.G.&XsX^.h.XXG :.G Z.G.$XyXtXU.R.:XD k Z.0X4XbXqXp.g V.V.:.:.>XyX!.N.m.m.XX*X1XhXi > 9 +.X.dXC.i.l B.",
"V..XV.V.6.3.l s. X=.*.8.V.x D @.e.S : Z.G :.:.G oX8XZXcXa.I.>.Z.M.BX3X/.y.j , C G B..XpXtX9X9X^.P.Q.wX5XuXiXK.3 A XX>Xe.s ; t .X",
"V. X XG D 4. Xd.S..X>.3.:Xz.x.` w.~ ; D.V.V.:.-.>X1Xy.} d x.G.C.m.<X+.6 I e 2 R.G.@XtXuXrXXX;.A Q.E.S.M ^  .h 2 A. X2X3.g < G >.",
"XXXXV.B.F y.:Xs.v.V.>.2XyXL.d.G 7.7.l x.XXB.V.:.2X4.^ H % n.Q.G.m...t < 7.;XD.K.R.%XyX-XA.V %.i =.Z.g 9 U  .] s.v.XXhX,.2 j :.>."
};
