/* XPM */
static char *result[] = {
/* columns rows colors chars-per-pixel */
"64 64 200 2 ",
"   c #2B2928",
".  c #322E2C",
"X  c #3D2B28",
"o  c #3C2A27",
"O  c #36322F",
"+  c #373331",
"@  c #393633",
"#  c #3C3935",
"$  c #3D3A39",
"%  c #442D2A",
"&  c #482A28",
"*  c #522E2D",
"=  c #5F2F2E",
"-  c #46312E",
";  c #5D312F",
":  c #443635",
">  c #4B3432",
",  c #4D3937",
"<  c #423E3B",
"1  c #483D39",
"2  c #533432",
"3  c #5D3432",
"4  c #553836",
"5  c #593A37",
"6  c #533C3A",
"7  c #5A3D3B",
"8  c #62322F",
"9  c #633432",
"0  c #6B3533",
"q  c #623935",
"w  c #633E3B",
"e  c #6B3D3A",
"r  c #703734",
"t  c #743D3A",
"y  c #783E3B",
"u  c #44413E",
"i  c #48413E",
"p  c #53403D",
"a  c #5C413E",
"s  c #64413E",
"d  c #6C413E",
"f  c #73413E",
"g  c #78423F",
"h  c #464342",
"j  c #4A4644",
"k  c #4D4945",
"l  c #494648",
"z  c #4E4A49",
"x  c #554443",
"c  c #5A4543",
"v  c #514B46",
"b  c #5C4946",
"n  c #524E4A",
"m  c #5C4C4A",
"M  c #54514D",
"N  c #5A534E",
"B  c #514F51",
"V  c #555351",
"C  c #5A5552",
"Z  c #5C5955",
"A  c #575959",
"S  c #5D5C5A",
"D  c #644542",
"F  c #6C4541",
"G  c #634B47",
"H  c #6B4946",
"J  c #644D49",
"K  c #6B4D49",
"L  c #734542",
"P  c #794440",
"I  c #734945",
"U  c #714D4A",
"Y  c #794D47",
"T  c #63524D",
"R  c #6B524E",
"E  c #73524D",
"W  c #7A534D",
"Q  c #645552",
"!  c #6C5653",
"~  c #635B55",
"^  c #6B5A55",
"/  c #625E5B",
"(  c #6C5D59",
")  c #735752",
"_  c #7C5754",
"`  c #735B56",
"'  c #7C5B56",
"]  c #725D59",
"[  c #7B5D5A",
"{  c #5F615E",
"}  c #64615D",
"|  c #6A635D",
" . c #6B685F",
".. c #73635D",
"X. c #7B635D",
"o. c #7B685F",
"O. c #766257",
"+. c #5F5E60",
"@. c #5E6161",
"#. c #656462",
"$. c #6A6662",
"%. c #676965",
"&. c #6C6A64",
"*. c #6D6B69",
"=. c #736561",
"-. c #796661",
";. c #736B65",
":. c #7A6B64",
">. c #726E6A",
",. c #7B6E69",
"<. c #6F706D",
"1. c #757167",
"2. c #787166",
"3. c #75716C",
"4. c #7B746D",
"5. c #7E796F",
"6. c #6F7272",
"7. c #757371",
"8. c #7A7671",
"9. c #777874",
"0. c #7D7974",
"q. c #7D7C7A",
"w. c #A50706",
"e. c #AF0807",
"r. c #A90A09",
"t. c #A70A09",
"y. c #B30707",
"u. c #BB0707",
"i. c #B50807",
"p. c #BD0807",
"a. c #B20B0A",
"s. c #BD0A09",
"d. c #B91917",
"f. c #C50807",
"g. c #CB0807",
"h. c #C40908",
"j. c #CD0A09",
"k. c #D00807",
"l. c #D40B0A",
"z. c #DB0A09",
"x. c #C71311",
"c. c #815650",
"v. c #845C55",
"b. c #835F5B",
"n. c #84625D",
"m. c #8D685F",
"M. c #89645E",
"N. c #826661",
"B. c #836B64",
"V. c #8B6A64",
"C. c #8C6E69",
"Z. c #886B65",
"A. c #906C64",
"S. c #82736C",
"D. c #88766C",
"F. c #817A6F",
"G. c #93746C",
"H. c #827771",
"J. c #837C74",
"K. c #8B7D74",
"L. c #827E79",
"P. c #897D79",
"I. c #937B74",
"U. c #9A7F77",
"Y. c #947672",
"T. c #858077",
"R. c #8B8176",
"E. c #85827C",
"W. c #8B847C",
"Q. c #8E887F",
"!. c #92857C",
"~. c #95897D",
"^. c #99897E",
"/. c #998278",
"(. c #858381",
"). c #8A8681",
"_. c #8D8A84",
"`. c #8E8C8A",
"'. c #928C84",
"]. c #9A8F86",
"[. c #938E8A",
"{. c #949086",
"}. c #9C9186",
"|. c #94928C",
" X c #9A948C",
".X c #9C988F",
"XX c #969591",
"oX c #9A9792",
"OX c #9C9992",
"+X c #9F9F99",
"@X c #A2968B",
"#X c #A1988F",
"$X c #A9978A",
"%X c #A39D93",
"&X c #A19F99",
"*X c #A99F93",
"=X c #A5A29B",
"-X c #ABA096",
";X c #A7A7A0",
":X c #B3A8A0",
/* pixels */
"  + @ @ $ @ $ @ @ +.n n n n < $ @ # + + @ @ @ @ $ $ @ @ # @ O O # @ O # # < # # O @ @ $ @ O # # O i C C M M #.O + $ @ O @ @ O   ",
". h z M n n n z +.n n B n V < n z v M n v k k n n v n z v n n v k v n n n M n n k k i k v n v i i # n n B z M } n k l z k h h + ",
"+ h V B C Z V } n z < l l l @ V M N M M n M z Z M M C M M M M z M v Z M M k N n M M V V M M M n V @ k k h A M M #.V M z u V k @ ",
"@ z u < l B } n z n z u l # | $.}  . .} ~ ~ } } } ~ } ~ } S ~ ~ } Z Z Z ~ Z } Z Z N C ~ ~ N Z Z { Z $ k k M M M n } n h < B M # ",
"+ z z h h / n z M M M z # n S A C } 9.C V C M / Z v M u u k h k h h n n n k n n B / / C A $.#.$. .} } $ k N C N z n / l l C M @ ",
"@ k M B / z z n M B z $ V $.$.S } 3.%.S A | } &. .i v N C N N Z C N N N M v h } +.>.7.>.#.*.>.0.&.3.0.&.$ z C M n l z / n Z z $ ",
"$ v M } n l B B z k $ Z { $.#.*.E.3.V A V %.>.&.} n   h k M / Z } } / Z S . n $.#.).[.(.7.3.).0.W.5.0.q.&.$ z M u B z n / A z $ ",
"# v #.n z n u u l # v Z ;.&.#.$.q.M z z E.;.*.>.{ N C O $ $ u < i < $ < . n N / 3.<.`.[.7.3.E.q. XT.F.F.1.;.$ z h B n z z #.z # ",
"O } M M N C M k $ S >.*.4.1.3.9.3.*.*.{ 9.3.#.;.#.C S < l h l C #.%.} V # n N Z ;.>.9.(.(.`.|.OX=X).R.~.'.q.$.$ l k V M z z } @ ",
"} z M M Z M k $ } ;.1.<.q.8.} 3._.*.*.#.3.3.#.#.n N / < z S +.*.&.0.*.Z $ N C ~ 7.L.<.(.|.XX|.[.XX_.XXOX'.0.>.| # l z M M k z } ",
"M B A M N z $ } &.5.3.3.[.0.9.0.0.3.&.S *.0.7.#.S N / $ S #.*.*.<.q.L.A < M C >.<.).`.`.|.|.`.OX Xq.E.[.P.L.L.>.$.$ z M z h M n ",
"M z h l k $ S Q 1.T.`.W.Q._.E.5.7.0.L.$.} 0.7.*./ C Z < @.#.q.).q.`.8.} i / C &.*.[.q.q.(.|. X.X_.L.L.8.L.7.[.).8.&.$ z h l S z ",
"N z z z $ Z $.} ;.1.0.3.9.E.1.*.W.$.$.$.} 7.7.*.} C / 1 A 3.L.(.q.>.$.&.u +.N } *.(.`.(.q.XX_..X4.3.L.L.7.W.oX#X[.0.A $ h h z z ",
"M M M $ N M $.=. .2.J.&.7.9.} q.0.} } $.$.Q.3.{ A C n < V } 7.q.>.*.$.} < / V *.<.7.q.q.7.[._..X(.). X).7.P. X[.(.0.Z z $ l z n ",
"M k < M N ~  .T.{.T.5.*. .$. .3.7./ / *.3.8.T.8./ V n $ k S $.} *.$.#.C < Z N 3.7.(.<.>.(.`.|.E.E.E.[.'.).'.'. XJ.H.M n # $ l z ",
"i $ M M  .&.8.'.W.2.E.%.E.*.%.} >.&.3.#.7.(.`.7.S m n . < $ < u < u $ $ . Z N &.7.>.V `.`.L.q.J.L.).[.).8.[.&X.X8.8.A V : V @ h ",
"# k n n  .5.1.+X{.T.0.1.*.E.C M  .0.0.3.`.E.`.%.M n O S S ~ } / Z / M k n . n 1.7.3.9.`._.0.9.E.J.).J.).q. X[.8.7.0.>.Z # n n @ ",
"+ k M n  .1.2.E.E.T.4.&.;.$.S %.3.E.W.`.#.$.J.;.{ i k N N N C Z C N C N N v i } 7.).{.|.(.3.q.W.).).).(.[._.).*.7.$.&.Z # n n # ",
"@ v M M } 0.T.q. XQ.5.} 9.3.1.q.W.5.0.9.} T.J.3. .Z Z  .&.Z S C M n Z ~ v S ;.} &.`. X=XXX).q.9.>._.E.P.0.$.L.q.7.H.7.B : n n @ ",
"@ k M M 3._..X=X=X_.0.T.&.J.&.;.q.&.q.;.2.T.W.T.&.} %.*.} V S M m n } &.} ;. . .&.Q.'.[.W.(.0.&./ E._.`.0.3.>.q.J.0.;.n $ n n O ",
"# v M M 3._.Q.+X=X_.3.3.9.1.E.} 1.} 5.Z  .2.Q.T. .{ 1. .8.C } V n n N &.0.W.R.1.4.J.5.'.`.XX`.q.3.)._.E.1.%.3.L._.L.$.M # M v + ",
"# i N M &.W.E.+X_.T.3.3.} N } C } C 1. .&.W.T.0. .} 3.&.*.M S m n i <.0.T._.T.&.9.J._.E.(._.).(.q.'.{.`.0.J.T.0. X(.%.Z # N k # ",
"@ i M n 3.9.T.[._.9. .1.C S } C C } 5. . .R.T.T.4.2.5.1.} N S B n k 1.0.4.E.1.&.>.T.Q.'.L.`.E.q.`.E.E.W.8.`.L.Q.=X_.*.Z < M k @ ",
"O v M M &.*.{.|.E.3.{ { Z } 3.L.3.T.5.2.1.T.2.3.T.T.5.2.} Z } V n n  .5.>.J.Q.1.4.J.'._.`.(.(.`.XX(.E.7.L.L.;.3.OX X8./ # M n @ ",
"@ k C M Z 3._.E.*.*.{ } S #.J.W.3. .&. .2.T.F.4.4.5.1.3.4.| } M v M  .3.1.W._.T.4.T.|.[.XX_.E.q.E.0.E.{._._.0.L.).+X3.&.$ C M # ",
"@ v n n { 1.E.Q.<.{ V } &.*.W.`.E.0.<.1. .4.T.T.1.1.5.&.;.$.Z V v k  .&.T._.W._.T.`.`.q.(.7.(.`.).9.9.0.E.L.L.L.J.`.9.{ # N n # ",
"# n M n { &.Q.9.%.{ %.<.7.*.E.).5.F.3.&.5.2.F.J.3.1.1.} *.~ V V M u %. .T. X{.E._.W.T.J.q.#.7.7.3.E.).7.H.7.8.Q.oXT.9.} @ M n # ",
"# i N n { { {.Q.%.{ { %.%.*.6.%.0.0.1.&.;.o.R.2.5.5.&.C Z ~ z z k k k {  .W.Q.E.W.J.E.J.Q.0.(.L.[.q._.9.*.|.|.).oX_.J.} # M M + ",
"# i M n V { %.*.%.%.A *.<.7.*.6.0.4.J./ 3.4.:.J.T.S S } S z z z z z k S { J.9.5._.Q.).E.R.^.{.*.q.`.Q.<.#.E.1.7.W._. .Z # M n O ",
"$ i N n M { %.%.{ %.@.%.*.L.{ S &.W.J.%.3.5.F.F.1.{ M C z k h n z z n n  .&.} 3.|.Q.Q.'._.'.*.} 9.|.E.9.*.3..X_.{.{.2.{ : M n + ",
"# i Z n V { Z { { %.%.@.q.3.Z z J.Q.3.>.>.J.F.>.;.~ } v k v n < h l N n n /  .&.E._.'..X{.4.S 4.1.=X_.#.} &.%XT.{.3.T.&.# C i # ",
"@ i V n { { { 1.7.%.#.@.7.7.} A $.5.T.E.0.8.4.&.N / n n v n j j < k n m n k } } J.'.~.%X].W.8.0.|.{.{ B { { $.T.{.$.W.&.# M v # ",
"# k N n { V <.9.*.@.@.*.$.$./ A P.).P.H.8.>.$.( / n v l m v i < 1 j x n C n m $.$.,.P.].].P.F.H.4.;.&.C 2.S 7.'.|.T.F.} # M n @ ",
"# v Z n V A A @.$.#.S *.&.>.~ / !.).).J.,.| Q +.m x x x v x : ( T : x n m m n x ( *.!.'.'.P.F.>.K.:.4.T.9.%.3.).W.9.1.3.# N n $ ",
"# k C k } %.A *.#.A S >.L.K.,.;.H.J.H.H.=.-./ c x m m m x > p b ! Q > x m T J b c ( -.S.K.( ;.,.K.;.!.R.=.&.&.>.9._.E.&.# N v $ ",
"@ k M M A  .A *.%.#.&.7.]._.W.P.3.,.4.=.] ~ c c b J b x , c ! N.:.K G > c J m c x x ( ..-.:.( | D...F.R.| $.&.| 1.'.5.$.# Z M $ ",
"# k C v S S %.1.#.8.#.'. X).H.J.D.;.:...! m x m m x a > K ] B.U.] ! ! [ > c a c m c c ( Q ! / :.O.} K.>.>.| | 4.<.5.J. .: M n # ",
"$ M k M | } &.#.S 8.#.Q.W.H.S.:.^ ( =.( b c c 4 4 a > ! ` V.Y.Y.n._ X.n.! 2 a 6 6 c c b ( b m ( n.N | ~ $.,.4.%X.XE.5.&.# N M # ",
"# n M n &.>.A >.#.H.H.Q.W.:.=./ -.J ! m D J K D a * U [ V.G.V.V.[ C.C.V.[ E 2 a a D J c c ! c ! o.| .. .( H.#X XE.E.5. .# M v # ",
"# n M M $./ / >.>.3.3.P.H.] ( T Q ( m D J K J c 2 D U ' n.n.m.W U c.b.M.' U D * a D D D c c ( J Q ~ O.| !.~.#X XW.{.5. .# { i # ",
"@ v Z M &.&.0.&.,.2.J.H.( =.6 x m J K K K H H H H d 5 f H L I f L L L e q 3 s F F I H K H K K G a i .. .K.^.@X@XOX{.1.} $ n k + ",
"# k k n &.9.3.;.P.J.8.S.=...b o b 6 J 4 5 w w F d f d f f f f g L f f d t d L d F s s s 4 4 J ] X c ....^.*X X*X'.E.>.S # M i @ ",
"@ i M n Z 1.%.| $.J.H.*.,.( J Q K 4 7 D F U L L I L L g g f g g g g g g t L P P L F L F F s c 2 R J T o.@X*X:X'.%X>.$.&.# z k @ ",
"@ v M M 9.1.} { >.S.>.,.,.Q J b > c 5 w w w w e e t e r t t g t t t t t t t e t e e e w w 7 4 c - p O.o./.$X~.^.~.J.*.&.# M k @ ",
"O n n M $./ $.>.).W.>.=.=.Q 6 % 7 5 D ) l.l.l.l.z.z.z.z.z.k.f.f.h.u.h.l.z.z.z.z.z.l.z.l.x.E s 2 a - R o.D.^.@XW.'. .&.1.: M k @ ",
"@ n M n Z } *.7.>.( ( ~ Q J b , 7 7 * l.l.l.l.l.z.z.z.z.l.g.f.p.u.h.h.k.z.z.z.z.z.z.l.l.l.x.H 7 a , T n.B.$X/.R.Q.M  .} # C v @ ",
"# v C v z $./ 3./ 8./ ( N ! > , D 7 l.l.l.l.z.z.z.z.z.z.z.g.f.p.u.u.u.g.l.z.z.z.z.z.z.l.l.x.d.4 a 6 ^ O.I.~.!.J.J.|  .{ # M k @ ",
"@ n M M #.#.( >.&.| ~ :...T > > % 7 l.l.l.z.z.z.z.z.z.z.k.z.f.f.u.y.y.u.g.z.z.z.z.z.z.l.x.u.a.2 - > ^ o.D.].@X^.>.~ } ~ # Z i # ",
"@ n V M A } *.&.| / ( ,.! J 6 > a & D l.l.l.l.l.f.p.i.u.f.f.g.p.e.w.w.e.p.j.z.l.g.h.a.a.r.t.7 & a > ` R.O.2.R.T.} Z } &.# n i j ",
"< + O v n &.8.,.>.>.>.:...T p % 7 5 2 * l.l.l.l.j.p.u.i.p.f.f.p.e.w.w.e.h.l.l.l.h.u.a.r.t.& > 4 p % o.o.| ..D...5.1.$.1.# } k k ",
"M k i { z $.*.$.>.8.P.K.:.( J 6 - a D 5 5 ; 3 9 9 q 0 0 0 0 r r r 0 0 0 0 0 9 9 9 3 3 3 2 7 s a - > ` T m ..P.R.4.} &.&.} M n n ",
"M Z M M #.~ / $.=.=.S.=.,.:.m T 4 % 7 s F F d I f f f f f f f g t y f t f t t f f F F F D e 7 % > G ^ Q ^ K.!.L. .} } } z M A z ",
"M v z n M } $.| $.,.8.B.4.J.c X ! 6 7 > 2 2 3 3 3 9 8 9 ; 8 8 8 9 8 = 8 3 = 9 9 3 3 3 * 2 > a ` X a :.,.,.F.R.Q.&.Z } n z u l l ",
"M k h A z V #.C / 3.!.F...O.6 b G G J K K H H H H d q F L L I g L L L e q 9 s F F H H K K K J J b p I.'.K.P.>.0.} } M z M k u l ",
"$ z l M V M z } / J.W.F.K.D...Q m c K R ) ' E U E U d q H I I I W v.c.W Y U U U _ H K E K J ! ] | 2.P.J.=.'.P.$.{ z k M M B z # ",
"+ $ k M Z N n z / ;.8.R.'.}.F.:.....X.] ` ` R ' [ n.R H W v.W v.c.v.v.v.b.U ) [ ' N.[ [ -.! B.B.| :.P.2./ | ( / z z n M M l $ O ",
"$ z $ z V V n h z / >.J.H.K.=.4.D.S.B...-.C.n.[ X.C.[ [ G.G.m.M.c.V.A.V.G.n.V.Y.B.C.X.X.N.X.I.].D.| ;.>.=.$.} n l V B z l $ z # ",
"$ z C $ n n h V z z / >.3.,.$.,.2.4.!...-.C.[ ! n.X.! ` o.D.n.R ) V.G./.Y.U.D.n.Z.Z.! -...S.I.].F./ | =.C #.z z n u u l # V z # ",
"@ z Z n $ k < B n z n #.3.&.| | O. .2. .( =.-...Q O.! ` O.O.` O.` ` B.Y.!.B.] :.S.( ] ..] | ,.).Q V Z | } V M N N n z $ n M k # ",
"# V C h l $ l z V N k n / Z C Q  ...} Z Q Q Q m n Q T Q Q ^ ~ Q Q Q -.=.:.( Q ( ( ~ Q ~ Q =.,.$.Q n k #.z M M C N z $ h h z z O ",
"@ z V u h n $ l M M n z n } x k v i i i i k v v v k k x v v p v x n n v n n v n v v x v v v v l k l $.N z A M V k $ M k h u k @ ",
"@ z B h z M V $ z n k < n n #.V M C Z n M n M S M V z M M Z Z C M M V M n n n n V n V M M M n n V $.N M B h l k $ V A C B B h + ",
"+ h h z z k z z $ z u l S n n / i v n v k i i k k v v M n n n n M k k v n n n n v v k v n n n z n n n N z z z $ z n z V M z h O ",
"  O + + + # # @ + $ l l z k l z # @ + @ # $ @ O @ # @ $ $ $ # $ @ @ # O @ @ @ + @ @ @ @ O # # @ # z n n n z $ @ @ $ # @ # + +   "
};
