/* XPM */
static char *result[] = {
/* columns rows colors chars-per-pixel */
"64 64 206 2 ",
"   c #261529",
".  c #28152D",
"X  c #2B1B2C",
"o  c #331D2A",
"O  c #3C1E2E",
"+  c #2D1C35",
"@  c #2C1A36",
"#  c #311F35",
"$  c #311E39",
"%  c #33232C",
"&  c #3A242D",
"*  c #2F2235",
"=  c #342434",
"-  c #3B2535",
";  c #3B2935",
":  c #352339",
">  c #3A263C",
",  c #3C293C",
"<  c #492D2E",
"1  c #53342F",
"2  c #442C33",
"3  c #42273C",
"4  c #442D3B",
"5  c #492F38",
"6  c #482B33",
"7  c #4F3137",
"8  c #45313C",
"9  c #4B323E",
"0  c #54393B",
"q  c #69453C",
"w  c #3B2642",
"e  c #3C2B42",
"r  c #3F2D48",
"t  c #362A42",
"y  c #3F3047",
"u  c #432D44",
"i  c #492D44",
"p  c #442D4A",
"a  c #4A2D4A",
"s  c #433145",
"d  c #4B3445",
"f  c #4E3845",
"g  c #45334C",
"h  c #4C344C",
"j  c #443949",
"k  c #4D394C",
"l  c #523544",
"z  c #543A44",
"x  c #5C3E42",
"c  c #52354C",
"v  c #533B4D",
"b  c #583C4F",
"n  c #432B51",
"m  c #4B2E52",
"M  c #453551",
"N  c #4C3552",
"B  c #473955",
"V  c #4D3B53",
"C  c #4D3659",
"Z  c #4E3D5A",
"A  c #523752",
"S  c #533C54",
"D  c #5A3E53",
"F  c #52355A",
"G  c #553C5B",
"H  c #593E5C",
"J  c #573C61",
"K  c #5C3E61",
"L  c #583D68",
"P  c #5C4344",
"I  c #54424C",
"U  c #5C444C",
"Y  c #4B4150",
"T  c #4F425C",
"R  c #554154",
"E  c #5B4355",
"W  c #5C4955",
"Q  c #54425C",
"!  c #5B445C",
"~  c #5D4A5C",
"^  c #57495D",
"/  c #5F505D",
"(  c #624545",
")  c #6A4640",
"_  c #62464C",
"`  c #785245",
"'  c #624554",
"]  c #654A54",
"[  c #6A4C56",
"{  c #62455B",
"}  c #634A5C",
"|  c #6A4D5C",
" . c #6C5056",
".. c #65535F",
"X. c #6A515E",
"o. c #75565E",
"O. c #76595B",
"+. c #7C5D5A",
"@. c #735757",
"#. c #554462",
"$. c #5C4562",
"%. c #574A63",
"&. c #5D4A64",
"*. c #5C456A",
"=. c #5D4D6A",
"-. c #5D5065",
";. c #5F516D",
":. c #5F5270",
">. c #624662",
",. c #634C64",
"<. c #6A4E64",
"1. c #624669",
"2. c #634D6A",
"3. c #694E6C",
"4. c #655265",
"5. c #6B5365",
"6. c #6E5865",
"7. c #64526C",
"8. c #6B546B",
"9. c #665A6E",
"0. c #6C596C",
"q. c #715665",
"w. c #745B63",
"e. c #7B5F64",
"r. c #71566A",
"t. c #725B6D",
"y. c #785F68",
"u. c #634D71",
"i. c #684F74",
"p. c #655572",
"a. c #6B5572",
"s. c #665972",
"d. c #6C5B73",
"f. c #6C557A",
"g. c #6D5D79",
"h. c #715673",
"j. c #725C73",
"k. c #735E7B",
"l. c #7A626E",
"z. c #6E6175",
"x. c #6E617A",
"c. c #736274",
"v. c #7A6374",
"b. c #7C6977",
"n. c #73637C",
"m. c #7A657C",
"M. c #756A7D",
"N. c #7C6A7D",
"B. c #896155",
"V. c #86696B",
"C. c #946E62",
"Z. c #816671",
"A. c #80697D",
"S. c #866C73",
"D. c #735E82",
"F. c #756582",
"G. c #796583",
"H. c #766A82",
"J. c #7B6C84",
"K. c #766688",
"L. c #7D6E8A",
"P. c #776788",
"I. c #7D7185",
"U. c #7E728A",
"Y. c #7F7888",
"T. c #816E84",
"R. c #826E8A",
"E. c #827286",
"W. c #807987",
"Q. c #887887",
"!. c #83748B",
"~. c #89768D",
"^. c #847A8C",
"/. c #8A7A8E",
"(. c #927D8D",
"). c #907F85",
"_. c #847592",
"`. c #867A93",
"'. c #8B7C94",
"]. c #8C7D9A",
"[. c #897793",
"{. c #917E90",
"}. c #8A808F",
"|. c #8C8294",
" X c #8E839A",
".X c #918395",
"XX c #92859B",
"oX c #948B9E",
"OX c #998D9E",
"+X c #918897",
"@X c #98909F",
"#X c #9384A1",
"$X c #9689A3",
"%X c #998DA4",
"&X c #9B8EA9",
"*X c #9789A9",
"=X c #9C93A5",
"-X c #9D91AA",
";X c #9F98A8",
":X c #A195AD",
">X c #A49AAC",
",X c #A69AB2",
"<X c #A99DB5",
"1X c #A396B1",
"2X c #A8A1AE",
"3X c #ACA2B6",
/* pixels */
"V ~ 0.t.} m.Q.Q.E.J.j.5.} h J.!.U.Y.L.x.0.4.} ] 4.P 8 f ~ W I f G =.s.d.&.&.7.=.=.^ V g r Z L D._.'._._._.1.*.$.2.&.~ 5.9.E 8 = ",
"I ~ 8.v.d.R.E.J.T.A.h.<.A.} n.^.I.L.P.L.d.0.6.0.v.X.2 I R W ~ 9.&.%.p.#.$ h 7.*.=.N $ . $ ;._.].#X$X$X].[.D.$.,.p.7.7.h.E.c.0./ ",
"W E 8.8.E.E.T.k.c.v.8.0.E.n.s.U.U.L.L.L.n.n.c.0.4.^ k W s Y %.g.x.p.*.r Q N 4.4.e : @ r P.].].].&X:X:X&X]._.1.1.8.2.,.,.~ j.M.c.",
"n.d.M.E.A.<.5.5.<.<.8.m.Q.J.s.n.I.I.L.J.M.g.7.&.,.S 0.Q g T T p.g.x.n.7.B V T e p w + u._.].].L.*X,X,X:X*X[.*.J $.$.,.7.a.j.c.J.",
"E.J.m.!.A.b.y.} <.t.h.I.E.z.=.%.H.U.U.U.P.x.$.9.#.#.F.%.p.T y #.=.n.F.g.V g T ^ ^ V Q 1.D.D.D.f.G.].&X-X&X#Xf.F 1.2.3.H L.m.L.L.",
"~.E.J.I.J.v.j.~ &.0.j.d.k.x.-.%.s.Y.`.I.H.s.2.&.*.p.U.L.:.#.*.#.p.7.7.g.$.g Z *.8.%.g.H.:.D.f.u.F.=.F.`.].D.u.1.1.D 2.,.E.T.E./.",
"~.~.U.n.0.,.~ S } d.8.4.j.p.-.%.#.I.Y.J.s.p.p.*.%.g.I.L.U.:.#.=.u.=.^ ~ Q V Q -.4.8.#.u.D.p.:.U.;.M Z u.i.f.G.R.n.v >.d./.'.'./.",
"!./.!.J.7.V V ~ ! 5.5.4.;.9.;.;.=.p.H.x.&.7.%.#.#.F.U.U.`.L.*.%.s.d.7.&.! ^ &.5.9.8.M B #.u.U.U.Q t B $.g._._.[.R.A ,.m..XXX{./.",
"Q./.Q.n.L.].`.k.Q A ~ S Q -.7.4.;.#.M.^ ,.=.T #.p.L.U.U.U.U.p.p.a.p.s.d.7.,.Q k N u h e f.U.U.U.g : #.V 7.L.[.].~.A ,.T.{..X.X{.",
"E.'.Q.4.H.U.].`.d.u u u Y ;.&.^ R k y V =.4.Z T f.L.U.!.U.U.x.p.p.n.n.k.8.8.!   .   N %.U.U.U.Y.y V =.V ! n.]. X{.1.r.k.j.h.k.v.",
"q.4.y.| T T R ^ V g k ^ ^ h ; X . .   ! ,.%.-.*.F.H.L.U.U.L.J.7.p.n.H.k.d.,.8.G = , &.I.!.U.U.!.Q M.|.7.G s._.!.[.3.j.r.r.r.r.5.",
"q.X.X.} d > e s g V S Q >.{ - , *.G k 1.2.,.9.7.I.L.P.L.U.U.J.x.a.d.J.k.h.4.8.5.R S 6.I.Y.`. Xz.!.;X%X.XZ 2.E.].].T.r.<.r.5.5.5.",
"[ ' E E D a a i k k v D ~ { k F $.$.$.! 8.8.7.s.P.U._.U.U.L.H.L.7.g.H.k.k.5.5.t.,.R ~ J.~. XN.}.2X>X@XQ.$.^ g.!.~.T.j.h.r.E } <.",
"v E A c c a a a i 4 u i c A b F 1.3.p A 7.a.9.g.H.I.L.I.U.L.M.J.n.p.n.8.k.j.,.t.t.R Q I.}.c.|.2X>X=X+XN.2.Q 2.j.h.p.2.a.3.6.r.[ ",
"D c v 4 a i c c a 8.d.k d N N ! S E A k ! t.d.M.Y.!.P.J.n.x.7.-.7.! >.5.t.k.6.5.5.,.} Y.c.|.2X2X=X X}.x.,.G ! 8.*.! G #.3.r.3.5.",
"h N D A h v c a h $.~./.j.A G ~ F k h N 8.2.1.&.^ ^ ^ %.2.9.7.$.C F ~ >.,.5.,.5.2.6.5.0.+X>X;X%X|.`.!.7.%.! N 1.,.#.F N &.<.>.} ",
"! a.*.! { S D v k p !.'. X[.8.&.! A h 2.2.$.,.! #.x.I.Y.|. XY.x.a.$.F ! ! >.h.t.d.] ..^.;X>X=X XY.U./.7.1.{ c k ,.1.Q #.3.5.{ { ",
"A a.h.7.8.,.D D S h d._.'.`.J.c.~ s V ,.$.&.Q Q B H.U.`. X=XoXJ.n.M.I.c.~ 2.6.n.n.W 0.}.+X XY.Y.H.U.(.&.>.| [ H ~ 7.0.h.<.,.} A ",
"a h.m.8.~ >.S k g g B =.;.p.-.-.u - ! &.&.$.V Z #.I.Y.`. X%X;X|.Y.P.I.I.!.M.5.0.t.4.8.z.}.Y.H.H.I.I.m.$.H | } } 5.t.8.j.8.8.<.c ",
"H ! a.,.V s p &.;.s.H.H.J.I.J.c.# X g ! $.Q ^ C =.I.I.I.`.$X;X=X^.H.J.J.I.J.k } 4.~ -.-.z.H.M.I.L.!.n.$.{ | o.o.r.h.a.a.h.5.<.D ",
"! H E A g : B I.U.U.K.U.H.H.W.&.# # u S ! &.Q N z.I.J.H.U. X=X=X XJ.M.J.J.^ b ~ ..v W } 9.c.M.I.I.^.z.~ ~ <.X.5.r.j.r.>.a.5.3.D ",
"~ } >.D E u #.I.U.U.Y.U.H.L.I.T + = s v S &.%.G I.I.n.H.I./.+X%X@XI.M.M.0.R ~ 6.5.d d z 6.c.0.Y.U.}.c.4.-.|  .o.r.1.7 l >.2.,.' ",
"A { ! H { g =.~.|.|.U.U.H.H.I.B . = h c c ^ &.^ &.R R s.H.!.}.+XoXY.M.M.j E 5.t.y.v d k j 0.9.R 4.M./ ,.} e.+. .8.5.' D H $.j.q.",
"F $.1.J G g x.|.#X*X XY.U.I.I.y @ > c u k k S ! z.z.d.z.J.^./.}.|.}.c.~ s E d.v.S E d I U } 9.9.9.0.b.c.5.V.C.+.} >.l l l m.2.D ",
"F J *.J C w p. X%X=X#X X`.Y.I.> + e V g d s e %.Y.^.M.M.z.x.d.4.6.4.W d f E t.} b i U E { &.8.~ ,.~  .[ 5.c.V.V.O.d N A S S F A ",
"F H *.1.C t g.g. X=X=X$X X^.I.+ : : k S f y j 9.Y.Y.H.x.z.x.n.9.&./ / / W } 5.c h d p D 4.} 8.0.s.8.v.l.6.b.S.l.@.9 s p g A V S ",
"F H *.f.F.#.s.p.x.Y. X%XoX+XM.: = > g <.j y t M.I.Y.Y.x.z.d.x.M.J.I.M.0.& E v c d H $.H ,.~ Q j.~.`.Q./.6.~ B.` q _ > V 2.1.! S ",
"c v.].$X`.7.s.p.=.:.H.^. X|.c.t : : : ~ s j B N.I.U.Y.I.n.n.n.J.I.W.M.Y = f R ~ ~ ! >.>.5.} d ~ `._./.c.R E | | z 9 ; k 2.1.G w ",
"'.].#X*X_.p.:.:.=.%.:.x.M.U.9.e : : u S s k -.Y.Y.Y.Y.I.M.I.I.Y.Q.W.9.^ f % 0.0.&.h.,.{ 5.,.E ~ ! G.a.! 8.6.k.0.5.k 8 f ,.$.F 7.",
"u.L.].#Xk.#.7.;.:.%.:.s.s.g.Q $ : * h H k u ;.Y.^.Y.I.n.9.M.I.I.I.^.R S 5.E c.N.5.j.5.>.<.{ ' D D } m.a.,.! v c 9 ; 8 ; E &.! G ",
"C G 2.g.V Q =.;.=.=.:.:.;.Q g y # : s.F.~ e : * * > : , % X Y M.^.M.k E 5.t.N.E.v.v.j.<.{ R { b D _ ,.,.>.W ( P f 5 % j ~ } ! $.",
"$.&.=.p.&.2.7.=.=.:.:.=.T Z M y Q n.R.R.k.S s y y j V V j ; % j z.9.R 5.5.0.E.L.R.A.j.5.[ R 6.b b E r.5.4.] ] I P z d W W ^ E S ",
"%.s.d.a.,.#.7.-.=.%.C g M Z J f.K.L.L._.R.,.$.*.4.! ^ 5.0.W s = Y ~ 0.t.,.M.E.Q.E.A.j.5.<.b { ' c | 0.5.5.X.] } ..U 8 f / ^ I I ",
"=.=.g.#.# h 7.&.=.N : @ t a.].[.]._._._.[.k.$.>.#.$.,.j.N.c.0.] I W 5.m.t.E.T.T.T.J.t.<.E.5.E } W ..6.5.X.6.6.t.M.O.5 I W k 4.8.",
"x.p.Q M 2.S 7.4., * @ n `.&X&X*X*X#X#X].]._.3.L 2.$.,.,.~ t.N.c.} W 0.t.E.E.L.j.c.v.8.8.Q.E.| 6.5.} 6.t.l.l.l.b.l.l.0 I y #.;.x.",
"g.g.g.U.U.$.G : t : @ i.].-X<X1X<X<X1X*X*X].L F >.$.,.4.0.d.k.T.N.n.J.Q.T.3.6.5.<.5.8.J./.~.t.6.0.4.l.v.b.6.X.| ] W 2 , s T %.s.",
"=.F.U.'.`.#.#.&.V u $.*.D._.].&X,X<X3X<X1X*Xk.J *.2.<.! T.m.T.E.^.L.G.Q.T.b.t.| <.t.d.T.~.J.! 5.t.6.v.Z.O.( x I v 4 X > Y T M #.",
"p.p.D.U._.x.P.L.i.2.].!.f.G._._.].].*X1X&X_.f.3.>.D 2.2.R.T.A./.'.~.E.E.b.m.v.! >.d.j.0.T.!.6.' q.r.Z.O.( ( 0 z f 8 2 d ^ G #.#.",
"u.=.=.p.f.L.L.U.k.i.k.K._.D.K.L._._.]._.D.D.G.R.m.A $.a./.Q.Q./.|..X'.J.m.j.t.} ,.t.8.7.R.Q.^.} D { [ ` q q 1 9 8 ; y j 9.=.Q =.",
"s.d.=.7.u.;.D._.G.1.k.K.K.K.K.L.R.R.K.D._.[._.[.R.A ,.m./.[.!.Q.{..X'.L.5.t.| | 5.h.6.h.Q././.T.' D ' x < & % & I z.x.s.d.n.=.*.",
"a.p.7.*.*.7.p.i.2.*.i.L.K.K.K.L.L.R.R._.[.[.].[.~.D 1.T./.~.[.(..X.X/.v.5.5._ ' <.k.v.N.(.(.Q.m.} D } b % o ; % ..M.H.H.L.U.p.p.",
"p.n.a.,.2.a.p.a.g.2.1.D.K.K.K.L.G.D.G.T.R._.].XX].1.r.j.h.r.r.k.E..X^.6.5.D b D D t.N.J.j.r.6.8.{ ' v v % ; ; ; / I.P.I.I.U.x.p.",
"p.F.n.a.G.'.].[.R.*.3.f.R.L.H.L.u.K R.R.Q.`.[._.[.3.h.r.r.5.r.5.6.4.y.q.{ c v E E } t.<.o.<.<.{ D h ! c ; 4 = , ^ M.H.U.I.L.L.;.",
"a.g.J.a.3.D.].].!.G h.8.k.L.R.2.F H p.Q.!.[.'.].{.T.t.5.r.5.5.<.5.| | [ A c D ' E ' } [ | | { { D c D D l 9 4 u ^ J.J.I.U.I.L.x.",
"2.d.J.k.k.1.L f.R.h.6.8.S a.2.8.n.8.*.G.!.~.'.'.[.R.A.t.t.' { <.[ ' E E c i c a c c E _ [ D { { H D c F z 1 i 4 ^ L.!.Y.U.L.P.I.",
"n.9.k.8.k.r.>.2.a.5.r.J.j.H 8.M.P.L.h.p.T.]..X{.T.T.T.T.y.t.r.| v E S c c i a p a s a d b A A S | { i E z 5 d i ~ n.J.J.L.L.H.L.",
"7.! ,.8.h.h.5.8.5.j.k.k.G.>.G n.m.!._.~.G.D.M.k.D.R.E.Q.A.j.3.q.D c c 4 a a A A c j.b.~ D S S $.D R l b d a d 4 d 8.M.J.M.d.-.&.",
"A G ! >.>.,.,.3.<.<.<.h.,.8.G 2.g.L.~.~.R.R.G.D.G.Q.]./.T.r.} >.c m F b c D ~ ! ^ d.XX=XT.! G >.R D 3 , A h 4 3 - d Q $.&.,.Q N ",
"2.$.Q ! H { ,.<.,.D } l $.*.*.>.G.R.L.R.R.L.R.R.G.Q.XX~.k.r.} { $.a.$.H ~ ~ =.-.4.;..X>X,X%Xj.2.} S u F ! S 3 O O S k.J.E.U.a.%.",
",.a.M.d.2.5.r.h.r.| D 5.,.F C J 3.k.h.k.G.a.k.k.T.T.J.m.r.5.| A A a.a.8.,.-.%.%.^ S N.>X3X>X.XQ.8.A k } ! ! i z ' 5.2.M.!.U.H.7.",
"a.7.a.k.m.m.A.k.h.,.E 3.>.m n F F 1.k.k.k.j.h.m.M.v.8.k.8.3.<.c a d.m.3.~ ^ B e t p 7.%X3X>X$X[.c.s ! &.>.Q h t.A.J.a.n.L.U.Y.g.",
"s.d.8.<.>.3.r.r.,.>.S ,.1.J p F K >.1.3.a.k.k.j.j.h.h.r.a.r.} D H $.d.8.! e e =.;.d.a..X&X%XXX[.a.> h &.&.Q ! 2.j.E.m.n.P.U.!.J.",
"x.9.d.,.S ! { D Q m h F 3.1.m F 1.1.3.1.{ 1.a.h.h.j.r.$.a.r.<.D ! { ,.} E > B I.Y.P.0.F.].'.`.E.8.g u A ! ! ! V c.J.P.x.M.Y.Y.J.",
"J.7.z.>.2.<.A a p r n *.$.3.H A K 3.8.2.1.>.,.n.h.1.7 l >.2.,.' } <.3.{ E , #.H.U.J.d.,.Q.E.L.L.4.h d l V 2.$.Z J.Y.H.x.P.!.U.I.",
"Y.c.z.g.! D.{ a m N C K 3.3.>.{ ! ,.~ ,.,.<.$.,.<.<.' D H $.j.q.A >.{ { >.: %.U.Y.J.d.8.t.A.J.8.k l i u d ! &.Q &.R R a.F.L.E.Y.",
"!.Y.z.4.p.3.a u N N #.a.G._.R.8.>.,.v.j.5.q.| <.>.! l l l m.,.H H K K K #.+ s.L.U.H.8.>.,.0.,.S i u i p k k S &.z.c.d.c.M.^.W.!.",
"5.} W S 2.G a 7.E.&X:X%XXX X].R.8.! | X.5.8.y.r.} S A A S F S A F F L K C @ -.L.I.x.7.~ E ~ ~ W 5 3 i u h j t -.}.|.I.M.x.x.9.%.",
"%...^ ~ F m F.*X&X>X,X>X-X%XXX~.M.2.j.e.5.c.v.O.[ d g u h S V S F J *.u.C @ :.%.D.n.a.4.! E S k 4 3 > A N j y z.|.|.Y.x.z.g.x.0.",
"J.H.n.7.G a w Z U.-X1X,X>X-XXX].G.8.c.b.,.^ B.` q ( = y G Q ! F F H *.g.#.e p.*.*.=.a.~ S ! S k G ! a u e V e M.^.}.Y.M.z.d.n.F.",
"Y.Y.j.w H u p p C a.].-X:X-X#X].g.G $.1.S E X.[ z d ; y ~ $.F w c b.].!.Z y p.:.#.#.&.S E A V ,.a.a.&.8.h R Y H.Y.Y.U.I.n.n.n.J.",
"I.x.7.a.! u F } E ! H h.].$XXX].1.G G F ,.0.j.0.5.v 8 8 k V A 8.`. X].^.B g =.:.p.#.$.Q Q S N $.1.p.D.1.S h =.Y.Y.I.U.J.M.I.I.Y.",
"N.c.;.-.,.D 0.m.,.3.1.! *.7.L.g.G a a #.2.! b k 9 ; 8 = z R R Q u.d.P.`.g B ;.:.p.=.=.! $.~ N p h A 2.h.~ e 7.Y.W.I.J.n.9.M.H.N.",
"Y.M.k ^ ,.6.N.I.m.k.r.>.K H G F m u M ,.,.E ( P z 8 = j W W E ! C *.=.p.u G =.;.:.=.7.%.$.T N g w u k.T.~ u = + : > e e % X Y M.",
"z.5.R 5.6.t.J.T.E.v.k.<.! S A m p w *.h.5.] ] I P 0 f I E W R G Q %.=.9.&.=.7.=.-.;.*.*.T V M p Q F.G.R.n.S y s e N Y k j ; % Y "
};
