/* XPM */
static char *result[] = {
/* columns rows colors chars-per-pixel */
"64 64 143 2 ",
"   c #2F2016",
".  c #2F2218",
"X  c #342317",
"o  c #34251A",
"O  c #39261D",
"+  c #37291C",
"@  c #3A2A1E",
"#  c #242120",
"$  c #282525",
"%  c #2C2927",
"&  c #2E2C2A",
"*  c #3D2D21",
"=  c #312E29",
"-  c #3E3021",
";  c #353331",
":  c #393632",
">  c #3D3B35",
",  c #3E3C39",
"<  c #412E21",
"1  c #443425",
"2  c #483627",
"3  c #473827",
"4  c #483827",
"5  c #473728",
"6  c #493729",
"7  c #463929",
"8  c #4C3B2B",
"9  c #523E2D",
"0  c #413C37",
"q  c #4F3E31",
"w  c #423E3B",
"e  c #533F30",
"r  c #4F402E",
"t  c #53412E",
"y  c #5B442F",
"u  c #45413D",
"i  c #49423C",
"p  c #554331",
"a  c #5A4633",
"s  c #574834",
"d  c #5C4935",
"f  c #5E4C39",
"g  c #614B36",
"h  c #624E39",
"j  c #694F3A",
"k  c #65513C",
"l  c #6A533D",
"z  c #70563F",
"x  c #464441",
"c  c #494542",
"v  c #4D4A45",
"b  c #4E4B49",
"n  c #524D46",
"m  c #524E4B",
"M  c #55524D",
"N  c #58534E",
"B  c #5C584F",
"V  c #565351",
"C  c #5B5652",
"Z  c #5D5953",
"A  c #5F5D5B",
"S  c #655340",
"D  c #6D5640",
"F  c #6E5942",
"G  c #715741",
"H  c #745B43",
"J  c #795F46",
"K  c #7B5F48",
"L  c #615B55",
"P  c #645E59",
"I  c #776047",
"U  c #7B6146",
"Y  c #73614A",
"T  c #7D6449",
"R  c #656157",
"E  c #65615A",
"W  c #6A655E",
"Q  c #6D6661",
"!  c #6E6963",
"~  c #716762",
"^  c #726C65",
"/  c #756E69",
"(  c #76726A",
")  c #7C746C",
"_  c #7E7670",
"`  c #7E7B71",
"'  c #816447",
"]  c #81654B",
"[  c #856A4E",
"{  c #886B4F",
"}  c #866C50",
"|  c #8A6E52",
" . c #8D7154",
".. c #917356",
"X. c #937659",
"o. c #82766E",
"O. c #857C6E",
"+. c #837B73",
"@. c #887F74",
"#. c #857F79",
"$. c #848076",
"%. c #8A8175",
"&. c #87837A",
"*. c #8C847B",
"=. c #8D8A7E",
"-. c #90877C",
";. c #938B7E",
":. c #8F8780",
">. c #8D8A82",
",. c #938D83",
"<. c #988F81",
"1. c #958E88",
"2. c #969183",
"3. c #9A9486",
"4. c #96938A",
"5. c #99958C",
"6. c #9E9A8C",
"7. c #9B9691",
"8. c #9D9A92",
"9. c #A29E8F",
"0. c #A19D93",
"q. c #A39F9B",
"w. c #A4A295",
"e. c #A5A39A",
"r. c #A8A69C",
"t. c #AAA99E",
"y. c #A7A4A1",
"u. c #A9A6A2",
"i. c #ACAAA3",
"p. c #AEACAA",
"a. c #B0AFA6",
"s. c #B1AEAB",
"d. c #B2B1A7",
"f. c #B5B3AE",
"g. c #B6B4B1",
"h. c #B9B6B3",
"j. c #BBBAB6",
"k. c #BDBCB9",
"l. c #C0BEBB",
"z. c #C2C0BE",
"x. c #C5C4C1",
"c. c #C9C5C4",
"v. c #CBC9C6",
/* pixels */
"d 7 8 6 s p t f t t h s k H F z g 4 O j l l I z z I f d U U Y I z z z k F J l I U H J I H 7 t d F l l j l f o t h t t s 3 2 8 8 ",
"k 7 8 8 f t t f p d l d d l l l g 7 o l J K ] I z I k y U U I H U z z d s H H I H U J J T 9 f k F l j l k d   t d t r d 4 1 4 8 ",
"l 8 6 7 f p d g t k l k d l l l d 6 * l H T T I z T k t Y z U T H H l s h H H H U J J K H t g l k z j l H d o 9 f d s d 1 8 1 8 ",
"F 9 9 1 d p a g t d k k d F l k g 7 @ l J T ] J l U h f I I U I U Y l t a H H J J H T ] J y g H k l z z F d + 9 k t t f t 8 4 t ",
"M M M ! ( ^ R o.4.0.r.w.r.t.f.f.h.s.k.h.i.f.h.h.a.j.j.l.v.z.v.x.z.z.k.z.k.p.g.j.h.k.j.j.h.g.h.p.i.e.t.t.r.r.q.0.>.&.$.Q E W W ( ",
"C v M M C R C C ) %.;.%.;.=.t.t.i.i.i.u.w.t.f.f.g.s.f.j.j.k.k.f.f.k.f.j.g.p.f.j.f.g.i.p.i.i.f.%.3.$.$.%.w.;.@.*.Q R A R W M Q E ",
"v u V Z v P Z ! ) *.;.;.9.9.9.a.p.r.i.e.w.e.w.e.t.i.f.k.z.f.g.f.j.k.s.l.g.f.g.g.w.0.s.g.e.g.f.w.;.%.;.3.9.8.%.#.! ^ C v M M A A ",
"c c v c : Z Z E ( %.;.N B 9.9.t.i.w.p.s.s.e.C W 0.i.i.h.h.j.f.( +.z.g.l.h.p.g.i.L W i.f.g.s.j.f.w.B N t.w.6.*.&.+./ x x ! M A V ",
"x , M u , C M Z Q 4.2.v v w.w.t.d.e.d.p.i.5.b / -.i.r.f.s.x.x.Z N z.f.j.g.r.d.r.N N t.r.t.d.g.p.e.m M 8.8.+.7.>.+.^ x u Q b b C ",
"c x b c : M M W ^ =.-.^ u e.t.i.e.t.r.u.p.5.V V 6.t.t.i.g.x.l.` W j.h.h.f.s.h.p./ P u.u.w.f.i.5.e.x / 3.+.5.5.5.#.^ Z > b V b V ",
"x w b M P E v Z ( =.%.$.&.5.0.w.6.e.6.8.8.7.8.:.8.w.6.g.j.x.x.k.l.f.s.e.s.w.a.u.p.5.u.e.3.8.3.$.+.+.w.( 4.5.6.>.+.! ! L V C b V ",
"# $ $ ; > : % : : , > , : u i w w u , 0 x x c w u W w v R ` R R B L M n n n v x v u v V i , : : > u 0 0 : u , > , u : : > ; ; & ",
"7 O @ - @ - - 3 1 7 8 < * 9 8 8 7 * X r d t t t p s 8 8 d k k f g d t 3 3 t p p r r s t s - 1 8 8 3 8 r 3 8 . * 3 * @ @ * * * : ",
"i 1 - 1 - @ 1 r 2 t t 8 5 p a p t 3 o d F f k k l l p r d F Y F l k k 8 p f k f k k k d h 7 8 t t s s t 9 p . 1 8 8 3 - - 7 1 3 ",
"d 5 1 5 - 1 r r 8 d k 9 4 g a d t 3 + F T F H F T H s r l H T H H k k t p H F F D H Y k F 8 s f d d h s a d + 1 r t 4 5 3 3 5 8 ",
"f 6 7 5 3 2 t t t h k d t g d f d r + H  .T T [ [ U f 9 H T ] U J l H t t I F J I T U J I t t l h k k g d d   3 t p 7 5 5 8 4 8 ",
"f 5 8 9 4 6 a t 8 l l z r g g h h t * H | T ] } { [ h t H J  .[ J F J f a H J T [ ' { ] ] t f J k k l k a j X 5 d d 7 8 9 9 2 8 ",
"S 3 7 t 8 8 g d d I l z t d j h d s * H | K { | | | d t J ]  .{ U l J h f H H J ' [ { [ ] t f T k k l g p l o q p f 8 8 8 4 5 p ",
"S 7 r 7 8 t a d s Y l F s j h h k t + G [ H } [ [ [ g 9 H T  . .[ l H d d H I J [ [ [ I T p d T l k l g d l + 8 f d t 8 8 7 t p ",
"F 8 8 3 8 d d a s F l F t k h h l a @ H ] J [  .[ [ d 9 l H ' { T H D a f G T J T [ T J H a d J F l z d f k X r d p t 8 8 5 8 d ",
"F t 6 4 p s d d f l k l 9 k j j l p O j T K } | [ T d 8 z z [  .} U z r d I T T T ] T z H 9 a J l F H a j l * 8 d f d 8 6 5 9 d ",
"F t 4 8 t d d d l k k k 9 k l d D t * l T K [ } { U d t l Y } } } H z t d U T J J ' J z H t 9 l F k D t l h * d d g t 9 4 6 7 p ",
"F r 6 8 t a a a z f g k d j l f D d @ l T T T } { [ d 9 l I [  . .I k t a T U z ' ' J I J 9 t l k l I a l h O f g d t 8 8 5 9 d ",
"F r 5 8 r d p d k d g l d l h f H 9 * l I T T [ [ U a 8 j I }  .{ z l 8 a T H J T ' U J H 4 8 l l k F a H S * f y h p e 8 6 8 d ",
"L p 4 t 9 a d d l f d k d l k j J 8 * l T T T } } T a 6 H I [ } [ I l t d I z z T ] z I U 5 9 z l k l a J h O a s d y t r 1 t d ",
"l s 3 p r f h t k p h l a j S k H 9 < l T ] T T [ T h 8 F U [ T U Y l r p I I U U U U U U 3 t l l k l t F l @ a d h t r 8 1 t s ",
"l t 8 t 3 s d d d s d l f l h l J p * l J T J ] T K d 8 F T T [ U I l t h l z U U ] T U U 3 t l l h l s D F * a s h s t 7 1 8 d ",
"k t 7 r t d d p f t d l h l h l J t @ G ] T K K T J f 8 T T [ [ ' H z a g I T U U [ J T ] * 9 l k h h a l l @ p s y t r 9 1 q d ",
"k s 1 9 8 t a d d 5 y l g l h l G 8 * G ] [ [ T K H a p U T T  .T H D d f I I ' ' ] J [ | 1 9 g k d d 9 H d + 9 t d t t 9 1 9 p ",
"S s 7 9 9 t t d p 5 d l k l j k G 9 * D ] T ] H J J h a T ] [ { J J H s k z U ] T T H T } < y l g t j d z d o t t t 8 t 9 5 t p ",
"S t 7 8 9 9 9 d d 6 f j l S g l D e * G T T [ H K D a a J T } { T l l k l z I ' T ] J T | - d j g t g a l d X 9 9 t 4 9 8 1 t d ",
"F t 7 p t t 8 a h 7 l l k f h g G p * G T J [ K J D h a U T | | T z D d g H J U U [ J } | 1 g l g t d d F a o p p t 8 9 7 * t f ",
"Y 9 6 t 6 9 9 d h 9 S D S d j D z 8 @ H ] T ] H T D j a K T | [ U z z d l T F U T T J ] ..2 h H d 8 a j k d + 9 9 9 8 9 4 1 t f ",
"S 9 1 8 < 9 9 9 j e j j h f j j l e < z T T ] U H l f d T T [ | T H l p s H F T T ] J ]  .4 a H d t d g j t X t 8 t 8 1 1 @ 4 t ",
"S 8 < 8 1 9 9 a l a S G S a g G l 9 1 l ] T ] U J j d a T H T { ] z z t g H H T T ' T [ | 9 h H y 9 d g g d X p t t 6 1 8 < 8 7 ",
"k r < 7 < 6 p p l p j F j f g D l e @ z T ] U T H l h d T U ] [ [ I z t d H H H T ' J ' | 9 d H a 9 t g a p X t t t 6 1 t @ 8 9 ",
"N 8 - 2 8 7 a d k t k l h g f G j 9 @ z J J U T H j g 9 T T ] | [ T J p g J z T K ' K ] | e f F d 9 a g a d + e d 9 q 8 8 < 7 9 ",
"h 2 - 4 p t t p S 8 l D g S a D j a 1 l J J U z l D h e ] ] ] } ] T J p d U J U z K ' [ ] 1 a G a 9 y d y a O a d 9 8 p 7 6 8 e ",
"l 8 2 2 p t 8 d d t j F l g t l g a * z T J J G G l k 7 T | } [ [ T J s j T T ' ' T ] { K 8 d D y d a a d a O p a 5 t 9 1 1 4 p ",
"s 8 < @ 8 8 6 p s d l G l j a l l a < H U H H H l l h 8 T | U [ [ U J 8 l ] J J ] K ] } T 8 p H a g 9 g d a @ 8 a 6 4 8 @ 1 7 8 ",
"s r 1 O 6 8 * d t g d H F D y l l d < H J H U H D l a 6 T [ J ] { U H 9 j ] K H J } ] ] ] 9 p G g j 9 j k j o 6 d 1 6 5 * 1 1 p ",
"f 3 - * 7 6 < a t a h G D h e l H a * J J z ' I H l k 6 U ] J [ { F l 9 g K H H K ] T ] ' 4 e G g j 9 d k g o 8 s < 6 6 * @ 1 p ",
"k - - * 6 6 1 e a t g l l d s D l d < z H H [ U G l d 8 T } J T { l l 8 S [ G H K ] | | U 2 9 z j h 9 d l a + p p 1 6 8 - - 1 8 ",
"S 5 - q 9 6 1 p d 8 F l j a 8 D H d < H H l [ U H j g 9 T [ T T { l k a S } G H J K }  .J 1 9 j f g 9 a J d O p 9 1 e 9 5 - 1 q ",
"S 6 1 1 9 6 1 y a 8 l H l f t U U g 6 z z z { U z l g 9 ] { U T { l l a l T D H J '  . .T 1 8 j l l 9 g z d @ 9 9 < p 9 7 7 6 e ",
"l 7 5 5 8 8 6 a 9 1 l l l h a U z g < z J J  .' I l h 8 ] { T [  .H l p l ] D H T ' ....T < 2 l l l p D J d @ 2 t < 8 8 6 6 7 9 ",
"S 8 6 5 8 p 6 y 6 6 l J G F d U T d 1 J J J | ] T l h t [  .T [  .z l d l T H J ' K { | T * 6 h D G a H T l O 6 g < e 8 7 8 1 9 ",
"h 7 4 4 8 t 7 d t 7 a J H k f I z g 1 ' I H [ ] U l h s T  .T [  .F l a S ] D T ' U { X.] 5 6 a l G d l H a O 9 d 8 8 9 9 4 5 8 ",
"h 1 6 6 8 t t t j p g G J g k k g t 1 T H j ] { H H j a } } T T ..G D a l ' J T ] { ..X.' 6 2 a l j g l D 9 X p f 8 6 8 6 6 1 9 ",
"s 1 < 6 1 9 t t F f a k G d l g g a 2 ' z g { { ' H l a  . .T T } H D a l { H K ' [ { ..{ 9 2 9 l l l l l 9 * d a 9 8 8 6 6 6 9 ",
"p 1 1 6 6 6 t t k f d k j t j k h 9 4 ' H j ] ] T K l d {  .T T ] T G a F ] H K ] T | ..[ 6 9 y j g j l D p o t a 9 8 2 2 4 5 5 ",
"S 5 1 q 6 8 9 9 a k f y g 9 l l j a 1 [ J j K [ ' T D d } | T T T J H s D ] H H z T | ..] 9 9 d d d h D H d @ 9 p e 7 5 1 8 7 8 ",
"m C M Q ( ^ P ) 5.q.e.w.e.r.h.g.f.s.h.f.i.g.h.f.p.h.g.z.c.x.v.x.z.c.j.l.l.u.j.l.k.j.l.h.g.h.g.p.u.i.f.i.u.w.q.8.4.&.` ! W ! W / ",
"B v B M Z Z L E ) @.-.%.<.@.r.r.s.t.i.u.w.t.s.f.f.s.p.h.l.j.k.p.h.j.s.g.h.a.s.h.g.s.i.d.s.p.p.-.6.) O.%.6.;.@.-.~ P P E P M E E ",
"v u M C v C Z ~ ) @.-.;.w.;.9.t.f.r.e.r.w.e.t.r.e.r.f.f.l.h.g.g.j.l.s.h.f.s.d.h.w.0.s.f.r.d.g.e.-.O.;.;.w.8.%.#.~ / Z v A C E A ",
"v u v c : N Z P / *.2.L n 9.r.a.g.e.f.s.d.q.L W 0.i.f.h.j.h.g.! o.l.h.l.l.a.f.i.R W u.s.s.f.j.f.9.M B t.e.5.@.:.) ^ v x ! b A C ",
"x , v w , Z M Z ^ ,.4.v n w.9.t.i.w.f.g.u.5.v ! -.i.r.f.g.z.x.C N k.s.l.h.r.u.r.M Z e.i.e.p.f.s.r.v b e.8.) 5.>.&./ c 0 Q M b C ",
"x v b b : V M R ( ;.,.^ x i.t.i.r.u.r.i.p.5.V M 5.r.r.i.g.v.x.` ~ g.j.h.f.p.h.s.` R i.y.e.a.i.0.8.u ^ ,.+.q.4.4.+./ C , V V b V ",
"x x x M P Q n Z ) =.%.$.&.6.8.8.0.6.0.6.u.8.8.&.0.w.0.f.j.x.x.j.l.s.f.t.u.0.f.u.p.4.i.w.,.0.5.+.+.) 0.) 4.5.q.=.&.^ ^ Z V V b V ",
"% $ & & , ; : ; : : , : u u i u 0 u u , x x v , c E i v C ) R ! C C n M M n v x b v x M x : : : , u u 0 > u x > w > > , ; : = & ",
"7 * . * * + 1 - @ o - 5 6 1 t t r 3 X t t 2 8 8 r t 1 3 d d k s f s 8 5 9 9 4 4 r 8 t 8 7 X 7 8 7 8 1 4 t t X + - * + + * % @ 1 ",
"p * + % @ 5 5 1 @ o 4 t t 9 s d d r + d t 8 d t f h 8 8 k k l l l d a q t a p t y a k f f * r p d t 8 t d a * + 7 8 @ @ * * 1 7 ",
"f 1 @ < < 6 9 6 1 + d t p d f l k s - k g y k h l l 9 t l F H z j k d p d l a d g j F l k < p l f d t k l k * < 8 8 7 1 o 1 6 6 ",
"k 6 4 @ 1 9 a 9 6 1 k g f d k z H y < z j d H k z G t t H U H k H k p f F H d j l l J J F * d l l j y j z l * < 9 t 7 5 @ 6 6 9 "
};
