/* XPM */
static char *result[] = {
/* columns rows colors chars-per-pixel */
"16 16 49 1 ",
"  c #372A17",
". c #382B18",
"X c #392C19",
"o c #3A2D1A",
"O c #3B2E1B",
"+ c #3C2F1C",
"@ c #3D301D",
"# c #3E311E",
"$ c #3F321F",
"% c #403320",
"& c #413421",
"* c #423522",
"= c #433623",
"- c #453825",
"; c #463926",
": c #4C3D26",
"> c #59472C",
", c #5E4B2F",
"< c #624D2C",
"1 c #634E2D",
"2 c #644F2E",
"3 c #65502F",
"4 c #665130",
"5 c #675231",
"6 c #685332",
"7 c #695433",
"8 c #6A5534",
"9 c #6B5635",
"0 c #6C5736",
"q c #6D5837",
"w c #6E5938",
"e c #6F5A39",
"r c #705B3A",
"t c #7C623E",
"y c #8F6F40",
"u c #917142",
"i c #927243",
"p c #937344",
"a c #947445",
"s c #957546",
"d c #967647",
"f c #977748",
"g c #987849",
"h c #99794A",
"j c #9A7A4B",
"k c #9B7B4C",
"l c #9C7C4D",
"z c #9D7D4E",
"x c #9F7F50",
/* pixels */
";70k@qs&465tqt7l",
"$3e.$g&4h@6j:t:s",
"o,2&6h#5g+5t:t:h",
"q-1%tt#6g+6g@l*t",
"8&05tt05w*8j@j+t",
"0,04j6489@7y#t%5",
"6t:0f<6+u+t> t#w",
"9j#9k@j&hot:4t$w",
"7h$ra&7%7*p+09$t",
"7l;5qa*88Xs*9s&t",
"-t%85do2#,x%8k=s",
"#t$5ej*j.,z@0f+k",
"OjX49j.8$3f+8<%g",
"&q,06t:wq15@8alo",
"o5f%9t:#i6gO3t@5",
",6t#276%705 573t"
};
