/* XPM */
static char *result[] = {
/* columns rows colors chars-per-pixel */
"16 16 51 1 ",
"  c #87675E",
". c #81695E",
"X c #83685F",
"o c #84685F",
"O c #84695F",
"+ c #86695E",
"@ c #86695F",
"# c #836A61",
"$ c #846960",
"% c #856960",
"& c #866960",
"* c #876960",
"= c #866961",
"- c #876961",
"; c #856A60",
": c #876A60",
"> c #876B60",
", c #866A61",
"< c #876A61",
"1 c #866B61",
"2 c #876B61",
"3 c #876A62",
"4 c #876B62",
"5 c #876B63",
"6 c #876C61",
"7 c #876C62",
"8 c #876C63",
"9 c #876D63",
"0 c #876B65",
"q c #886B61",
"w c #886B62",
"e c #8A6B62",
"r c #886C62",
"t c #886C63",
"y c #886D63",
"u c #8A6C62",
"i c #8A6D62",
"p c #8A6D63",
"a c #886E62",
"s c #8A6E63",
"d c #8C6C62",
"f c #8B6B64",
"g c #886C64",
"h c #8B6C64",
"j c #8A6D64",
"k c #8B6D64",
"l c #886E64",
"z c #8A6E64",
"x c #8B6E64",
"c c #8B6E65",
"v c #8C6E64",
/* pixels */
"<%%%-5zp;sp:ooO:",
"<<jxh01:>6zy$<<%",
"4#1:%$%:u4744aq>",
"rp4*$o%e4<<244::",
"4kjurXO@=%xx2<4:",
"k4t4&224444rr4<k",
"uy84:%3f*%<wppr&",
"g<:%uu%ip4<444tt",
"gp9o,%,,<8pppjc4",
"t4,%%%,%4>,,77xj",
":24%%xv+4rxj22<%",
"%<2,%243pxtrrpp4",
"=,<<>*%,cd:$&244",
"477p7l:%:*.%*2sk",
"474 o<*%<4rr<;*u",
"44477tk8484*@O<4"
};
