/* XPM */
static char *result[] = {
/* columns rows colors chars-per-pixel */
"16 16 52 1 ",
"  c #CEAD9F",
". c #CDAF9E",
"X c #CEAE9F",
"o c #CFAE9F",
"O c #CFAF9F",
"+ c #D2AC9E",
"@ c #D1AF9E",
"# c #D1AE9F",
"$ c #CFB19F",
"% c #D1B19F",
"& c #D2B39F",
"* c #CFAEA0",
"= c #CFAFA0",
"- c #D1AFA0",
"; c #D1AFA1",
": c #D2AFA0",
"> c #CDB1A1",
", c #CFB1A0",
"< c #D1B1A0",
"1 c #D1B1A1",
"2 c #D2B1A0",
"3 c #D2B1A1",
"4 c #D1B3A1",
"5 c #D2B3A1",
"6 c #D1B1A2",
"7 c #D1B3A2",
"8 c #D2B3A2",
"9 c #D2B3A3",
"0 c #D4B1A1",
"q c #D4B1A3",
"w c #D2B4A1",
"e c #D1B4A2",
"r c #D2B4A2",
"t c #D3B4A2",
"y c #D2B4A3",
"u c #D3B4A3",
"i c #D3B6A2",
"p c #D2B7A2",
"a c #D3B6A3",
"s c #D4B4A3",
"d c #D6B4A2",
"f c #D4B6A3",
"g c #D4B7A3",
"h c #D2B3A6",
"j c #D3B7A4",
"k c #D4B4A4",
"l c #D4B6A4",
"z c #D4B7A4",
"x c #D5B7A4",
"c c #D4B7A6",
"v c #D5B7A6",
"b c #D4B9A3",
/* pixels */
"1===;9zu,ga<ooo<",
"13lzkh1<<wga=33=",
"6>1<OoO<t8r86p5&",
"ra8:oX=03114332%",
"8fftr o#;=xx318<",
"f8u6-333338rr81f",
"tay6<=3q:=15ast-",
"u3<=tt=if31338uu",
"uuyX1O111yffflc3",
"u31OO=1=3<11rrxl",
"236O*xx@8rgl353=",
"*331=386fgurrfu3",
";113<:=1vd<=-538",
"8rraej2O<:.=:3bf",
"3e6+o1:=16rt3$:t",
"688eeufy7y8:#o38"
};
