/* XPM */
static char *result[] = {
/* columns rows colors chars-per-pixel */
"16 16 70 1 ",
"  c #B3831E",
". c #BA801E",
"X c #B9821F",
"o c #B58020",
"O c #B58120",
"+ c #B78120",
"@ c #B78220",
"# c #B78221",
"$ c #B48323",
"% c #B98220",
"& c #B88221",
"* c #B88321",
"= c #B98321",
"- c #BA8321",
"; c #B88222",
": c #B88322",
"> c #B98322",
", c #B98223",
"< c #B98323",
"1 c #BA8421",
"2 c #BA8621",
"3 c #B88422",
"4 c #B98522",
"5 c #B98423",
"6 c #B98523",
"7 c #BA8423",
"8 c #BA8523",
"9 c #B98623",
"0 c #BA8623",
"q c #BB8623",
"w c #BA8324",
"e c #B98424",
"r c #B98524",
"t c #BA8524",
"y c #B98624",
"u c #BA8624",
"i c #BB8624",
"p c #BA8724",
"a c #BA8625",
"s c #BE8524",
"d c #BC8624",
"f c #BD8724",
"g c #BC8725",
"h c #BF8526",
"j c #BC8726",
"k c #BF8627",
"l c #BA8825",
"z c #BB8A24",
"x c #BD8824",
"c c #BC8825",
"v c #BD8825",
"b c #BD8925",
"n c #BE8825",
"m c #BE8925",
"M c #BE8B25",
"N c #BE8826",
"B c #BE8926",
"V c #BF8926",
"C c #BE8927",
"Z c #BF8927",
"A c #BC8B27",
"S c #BE8A26",
"D c #BF8A26",
"F c #BA8628",
"G c #BF8A28",
"H c #C18724",
"J c #C08926",
"K c #C08B26",
"L c #C08A27",
"P c #C08B29",
/* pixels */
"5:::<aSv3mb>++@>",
"57BZkF6>40Bc#77:",
"r$6>&#&>fupurzq2",
"ibu-#O:st559tt1=",
"uVNfio@%,:JJ85u>",
"Vugr=88tttuiiu5V",
"fcar>:wh-:5ibnd=",
"j7>:ff:xnt5ttugg",
"jvlO<&<<5anmnBGt",
"gt<&&:<:t4<<ppKC",
"18r&;JLXuiDB807:",
";78<:8uenDgiimvt",
",<574-:<PH>#=0tu",
"uppbyA1&>- :-8MV",
"tyr.+5-:5rid7*-f",
"ruuyygVayau-%@7u"
};
