/* XPM */
static char *result[] = {
/* columns rows colors chars-per-pixel */
"16 16 82 1 ",
"  c #8F553C",
". c #8D593A",
"X c #97543A",
"o c #91563C",
"O c #90563D",
"+ c #92573D",
"@ c #91573E",
"# c #94573D",
"$ c #94583B",
"% c #93583E",
"& c #92583F",
"* c #935A3E",
"= c #94593F",
"- c #96593F",
"; c #955A3E",
": c #965B3F",
"> c #975E3E",
", c #8E5A41",
"< c #935740",
"1 c #935940",
"2 c #935B40",
"3 c #945841",
"4 c #955A40",
"5 c #945A41",
"6 c #965B41",
"7 c #955942",
"8 c #955B42",
"9 c #965A43",
"0 c #955C40",
"q c #945C41",
"w c #965E41",
"e c #975C42",
"r c #965C43",
"t c #955E42",
"y c #975F42",
"u c #955B44",
"i c #955C44",
"p c #955E44",
"a c #955F44",
"s c #975E44",
"d c #965E45",
"f c #975E46",
"g c #975F46",
"h c #985E41",
"j c #985E43",
"k c #9C5C43",
"l c #995F44",
"z c #985F45",
"x c #975E4C",
"c c #9D5C48",
"v c #9D5F4A",
"b c #976044",
"n c #966045",
"m c #976146",
"M c #9A6045",
"N c #9A6245",
"B c #996046",
"V c #9B6146",
"C c #9A6147",
"Z c #996246",
"A c #9B6346",
"S c #9A6347",
"D c #9C6247",
"F c #986545",
"G c #9B6746",
"H c #9C6447",
"J c #996048",
"K c #9B6248",
"L c #9B634A",
"P c #9D6348",
"I c #9C6349",
"U c #9B6448",
"Y c #99664A",
"T c #9D6548",
"R c #9C6549",
"E c #9E6449",
"W c #9E6649",
"Q c #9D644A",
"! c #9F654A",
"~ c #9D654C",
"^ c #9E664D",
"/ c #A06045",
/* pixels */
"81117fRC2HS4oo+4",
"86IQvxq40yUZ&661",
"i,q4%@%4MdndiFh>",
"zSs-@O1kr88trr:;",
"sPKMz +#31EEe8s4",
"PsBi=eerrrszzs8P",
"MZgi419c-18jSVl=",
"J641MM1NDr8rrsBB",
"JCmO5%558gDADI~r",
"Br5%%151r055nnWL",
":ei%<E!$dzTIew61",
"<6e51eduDTBzzACr",
"35860-15^/4&=wrs",
"dbbSaY:%4-.1-eGP",
"raiXo8-18izl6*-M",
"iddaaBPgpgs-#+6d"
};
