/* XPM */
static char *_6d25f8d85c14420bd04429bba73981881PeNDnzNetnoCzr[] = {
/* columns rows colors chars-per-pixel */
"64 64 256 2 ",
"   c #0B0C0D",
".  c #050707",
"X  c #15080A",
"o  c #0D1109",
"O  c #15130C",
"+  c #0A0B15",
"@  c #130B14",
"#  c #190B19",
"$  c #0C131B",
"%  c #0A1417",
"&  c #131215",
"*  c #14131D",
"=  c #1B131D",
"-  c #1A1916",
";  c #290A0D",
":  c #27140B",
">  c #270B18",
",  c #231313",
"<  c #23131C",
"1  c #291919",
"2  c #361918",
"3  c #371013",
"4  c #28231D",
"5  c #38241B",
"6  c #1A0E23",
"7  c #141423",
"8  c #1B1423",
"9  c #141A24",
"0  c #1B1A23",
"q  c #19192A",
"w  c #0F1627",
"e  c #231B24",
"r  c #271627",
"t  c #361827",
"y  c #2F162C",
"u  c #282728",
"i  c #382926",
"p  c #2A2A35",
"a  c #392735",
"s  c #3A3838",
"d  c #313230",
"f  c #1C2124",
"g  c #451719",
"h  c #4C1016",
"j  c #6E161D",
"k  c #47251C",
"l  c #54271B",
"z  c #471628",
"x  c #571626",
"c  c #481529",
"v  c #691926",
"b  c #79192C",
"n  c #462A26",
"m  c #582C27",
"M  c #47322B",
"N  c #583229",
"B  c #462935",
"V  c #483736",
"C  c #573A37",
"Z  c #582934",
"A  c #66352A",
"S  c #782839",
"D  c #673A35",
"F  c #783C36",
"G  c #702D2E",
"H  c #652519",
"J  c #5A433D",
"K  c #4A403A",
"L  c #77463B",
"P  c #67423C",
"I  c #393A49",
"U  c #4F3A46",
"Y  c #723944",
"T  c #3B4254",
"R  c #4A4445",
"E  c #564847",
"W  c #5A5857",
"Q  c #514F53",
"!  c #684C48",
"~  c #794B46",
"^  c #665A59",
"/  c #755555",
"(  c #5A625C",
")  c #6F615D",
"_  c #535563",
"`  c #655B65",
"'  c #715C6C",
"]  c #5E626E",
"[  c #6A6768",
"{  c #766767",
"}  c #79787A",
"|  c #737270",
" . c #34403E",
".. c #8E182D",
"X. c #872836",
"o. c #952638",
"O. c #893737",
"+. c #A72A39",
"@. c #8A4A39",
"#. c #AC4C3C",
"$. c #8A3744",
"%. c #902F48",
"&. c #AE3747",
"*. c #C83549",
"=. c #884A45",
"-. c #984A46",
";. c #8A554B",
":. c #975548",
">. c #8B5A54",
",. c #985956",
"<. c #824555",
"1. c #A65B57",
"2. c #AE514D",
"3. c #98635C",
"4. c #926253",
"5. c #A86659",
"6. c #B8695A",
"7. c #A6684C",
"8. c #9B6763",
"9. c #8C6F6F",
"0. c #B77469",
"q. c #B0716C",
"w. c #BE5E60",
"e. c #CC4158",
"r. c #C46969",
"t. c #C87768",
"y. c #C97875",
"u. c #D57A75",
"i. c #CF645C",
"p. c #84867B",
"a. c #B98377",
"s. c #C98679",
"d. c #D78976",
"f. c #D18B73",
"g. c #DF937F",
"h. c #7A7C83",
"j. c #71778E",
"k. c #596E94",
"l. c #857B82",
"z. c #937582",
"x. c #AC7D8C",
"c. c #D37680",
"v. c #7E8286",
"b. c #7A92AA",
"n. c #8B898E",
"m. c #868589",
"M. c #8D8C93",
"N. c #8E8E9A",
"B. c #928E95",
"V. c #938F99",
"C. c #939196",
"Z. c #94929C",
"A. c #9B959C",
"S. c #9B9B9D",
"D. c #989898",
"F. c #948F8B",
"G. c #AF8D8E",
"H. c #AAA49B",
"J. c #9595A2",
"K. c #9C9BA3",
"L. c #9D9EAA",
"P. c #9798A5",
"I. c #8993AC",
"U. c #A19BA3",
"Y. c #A79CA7",
"T. c #9BA1AC",
"R. c #93A8B7",
"E. c #A3A3AC",
"W. c #A8A5AA",
"Q. c #B6B7AB",
"!. c #A4A5B2",
"~. c #ABABB5",
"^. c #ADAEBA",
"/. c #ACADBA",
"(. c #A8A9B5",
"). c #B1AEBB",
"_. c #B1ACB6",
"`. c #AFB1BD",
"'. c #ADB1BE",
"]. c #B1B2BE",
"[. c #B3B2BD",
"{. c #B9B7B8",
"}. c #B3A1A1",
"|. c #98A29B",
" X c #D58B88",
".X c #D99586",
"XX c #DA9997",
"oX c #C8948D",
"OX c #E49889",
"+X c #E79793",
"@X c #DBA69A",
"#X c #E3A49A",
"$X c #E6A799",
"%X c #E6AE97",
"&X c #D4B4AD",
"*X c #E8AAA4",
"=X c #E5B2A5",
"-X c #EAB6AA",
";X c #F1B4B0",
":X c #EC9EA2",
">X c #BDC4B9",
",X c #C7C7BB",
"<X c #CCCEBB",
"1X c #F1C7BB",
"2X c #B5B6C2",
"3X c #BABBC4",
"4X c #BABDC9",
"5X c #B6B9C7",
"6X c #AEB7CD",
"7X c #97B1C4",
"8X c #C3BFC7",
"9X c #BCC1CC",
"0X c #BAC4D6",
"qX c #AEC7D2",
"wX c #BDD4E7",
"eX c #C3C4CD",
"rX c #C9C8C6",
"tX c #CED5CB",
"yX c #D3D4C9",
"uX c #C7C9D4",
"iX c #D9D9D7",
"pX c #D0CECE",
"aX c #E3DDDB",
"sX c #FCD5C9",
"dX c #DCE3D9",
"fX c #E4E3DB",
"gX c #E7E8DC",
"hX c #F2E8D9",
"jX c #D9DBE8",
"kX c #CADAEC",
"lX c #E2DEE4",
"zX c #D8E5EB",
"xX c #D8E7F8",
"cX c #D9F2F5",
"vX c #E5E4E3",
"bX c #EBEBE4",
"nX c #ECEDEB",
"mX c #E7E8E5",
"MX c #F2EEEA",
"NX c #F4EEE7",
"BX c #EDF1E4",
"VX c #EDF2EB",
"CX c #E2F1EE",
"ZX c #F3F4EC",
"AX c #F6F9ED",
"SX c #F6F6EA",
"DX c #E6ECF8",
"FX c #EAF7F9",
"GX c #F5F5F2",
"HX c #FAF5F3",
"JX c #F5FAF3",
"KX c #FAFBF5",
"LX c #F5FCFB",
"PX c #FDFDFB",
"IX c #FAF5FB",
"UX c #F2EEF5",
/* pixels */
"`.`.`.`.`.^.^.^.`./././.!.(.(.(.~.!.T.!.T.!.T.T.!.E.L.P.P.P.P.A.J.L.P.J.J.P.J.N.N.N.N.N.N.N.N.N.N.M.M.n.M.M.M.M.n.n.n.m.m.m.m.n.",
"`.`.`.`.`.^.`.`./././././.!.(.(.!.!.!.!.!.!.!.E.E.E.L.L.P.L.T.T.!.!.!.!.!.E.L.J.V.J.J.N.N.N.N.N.M.N.N.M.M.n.n.n.n.N.n.n.n.n.n.n.",
"`.`.`.`.`.`.`.^./././././.(././.(.!.!.(.!.T.!.E.L.T.L.!.(.'.`.2X(.(.!.T.T.P.Z.Z.Z.V.Z.J.J.N.N.N.N.M.M.M.M.M.n.n.n.v.N.n.n.n.n.n.",
"].].`.`.`.`.`.`.`././.(./././.(.(.~.(.W.!.E.E.T.(.'.2X5X5X2X/.(.!.T.T.P.P.Z.Z.Z.Z.Z.Z.V.J.V.V.V.M.N.M.N.M.M.M.M.n.n.n.n.n.n.n.m.",
"2X`.].2X`.`.].`.`.`./.`.~.~.(.T.E.E.E.T.E.E.W.(.2X3X4X3X2X^.~.W.L.J.J.Z.J.J.J.J.J.V.J.V.Z.Z.Z.N.N.B.M.M.M.B.M.M.B.B.B.n.M.l.M.n.",
"2X`.].].`.`.].].`././.`.~.!.T.S.n.n.n.n.M.B.D.Z.Z.P.L.E.T.K.Z.C.A.P.P.K.P.Z.Z.J.V.J.V.J.N.V.N.Z.N.V.Z.M.N.B.M.N.n.B.n.n.M.M.M.M.",
"`.].].].].].).^././._.~.~.W.E.S.S.Z.Z.Z.D.Z.Z.Z.Z.B.m.h.} h.m.m.l.m.n.D.Z.D.Z.J.J.V.J.Z.Z.Z.Z.N.Z.Z.M.N.M.M.M.M.n.B.B.B.B.B.B.B.",
"].].].[.].].].].`.`.`._.~.~.~.~.~.(.(.E.E.E.L.L.K.K.K.A.D.n.} [ ^ ^ ^ } C.T.Z.Z.J.Z.Z.Z.J.Z.Z.Z.Z.C.Z.B.B.M.B.M.V.V.B.B.B.B.B.M.",
"2X2X2X2X].^.`.2X`.`.).2X/./.~.(.~.~.W.W.E.!.!.!.~.W.B.} { ^ R i i n M k J { F.K.P.P.S.S.A.B.K.Z.Z.Z.Z.Z.B.C.Z.V.B.V.B.B.B.B.F.B.",
"2X2X2X2X2X2X].[.~._.).^././././.~.~.!._.~.^.U.~.A.` s u 2 n V i 1 5 i n 5 i W p.Z.Z.S.Z.V.U.M.K.Z.S.K.A.Z.B.Z.D.V.B.B.A.A.B.V.G.",
"2X2X2X).].{.3X8XpXuXuX8X[./.~._.^.~.^.!.(.W._.n.U M i M V n i 5 V d M M M k M J F.K.Z.J.P.K.A.A.L.L.K.S.D.V.B.B.A.A.A.A.G.V.A.A.",
"5X2X2X5XeXiXlXUXCXvXiXeX3X].[.).^.].(.^.~._.l.R n i i i V V V i 1 M i 5 5 N M M E 9.T.E.E.J.E.K.K.D.Z.Z.A.A.U.A.A.A.A.A.V.A.V.B.",
"2X4XuXlXnXmXjXiXeX9X3X].].).2X2X`.].`.].].m.i i V i i i i V K i 2 i i 1 1 5 5 5 n ! D.S.P.K.L.K.U.U.U.E.U.K.A.K.A.A.A.A.A.A.A.A.",
"5X4X8XuXuXuX8X3X{.3X5X5X3X4X5X2X2X`.5X2XU.s 1 d i a d i O : 5 k 1 : : : , 1 : 4 5 i [ W.W.E.Y.W.W._.{.8X2XW.K.S.U.U.K.U.Y.U.Y.A.",
"3X2X5X2X3X[.3X3X4X3X5X9X5X5X2X2X6X2X/.{.` i i 1 t n M 5 5 : 2 N l m N N N l 5 : ; 2 K D.{.{.8XeXlXlXvXlXpX[.W.L.Y.U.Y.Y.U.Y.U.U.",
"2X2X3X4X3X3X3X4X4X9X9X9X9X9X9X5X0X5X9XP.1 u 4 4 i n C C n N L ;.4.:.3.5.0.s.0.:.N 2 5 E Y.aXUXlXpXrX_.(.W.E.E.W.W.W.W.W.Y.Y.Y.}.",
"8X9X0X9X0X9X9X9X9XqX9X9X9X9X0X9X4XuX4XR 0 4 , 5 n P L 3.0.s. X.Xs.f.g..XoX=XsX&Xa.A 3 V C ) }./.(.~.~.~.(._.W.~.~._._._._.}._.W.",
"!.!.!.R.[.3X9X9X9X0XeXeXuXeXeXeXuXeX/.u u 4 n 4.9.q.a..X@X%X=X=X%XOX#X$X%X%XsXsX%X7.l M J C ^ [.2X~.2X).~.).)._._._._._._._._.[.",
"u p p I I Q W ] | } v.m.M.B.A.E.T.!.} f i V 8.@X%X%X%X=X-X-X=X=X$X$X$X%X-X=X1XsX%Xf.L m C M 5 9.8X2X2X2X[.L.E.[._.2X_.[./.&X[.[.",
"I p p p p p f u p d I s s I s s s R R d K >.G.-X=X=X-X1X-X-X=X-X@X$X@X%X=X=X-X=X%Xg.,.N M i 4 V ).8X[.2X3X~.[.[.2X_.).[.2X2X{.{.",
"|.|.S.D.v.v.v.v.| | v.} } | | [ [ W Q W ^ q.@X=X%X=X=X-X-X=X-X;X*X$X$X*X%X%X$X%Xg.g.7.M V 1 : V l.A.B.S.Y.W._._.[.[.{.rXUXPXUX8X",
"JXLXJXJXFXJXBXCXiXdXzXmXvXiXtXpX8XeXl.` { p.-X&X=X*X=X=X=X=X*X@X%X#X$X%X@XOXg.f.f.f.7.J V 4 : K V a s U U E Q W W ` [ [ U.rX{.l.",
"nXSXSXAXAXKXKXJXGXJXPXPXPXPXPXPXPXPX_.^ 9.G.@X&X*X@X*X-X-X-X*X*X*X#X#X#X.X$Xg.f.f.f.7.@.V i 1 ( l.[ [ ` W R W ^ ^ ^ Q E E V V K ",
"bXSXSXSXSXAXKXJXGXIXJXKXKXPXPXLXKXPXM.Q G.G.oX@X=X@X*X-X;X*X:X*X+X*X*X*X%X%Xf.f.f.6.7.4.J n i rXLXnXaXfXtX^ 9.yX&XrX>X&XW.H.F.F.",
"gXBXBXBXZXGXKXAXKXHXGXJXKXPXKXPXKXKXm.` G.G.oX=X#X*X*X-X*X*X;X*X*X:X*X*XXX$X+Xd.f.6.7.4.K M C GXPXPXPXPXKX} Q.KXFXPXKXKXJXfX<XyX",
"iXgXbXbXnXZXJXAXAXZXZXJXKXKXKXKXHXPXJ.l.G.9.G.@X=X=X=X=X;X;XXX:XXX*X&X:X*X.Xd.g.f.6.7.L J M ^ KXPXKXKXKXKXm.{.PXGXPXKXKXKXgXdXBX",
"dXgXBXmXMXZXJXJXKXGXHXKXPXPXPXPXKXIXB.} 9.9.&X-X@X@X X0.5.s.y..X:XXXXX Xs.y. X Xd.f.7.A C 5 F.PXIXIXKXHXKXm.{.PXHXKXHXHXKXBXhXSX",
"gXVXVXVXZXHXJXJXGXJXJXKXPXPXPXPXPXHXl.} W q.-X@X0.1.,.=.;.O.w.y.y.y.y.-.G F @.7.0.t.7.N J k Q.HXLXJXKXJXHXm.{.KXGXGXGXHXKXSXBXAX",
"NXAXAXAXAXGXKXLXJXHXJXKXPXPXPXPXPXPXz./ C G.&Xs.5.x.q.8.Y ~ ,.y.u.6.:.G A ~ 3.$.F @.6.N M J ,XPXIXIXKXKXIXn.Q.PXHXJXHXKXKXAXZXHX",
"bXBXCXBXVXVXKXJXJXJXKXKXKXPXPXPXHXPXx.U J oX-Xs.s.:.L k ~ L -.0.OX6.H A / n D Y @.@.f.L k N ,XPXIXKXPXKXLXB.(.PXHXJXHXHXKXAXZXIX",
"gXBXbXBXBXVXAXJXAXGXHXGXJXKXPXKXIXJXXX8.P a.=Xs.q.6.s.5.8.:.5.OX:Xr.@.@.8.>.<.L F 7.f.>.k P hXIXIXKXKXLXPXC.K.KXGXAXZXGXZXHXMXZX",
"KXKXJXAXKXKXPXKXHXJXJXJXKXKXKXKXIXJX1XXXJ 3.-X%X+Xd.y.r.2.r.d.OX$Xt.#.2.2.2.:.#.f.f.d.:.n 8.KXHXKXKXKXJXPXM.D.GXGXZXZXZXMXNXZXMX",
">X<X<X<X<XtXtX>XtXtXdXgXgXSXKXKXKXAX8X X4.3.=X=X:X*X+X XOXOX.X#X+Xf.2.i.t.i.6.t.d.d.d.@.g oXPXHXKXIXPXPXKXn.T.KXSXKXAXMXNXNXZXSX",
"o % o - % 9 f f f d u d s E ^ ^ ^ W 9.-X0.a.#X@X*X;X;X*X+X+X*X=X+Xy.r.t.t.d.OXOXOXd.t.7.P oXbXaXMXnXmXfXdX] } gXgXhXgXfXfXfXfXgX",
"o o o o o % . o . . . o . - - , 4 O R ;Xq.q.@X$X:X:X*X+Xr.r. X:X+XOXt.@.6.u.OXOXg.d.6.7.L -XBXfXfXiXyXyXtXR ( yXrXyXyX,X,X,X,X<X",
"o p.>XQ.Q.H.|.W.|.F.C.s - |.Q.Q.p.i V &Xx.3.s.f.y. Xy.2.1.y.:X:X+Xu.u.r.O.2.r.u.t.6.7.@.4.SXPXKXPXPXHXSXKX} v.AXGXHXSXNXNXbXhXNX",
"o tXKXAXKXKXKXPXJXLXKX( - gXPXKXiXi 1 H.G.;.4.@.6.0.-.%.w.y. X*X:Xs.i.@.O.O.-.w.1.@.@.L 8.HXGXnXSXHXZXSXPXm.m.KXZXZXMXMXMXbXbXbX",
"o tXKXBXBXBXVXJXAXLXVXW u iXKXPXtXi - W.&XP J A 1.;.A =.:.F G >.y.:.l h l F A D @.A l N 9.KXGXHXAXKXHXNXKXn.n.PXUXUXMXMXMXbXvXbX",
"O <XAXBXAXSXAXKXAXAXmX( u dXPXPXtXs - |.<XJ C D @.L l C F A l g l 3 : k n l 5 M @.N 5 l F.KXHXHXGXHXHXZXVXv.m.JXZXZXZXHXMXbXvXbX",
"O ,XAXSXAXZXJXJXLXCXAX[ u yXPXPXiX5 4 p.dXJ D C ;.~ g l m ;.3.;.D G G P g 2 2 k L 2 5 g <XJXHXMXGXZXMXSXZXv.h.VXnXnXMXNXHXNXgXvX",
"- Q.AXAXAXAXAXKXJXBXJX| 4 dXPXPXtXi : D.AX9.C K D ~ m :.6.2.r.oXq.6.5.O.X.@.l N J 2 : K aXMXHXHXZXMXHXGXmXh.m.bXbXZXMXZXMXZXgXhX",
"O Q.AXSXAXAXSXKXAXCXJX| 4 yXPXPX,Xd - |.KXH.J C D N m F y.u.r.y.6.w.&.#.-.:.D m k 2 : ^ NXMXZXMXnXGXbXGXJXm.l.VXvXnXbXgXgXgXdXvX",
"- >XKXSXAXSXAXKXVXVXAX| 4 tXKXPX&X .O p.KXdX9.V M 5 B D 1.r.r.c.u.w.-.-.@.F N 2 : : 1 H.HXbXHXVXbXnXbXgXvXm.| BXvXbXvXfXaXgXaXbX",
"- ,XKXBXBXSXAXKXJXVXAX[ 4 tXPXPXrX4 - p.AXAXQ./ u 1 ! >.=.;.,.Y ~ F L F F N C 1 X 4 9.NXNXZXVXVXmXmXnXvXVXv.} bXbXbXvXaXfXfXaXbX",
"O Q.KXBXSXSXSXSXVXVXVX( - rXPXPXyXd 1 } dXCX>X9.R i ^ 9.D ~ D m Z n m l A m N , 5 i rXbXHXvXnXbXnXLXnXZXLXv.[ gXnXbXgXfXgXgXfXgX",
"o >XAXBXBXBXSXSXVXVXCX( & ,XPXPX,Xu 1 [ FXdX[ 9.>.U E / / ~ =.F D A m D P n M - 4 4 ) HXHXIXPXPXJXPXIXJXLX!.] CXZXbXbXfXgXbXiXfX",
"O >XAXhXBXbXVXZXVXVXCX( o {.PXKXrXu * v.iXY.a h.F.9.C ^ 9./ >.=.G D D / ! M 4 O M , O iXPXPXPXIXPXLXPXPXLX2Xj.nXvXaXjXiXnXmXvXvX",
"o Q.AXBXSXSXJXJXVXBXVXW o {.PXPXtXd f s c U t a 9.z.' { { / / ~ N N P / ! C 5 i N X X [ iXLXPXPXPXPXPXPX].p ] DXmXvXmXvXGXUXUXGX",
" .,XKXmX{.>XFXLXDXGXgX( o Q.KXPXP.B v > > %.y + V 9.V.z.' Q Y E M C B Z M u i N m . * X 6 ` S.jXUXjXzXzXk.I j.LXcXDXxXxXDXIXFXLX",
"UXCXCXCXR ; qXIXcXzXCX_ . T.uX` # x %.> t &.U + @ / >.>.| ` U V i s V i 1 4 i C N   0 r   > v U N.6XR.I.7XI.R.FXFXxXxXwXxXDXFXxX",
"xXLXFXkXE i 6XcXzXVXJXQ . U f   $ n S 8 X X.U 6 8 t 8.>.! ^ R d i - 1 4 5 M M F 1 7 u = . 1 o.g w I ] j.I.b.7XUXxXxXkXuXqX6X0X6X",
"DXjX] p & I 7XcXUXzXM.p q 7 7 6 8 v S 7 @ x U 6 8 @ U >.<.~ Y C Z V V N A D D G e   > 8   . b k 7 # q p U _ I.IXxXwXkXkXkXkX6X0X",
"cX5XU . s kXwXeXx.s $ * q e 7 + > b X.6 . ; Y y . #   X m ~ 5.7.5.8.,.5.1.~ V , . . > & @ . z v + # 8 = r 9 p ` 8X6X6XDXxX6X7XDX",
"jX).G.i _ qX_ b o.3 e < < y # & 3 X.S r # # S D $ @   +   z G 7.q.0.s.y.,.5 . . . . = % @   2 ..< $ 8 6 e q q # v $.` kXxXxXxXDX",
"uXk.] U a p # +.&.c y a y r # r c *.b + 6 r h $.> ; X X 7 # n @.q.0.q.8.D , . X X O r = 3 r 2 ..z e e r p a y p x *.v Q uXkXkXxX",
"qXk.T a a y < X.o.; 8 = % $ # O 3 &.x + # 6 2 +.o.; > # # # . =.5.5.=.>.D . X # +   < r r < > b v 2 t t 1 2 z r z *.&.> I P.7XkX",
"6X_ a y r w > Y b = 6 7 = . 6 $ 3 %.2 * 6 @ y S n X x h + w + r ;.:.1.!   . X # % = @ * 0 * $ x j $ r = q q e q q Z &.h y t ' wX",
"x.y y f w 6 ; S b + 6 * & + $ $ h %.> $ w $ + ; X > x h $ + + . n 1.>.@ . ; z > * = = 7 r 6 * c j 7 9 * w q e r r x 2.x 0 r a l.",
"Y 6 8 q 8 7 ; %.v $ 7 q + $ 7 $ x %.r + 7 q w   + > S j # 6 6 + % V X . + 3 v ; $ 8 = 9 7 6 $ t ..1 $ 7 7 w e e q 3 &.v & 9 e B ",
"c r 9 q y $ > $.v + 6 8   @ 8 $ x %.> @ @ # w 6 6 6 Y G * q @ $ # . . + # h S h 7 e 8 7 7 7 7 r o.z $ 8 6 8 0 q q t &.X., 9 y > ",
"6 r r 7 q + 3 %.v & 9 7 + * 8 + x O.> 6 + * 7 = 7 $ Z o.; $ e e X -   % + h $.3 9 q 0 7 q 9 q 0 ..m * q 6 = 8 q 9 > %.X., 8 r 8 ",
"q * 8 w w $ x &.x   7 +   = = * b +.3 > & 8 6 = # # v *.c y a # & O # * @ b &.v q r = = 8 8 r 8 ..X.# w 8 e e 6 r > X.X., 8 6 0 ",
"y + 7 8 6 % v *.j > y > 2 t z t +.&.c y < r y t t y S *.h y t & # = t y y ..e...t c t z z B c t ..&.3 q u t y r y < X.&.; 8 6 e ",
"q q + 6 y * v *.j > r @ = r > > +.&.1 7 @ 3 t , r > h o.1 w # $ = * @ r & x &...8 r r r e r > - j *.x a t 3 > = , 1 o.*.h + w * "
};
