/* XPM */
static char *_afbe285e79c4bfbe3912f6ff2086d4cVk5V52fcaxZdYjcD[] = {
/* columns rows colors chars-per-pixel */
"64 64 221 2 ",
"   c #000000",
".  c #5C090A",
"X  c #5A0C09",
"o  c #5E1403",
"O  c #5F120C",
"+  c #5C0B10",
"@  c #6E0706",
"#  c #620A09",
"$  c #6D0B0A",
"%  c #710B0A",
"&  c #621905",
"*  c #631B0C",
"=  c #690D16",
"-  c #730F19",
";  c #671516",
":  c #731A17",
">  c #781A0E",
",  c #63260D",
"<  c #6A2617",
"1  c #792D1A",
"2  c #683914",
"3  c #743816",
"4  c #69370D",
"5  c #7F1220",
"6  c #5F2A21",
"7  c #763629",
"8  c #6B3A29",
"9  c #563613",
"0  c #584514",
"q  c #6C4A15",
"w  c #675815",
"e  c #75520E",
"r  c #6F6116",
"t  c #726214",
"y  c #7E6D17",
"u  c #70600D",
"i  c #6E522F",
"p  c #786929",
"a  c #7A6E34",
"s  c #736C47",
"d  c #7D7444",
"f  c #746A50",
"g  c #7E7756",
"h  c #7F7C6E",
"j  c #951E0E",
"k  c #902D13",
"l  c #BE2E0F",
"z  c #AB3C0F",
"x  c #A6390E",
"c  c #AF2B10",
"v  c #8D1522",
"b  c #911223",
"n  c #A61729",
"m  c #A91729",
"M  c #AB1A2B",
"N  c #A31728",
"B  c #B82737",
"V  c #A62531",
"C  c #8D3725",
"Z  c #CB2A0F",
"A  c #C2290F",
"S  c #CE2A10",
"D  c #DA2810",
"F  c #D62710",
"G  c #E32812",
"H  c #EB2912",
"J  c #F62D13",
"K  c #F82D13",
"L  c #C32F3E",
"P  c #855D17",
"I  c #93520E",
"U  c #A6490F",
"Y  c #AA4B10",
"T  c #A45C10",
"R  c #A75610",
"E  c #836E13",
"W  c #96681A",
"Q  c #8A7416",
"!  c #8D7915",
"~  c #877419",
"^  c #927D13",
"/  c #987A18",
"(  c #A86713",
")  c #AA7715",
"_  c #BC7F1D",
"`  c #9D4936",
"'  c #8B7A25",
"]  c #867938",
"[  c #CD3646",
"{  c #D33D4B",
"}  c #854C42",
"|  c #8C594D",
" . c #93514B",
".. c #AA4D47",
"X. c #857A47",
"o. c #857D54",
"O. c #9C7169",
"+. c #907765",
"@. c #A96E6A",
"#. c #B27775",
"$. c #B06F6E",
"%. c #D7414E",
"&. c #D1424A",
"*. c #EC525D",
"=. c #E75256",
"-. c #E34B58",
";. c #ED5460",
":. c #EA6167",
">. c #9D8615",
",. c #9A851A",
"<. c #A58D14",
"1. c #A38C1A",
"2. c #A0871B",
"3. c #B88A15",
"4. c #AA9214",
"5. c #AA921A",
"6. c #A79018",
"7. c #B49A16",
"8. c #BA9D16",
"9. c #B39A19",
"0. c #B69817",
"q. c #BDA217",
"w. c #BCA11A",
"e. c #968329",
"r. c #8E813C",
"t. c #978736",
"y. c #A48F29",
"u. c #A89327",
"i. c #B49927",
"p. c #A89537",
"a. c #B29D31",
"s. c #BEA523",
"d. c #BFA730",
"f. c #C3861E",
"g. c #C3A317",
"h. c #C3A61A",
"j. c #C5A91B",
"k. c #CBAD1A",
"l. c #C8A317",
"z. c #CDB01C",
"x. c #D3B41B",
"c. c #D7B81B",
"v. c #DCBC1B",
"b. c #D9B71A",
"n. c #D6AC1C",
"m. c #E6B81E",
"M. c #F0BD1F",
"N. c #DD9421",
"B. c #E19622",
"V. c #E39C22",
"C. c #C6A924",
"Z. c #CEB224",
"A. c #E6A322",
"S. c #EAAE20",
"D. c #E6AE21",
"F. c #ECB320",
"G. c #EFBB20",
"H. c #F0BF26",
"J. c #DFC01C",
"K. c #E3C31C",
"L. c #EDCB1D",
"P. c #E8C61C",
"I. c #F3C61F",
"U. c #F2CE1E",
"Y. c #F5D21E",
"T. c #FAD61F",
"R. c #FCD81F",
"E. c #DFC022",
"W. c #F3C724",
"Q. c #FAD621",
"!. c #EFC220",
"~. c #8B804A",
"^. c #968949",
"/. c #968B56",
"(. c #8B8156",
"). c #A59542",
"_. c #A5995C",
"`. c #99926D",
"'. c #888576",
"]. c #99947C",
"[. c #918A6A",
"{. c #A69375",
"}. c #9A9584",
"|. c #9B9A94",
" X c #948B82",
".X c #B38F87",
"XX c #A29789",
"oX c #B99791",
"OX c #A6A49D",
"+X c #AAA489",
"@X c #ACAAA3",
"#X c #B5AEAB",
"$X c #B6B3AB",
"%X c #BAB9B5",
"&X c #C4A9A4",
"*X c #C5BDB8",
"=X c #D6BDBA",
"-X c #CCB4AF",
";X c #F4A9AE",
":X c #F2A3A8",
">X c #C39493",
",X c #C4C3BE",
"<X c #C4C0B0",
"1X c #C9C8C8",
"2X c #D8CCC9",
"3X c #D4D3CD",
"4X c #D4D4D4",
"5X c #DCDCDC",
"6X c #D8D8D7",
"7X c #E7DBD9",
"8X c #E0D1CE",
"9X c #EAE1DF",
"0X c #DFDFE0",
"qX c #E5E5E4",
"wX c #EBEBEC",
"eX c #EBE6E5",
"rX c #F1EDED",
"tX c #F4F4F5",
"yX c #FFFEFE",
"uX c #FAF6F6",
"iX c #F2F0F1",
/* pixels */
"                                                                                    k.Q.R.T.T.T.T.T.T.T.T.T.T.U.!               ",
"                                                                                  ^ U.Q.T.T.T.T.T.T.T.T.Q.Q.T.0.                ",
"                                                                                  x.R.T.T.T.T.T.T.T.T.T.Q.Q.h.                  ",
"                                                                                ,.Y.T.T.T.T.T.T.T.T.T.T.Q.n.w                   ",
"                                                                                x.R.R.T.T.T.T.T.T.T.Q.Q.D.t                     ",
"                                                                              >.Y.T.T.T.T.T.T.T.T.T.Q.D.W                       ",
"                                                                            0 z.R.R.T.T.T.T.T.T.T.Y.F.)                         ",
"                                                      w y ,.,.1.6.5.5.6.5.>.,.q.m.Y.T.T.T.T.T.Y.Y.F.)                           ",
"                                              y >.q.z.J.L.L.Y.T.T.T.T.T.T.T.Y.L.Y.T.T.T.T.T.T.Q.S._ 0                           ",
"                                        ! 9.c.L.Q.R.R.T.R.T.T.T.T.T.T.T.T.T.T.T.Q.T.T.T.T.T.U.D.f.q                             ",
"                                  t 6.x.W.R.R.T.T.T.T.T.T.T.T.T.T.T.T.T.T.T.T.T.T.T.T.T.T.T.c.) q                               ",
"                              t 4.J.T.R.R.R.T.T.T.T.T.T.T.T.T.T.T.T.T.T.T.T.T.T.T.T.T.T.Q.Y.Q.q.w                               ",
"                            6.K.T.T.T.T.T.T.T.T.T.T.T.T.T.T.T.T.T.T.T.Q.T.T.T.T.T.T.T.T.T.T.T.T.k.w                             ",
"                        ! x.Y.Q.T.T.T.T.T.T.T.T.T.T.T.T.T.T.T.T.T.T.T.T.T.T.T.T.T.T.T.T.T.T.T.T.Q.8.                            ",
"                      9.L.T.T.T.T.T.T.T.T.T.T.T.T.T.T.T.T.T.T.T.T.T.T.T.T.T.T.T.T.T.T.T.T.T.T.T.Q.Q.1.                          ",
"                  t k.T.R.T.T.T.T.T.T.T.T.T.T.T.T.T.T.T.T.T.T.T.T.T.T.T.T.T.T.T.T.T.T.T.T.T.T.T.Q.Q.L.~                         ",
"                ~ c.T.T.T.T.T.T.T.T.T.T.T.T.T.T.T.T.T.T.T.T.T.T.T.T.T.T.T.T.T.T.T.T.T.T.Q.Q.Q.Q.Y.T.R.c.w                       ",
"              ~ v.R.T.T.T.T.T.T.T.T.T.T.T.T.T.T.T.T.T.T.T.T.T.T.T.T.T.T.T.T.T.T.T.T.T.Q.Q.P.k.u.y.u.j.P.9.                      ",
"            y J.R.T.T.T.T.T.T.T.T.T.T.T.T.T.T.T.T.T.T.T.T.T.T.T.T.T.T.T.T.T.T.T.T.T.T.Y.z.r.[.$X%X@X[.y.x.E                     ",
"          t c.Q.T.T.T.T.T.T.T.T.T.T.T.T.T.T.T.T.T.T.T.T.T.T.T.T.T.T.T.T.T.T.T.T.T.T.T.x.] #XwXyXyX9X*X].a.w.                    ",
">.1.6.4.7.c.T.T.T.T.T.T.T.T.R.T.T.T.T.T.T.T.T.T.T.T.T.T.T.T.T.T.T.T.T.T.T.T.T.T.T.R.Y.e.|.yXyXyX2X| 7 O.[.C.Q                   ",
"T.T.T.T.T.T.T.T.T.T.T.T.Y.U.U.L.L.Y.T.R.T.T.T.T.T.T.T.T.T.T.T.T.T.T.T.T.T.T.T.T.T.T.L.^.6XyXyXyX.X& # 1 XXu.g.                  ",
"T.T.T.T.T.T.T.T.T.R.T.v.5.r.^.^.r.t.s.v.Y.T.T.T.T.T.T.T.T.T.T.T.T.Y.T.T.T.T.T.T.T.T.L._.wXyXyXyX&X< # } %X] m.!                 ",
"T.T.T.T.T.T.T.T.Q.L.s.^.|.1X5X0X6X<X].o.h.T.T.T.T.T.T.T.T.T.T.T.T.T.T.T.T.T.T.T.T.T.P.^.qXyXyXyXiX&X{.2X,X] U.l.                ",
"T.T.T.T.T.T.T.T.v.p.{.6XuXyXyXyXyXyXtX1Xo.q.T.T.T.T.T.T.T.T.T.T.T.T.T.T.T.T.T.T.T.T.U.y.<XyXyXyXyXyXyXyX|.,.Y.U.,.              ",
"T.T.T.T.T.T.T.Y.a.XXwXyXyXyXyXyXyXyXyXyX1XX.x.R.T.T.T.T.T.T.T.T.T.Q.Q.T.T.T.T.T.T.T.T.x._.qXyXyXyXyXyX5Xo.c.R.R.v.r             ",
"T.T.T.T.T.T.R.J./.6XyXyX9X8XeXyXyXyXyXyXyX$Xe.L.T.T.T.T.T.T.T.T.T.T.T.T.T.T.T.R.T.T.T.U.a.].4XiXtXiX,Xg w.Q.T.T.R.j.            ",
"T.T.T.T.T.T.T.k.+XyXuX&X} 7 | =XyXyXyXyXyXtX[.s.T.T.T.T.T.T.T.T.T.T.T.T.Q.Q.Y.L.T.T.T.T.L.5.s h '.h ] w.W.Q.T.T.T.x.e           ",
"T.T.Q.Q.Q.Q.Y.p.,XyX2X7 & & & } 7XyXyXyXyXyX%Xe.Y.T.T.T.T.T.T.T.T.T.T.T.c.,.w 4.T.R.T.T.T.U.x.q.j.k.J.Y.T.T.T.T.b.U Z c         ",
"T.T.Q.W.D.W.K./.9XyX>X* & & & < -XyXyXyXyXyX6Xa P.T.T.T.T.T.T.T.T.T.T.T.q.u ! K.R.Y.T.T.T.R.R.R.R.R.R.R.T.T.T.T.3.S J H j       ",
"Q.W.C.( 3.W.E.[.qXyX#X< & & & < =XyXyXyXyXyX5Xd K.R.T.T.T.T.T.T.T.T.T.T.T.Y.T.R.Y.Y.T.R.T.T.T.T.T.T.T.T.T.T.Q.U.R H K K G >     ",
"i.W ( _ A.Q.W./.qXyX7X| & o * O.rXyXyXyXyXyX4Xa P.T.T.T.T.T.T.T.T.T.T.T.T.R.T.L.q.e.5.L.R.T.T.T.T.T.T.T.T.T.R.U.R H K K K c     ",
"  P B.V.U.R.L.~.1XyXyX7X.XO.oXqXyXyXyXyXyXyX%Xa L.T.T.T.T.T.T.T.T.T.Q.Q.R.Q.j.e.g @X'.e.T.R.T.T.T.T.T.T.T.T.R.L.R G J J K D >   ",
"  W V.H.T.R.R.u.OXyXyXyXuXuXyXyXyXyXyXyXyXtX'.,.Y.T.T.T.T.T.T.T.T.T.Q.Q.P.5.d OXqXyXeXg g.R.T.T.T.T.T.T.T.T.T.U.T G K J J J k y ",
"  / P.Q.T.T.R.c./.3XyXyXyXyXyXyXyXyXyXyXyX%X] J.R.T.T.T.T.T.T.T.T.T.Y.j.r.}.6XyXyXyXyX$X' L.R.T.T.T.T.T.T.T.T.T.) F K J J K x k.",
"  ^ Y.T.T.T.T.Y.c._.5XyXyXyXyXyXyXyXyXtX,X~.j.Y.T.T.T.T.T.T.T.T.T.Y.j.^.,XuXyXyXyXyXyX8Xi c.R.T.T.T.T.T.T.T.T.R.g.A K J J K z x.",
"  ~ U.Q.T.T.T.T.T.C.`.3XuXyXyXyXyXyXtX$Xd z.Q.Q.T.T.T.T.T.T.T.T.T.z.~.2XyXyXyXyXyXyXyX=X8 0.Q.Y.T.T.T.T.T.T.T.T.m.U J J J K z v.",
"  y L.R.T.T.T.T.R.U.C.(.@X1X6X5X4X,X}.~.z.T.Q.Q.T.T.T.T.T.T.T.T.T.z.X.qXyXuXyXyXyXyXyX>X; Q T.R.T.T.T.T.T.T.T.T.Y.( F K J H Y P.",
"  t K.Q.T.T.T.T.T.T.Y.x.y.t.).p.p.p.Z.L.T.T.T.T.T.T.T.T.T.T.T.Q.R.L.E | @.@.$.#.#.#.$. .$ q P.R.T.T.T.T.T.T.T.T.T.x.x G K G T U.",
"    v.R.T.T.T.T.T.T.T.R.R.Y.Y.Y.Y.Y.R.Q.T.T.T.T.T.T.T.T.T.T.T.Y.R.L.E o @ @ @ @ @ @ @ % % 4 K.T.T.T.T.T.T.T.T.T.T.T.g.z Z A 3.R.",
"    z.R.T.T.T.T.T.T.T.T.T.T.R.R.T.T.T.T.T.T.T.T.T.T.T.T.T.T.Q.Q.T.T.>.* % % % % % % % % $ , h.Q.T.T.T.T.T.T.T.T.T.T.T.v.3.P l.R.",
"    w.R.T.T.T.T.T.T.T.T.T.R.R.R.R.T.T.T.T.T.T.T.T.T.T.T.T.T.Q.Q.T.R.8.4 @ # # . # # $ @ % O / Q.T.T.T.T.T.T.T.T.T.T.T.R.T.4.K.R.",
"    6.T.T.T.T.T.T.T.R.T.K.l.3.3.g.K.R.T.T.T.T.T.T.T.T.T.T.T.T.Q.T.R.8., . + - - - = + X . # e L.T.T.T.T.T.T.T.T.T.T.T.T.P.<.U.R.",
"    ! W.T.T.T.T.T.R.K.) U l S S l Y 0.U.T.T.T.T.T.T.T.T.T.T.T.T.T.R.0.3 b N m m n N N v = + 0 G.T.T.T.T.T.T.T.T.T.T.T.R.k.7.R.R.",
"    r K.R.T.T.T.R.c.T Z J K K K K H A ) L.T.T.T.T.T.Q.Q.T.T.T.T.T.R.4.k M m M m n n m m n v 0 x.R.T.T.T.T.T.T.T.T.T.R.Y.4.v.R.R.",
"      j.R.T.T.T.P.R F K J J J J J K K A ) Y.T.T.T.Q.Q.Q.T.T.T.T.T.R.4.1 m m M M M n m n m n 1 8.R.T.T.T.T.T.T.T.T.T.R.K.<.Y.R.R.",
"      1.T.T.T.T.3.Z K J J J K J J J K H z k.R.T.T.T.T.T.T.T.T.T.T.R.4.C [ { { %.{ { [ B M m - ) T.T.T.T.T.T.T.T.T.T.R.q.l.R.R.Y.",
"j.!   r P.R.R.L.T H J J J J J J J J K K F ( T.T.T.T.T.T.T.T.T.T.T.R.4.` ;.;.;.;.;.;.-.-.{ B 5 q K.T.T.T.T.T.T.T.T.T.L.<.P.T.T.T.",
"Q.Y.x.>.<.z.L.L.Y H J J H J J J J J J K H U P.R.Y.Y.R.R.T.T.T.T.T.R.6.` ;.*.;.;.;.;.;.;.;.-.B < ) Y.R.T.T.T.T.T.T.T.k.8.T.T.T.T.",
"Q.R.T.T.K.7.4.q.U H K J J H J J K J J J J U m.R.R.R.Y.R.T.T.T.T.T.R.>...;.;.;.*.;.;.;.*.;.*.%.V 3 x.R.T.T.T.T.T.T.U.<.K.R.T.T.T.",
"T.T.T.T.T.T.K.7.e Z J K J J J J J J J J H Y P.R.T.R.R.R.T.T.T.T.T.Y.2...;.*.*.*.*.*.*.*.*.*.=.&.2 q.R.T.T.T.T.T.R.k.7.T.T.T.T.T.",
"T.T.T.T.T.T.T.T.v.) z D J K J J J J K J G T U.R.T.R.R.Y.T.T.T.T.T.Y.e.oX;X:X;X;X;X;X;X;X;X:X:.B 9 k.R.T.T.T.T.T.L.<.K.R.T.T.T.T.",
"T.T.T.T.T.T.T.T.R.U.k.T A H K J J J J K l 8.T.T.T.T.T.T.T.T.T.T.R.J.a 0XyXyXyXyXyXyXyXyXyXuX$.6 E L.T.T.Q.Y.T.T.q.q.T.T.T.T.T.T.",
"T.T.T.T.T.T.T.T.R.R.Y.P.3.U D K J K K D R P.R.T.T.T.T.T.T.T.T.T.R.w.'.tXyXyXyXyXyXyXyXyXuX#Xi ) L.Q.T.T.T.Q.T.P.<.P.T.T.T.T.T.T.",
"T.T.T.T.T.T.T.T.Y.T.T.R.Y.x.R Z H H F U b.T.Y.T.T.T.T.T.T.T.Q.T.Q.s.@XyXyXyXyXyXyXyXyX5X Xp l.Y.T.T.T.T.T.T.T.q.x.R.T.T.T.T.T.T.",
"T.T.T.T.T.T.Q.T.T.T.T.T.R.R.P.) x x ( b.T.T.R.R.T.T.T.T.T.T.T.T.T.d.%XtXyXyXyXyXyX5XOXf ~ v.R.Q.T.T.T.T.T.T.L.k.Y.R.T.T.T.T.T.T.",
"T.T.Y.T.T.T.T.T.T.T.T.T.T.T.R.U.7.^ v.R.R.R.R.Y.T.T.T.T.T.T.T.T.R.d.}.5XiXqX6X%X|.s ~ 8.L.Q.R.Y.T.T.Y.T.T.T.L.Y.T.T.T.T.T.T.T.T.",
"T.R.R.T.T.T.T.T.T.T.T.T.T.T.R.R.R.k.<.v.R.R.R.Y.T.T.T.T.T.T.T.T.R.P.a s (.r.' p ~ l.U.Q.Q.Q.R.Y.T.Y.T.T.T.T.R.T.T.T.T.T.T.T.T.T.",
"T.T.T.T.T.T.T.T.T.T.T.T.T.T.T.T.T.T.c.<.x.R.R.R.T.T.T.T.T.T.T.T.T.T.J.x.J.P.L.L.Y.T.T.T.R.T.T.Q.L.Y.T.T.T.T.T.T.T.T.T.T.T.T.T.T.",
"T.T.T.T.T.T.T.T.T.T.T.T.T.T.T.T.T.T.R.v.<.k.R.R.T.T.T.T.T.T.T.T.T.T.T.R.R.R.Q.Q.T.T.T.T.R.T.Y.F.S.Y.T.T.T.T.T.T.T.T.T.T.T.T.T.T.",
"T.T.T.T.T.T.T.T.T.T.T.T.T.T.T.T.T.T.T.T.J.<.x.T.T.T.T.T.T.T.T.T.T.T.T.T.T.T.T.T.T.T.Y.Y.T.T.Y.A.M.R.T.T.T.T.T.T.T.T.T.T.T.T.T.T.",
"T.T.T.T.T.T.T.T.T.T.T.T.T.T.T.T.T.T.T.T.T.J.>.c.T.T.T.T.T.T.T.T.T.T.T.T.T.Y.U.U.I.I.I.Y.T.R.I.S.Q.Y.T.T.T.T.T.T.T.T.T.T.T.L.Y.T.",
"R.R.T.T.T.T.T.T.T.T.T.T.T.T.T.T.T.T.T.T.T.T.v.<.m.R.T.T.T.T.Y.T.T.T.T.F.A.A.V.V.V.V.A.S.F.M.G.W.T.T.T.T.T.T.T.T.T.T.T.T.R.j.x.R.",
"T.Y.T.T.T.T.T.T.T.T.T.T.T.T.R.Y.T.T.T.T.T.T.R.z.7.Y.T.T.T.T.Q.T.T.T.T.m.B.B.B.B.B.B.B.B.B.B.G.Y.T.T.T.T.T.T.T.T.T.T.T.T.R.g.q.R."
};