/* XPM */
static char *a2ff0d57f49545e3ad877ba13b2fd168Xn1qBtHC3fSYN2WK[] = {
/* columns rows colors chars-per-pixel */
"64 64 256 2 ",
"   c #160D03",
".  c #19120A",
"X  c #0C0D1B",
"o  c #090A16",
"O  c #120E1A",
"+  c #0C1319",
"@  c #13131D",
"#  c #181717",
"$  c #0D0C0B",
"%  c #271709",
"&  c #381A09",
"*  c #271916",
"=  c #351D14",
"-  c #260F05",
";  c #362418",
":  c #37210F",
">  c #0A0D28",
",  c #140E27",
"<  c #0E1325",
"1  c #0D132B",
"2  c #061428",
"3  c #111326",
"4  c #13142A",
"5  c #191828",
"6  c #0B1534",
"7  c #161535",
"8  c #0F0D33",
"9  c #251826",
"0  c #2E1C27",
"q  c #1B282B",
"w  c #272C27",
"e  c #3B2B22",
"r  c #362623",
"t  c #2C3432",
"y  c #363937",
"u  c #312F2E",
"i  c #1D241C",
"p  c #4B1D09",
"a  c #472707",
"s  c #582904",
"d  c #462717",
"f  c #542C14",
"g  c #563419",
"h  c #53340F",
"j  c #632C03",
"k  c #672800",
"l  c #673704",
"z  c #743903",
"x  c #673719",
"c  c #6D2D12",
"v  c #452C25",
"b  c #473428",
"n  c #563827",
"m  c #4F3A35",
"M  c #693627",
"N  c #75382A",
"B  c #6E3631",
"V  c #394539",
"C  c #6A4307",
"Z  c #7A4611",
"A  c #4A4537",
"S  c #54493E",
"D  c #56412C",
"F  c #7A4A2D",
"G  c #674538",
"H  c #774737",
"J  c #7B543A",
"K  c #6A4325",
"L  c #79613F",
"P  c #0E1843",
"I  c #293C4B",
"U  c #363B44",
"Y  c #1C4252",
"T  c #3B4644",
"R  c #254756",
"E  c #3F524C",
"W  c #3A4362",
"Q  c #474B48",
"!  c #574D46",
"~  c #4A524A",
"^  c #58544C",
"/  c #575A57",
"(  c #4C5154",
")  c #7A4943",
"_  c #785549",
"`  c #655C55",
"'  c #694E48",
"]  c #50615B",
"[  c #68625C",
"{  c #766853",
"}  c #586869",
"|  c #596974",
" . c #526E6F",
".. c #6E6A66",
"X. c #6A6A69",
"o. c #726C66",
"O. c #726E6A",
"+. c #796E65",
"@. c #75726E",
"#. c #7A726E",
"$. c #7B7768",
"%. c #676C74",
"&. c #687577",
"*. c #757372",
"=. c #7B7573",
"-. c #7C7A75",
";. c #7C7B7B",
":. c #777879",
">. c #6E726F",
",. c #5F5A61",
"<. c #4D3D48",
"1. c #863A17",
"2. c #873737",
"3. c #811F16",
"4. c #8C4E06",
"5. c #844A38",
"6. c #87553B",
"7. c #935432",
"8. c #A15B32",
"9. c #8D3C43",
"0. c #A83A4F",
"q. c #8A4A48",
"w. c #895948",
"e. c #955949",
"r. c #865B54",
"t. c #965A57",
"y. c #97494C",
"u. c #A45950",
"i. c #8A624B",
"p. c #97644A",
"a. c #8A665A",
"s. c #986757",
"d. c #987152",
"f. c #A76958",
"g. c #B46B5C",
"h. c #AA6C55",
"j. c #9B5D63",
"k. c #8C6864",
"l. c #986B67",
"z. c #9B7469",
"x. c #817976",
"c. c #837D7B",
"v. c #847774",
"b. c #977874",
"n. c #8B746C",
"m. c #A76A66",
"M. c #B46A65",
"N. c #A97469",
"B. c #B8766A",
"V. c #AA7775",
"C. c #B47A74",
"Z. c #B87877",
"A. c #AD6E73",
"S. c #A85C62",
"D. c #C3796D",
"F. c #C57B77",
"G. c #CD7475",
"H. c #789075",
"J. c #7B8F5A",
"K. c #85817E",
"L. c #88867A",
"P. c #8E8F77",
"I. c #B8837A",
"U. c #AA837C",
"Y. c #8EA679",
"T. c #C4837B",
"R. c #D2867B",
"E. c #777C85",
"W. c #677789",
"Q. c #5F7280",
"!. c #817F81",
"~. c #AF7E82",
"^. c #C97C83",
"/. c #D37C84",
"(. c #798688",
"). c #7B8893",
"_. c #799089",
"`. c #7DA088",
"'. c #858282",
"]. c #898483",
"[. c #8B8A86",
"{. c #84848B",
"}. c #89868B",
"|. c #838A8D",
" X c #8B8A8C",
".X c #848C83",
"XX c #948C8A",
"oX c #8A9689",
"OX c #95968B",
"+X c #838591",
"@X c #838B93",
"#X c #8B8B91",
"$X c #858C98",
"%X c #938A97",
"&X c #8A9497",
"*X c #939493",
"=X c #959B95",
"-X c #9A9C95",
";X c #9A9C9B",
":X c #959699",
">X c #A49C9A",
",X c #B28987",
"<X c #8AA598",
"1X c #98A59A",
"2X c #93A98C",
"3X c #A2A49D",
"4X c #A8A999",
"5X c #A9B796",
"6X c #AEAD92",
"7X c #9B9DA3",
"8X c #969BA6",
"9X c #8B99AF",
"0X c #8CA9A2",
"qX c #9CA3A4",
"wX c #99A7A7",
"eX c #99AAB4",
"rX c #A4A4A4",
"tX c #A3A4AA",
"yX c #A3ABAB",
"uX c #ABACAC",
"iX c #A7AAA6",
"pX c #B5ACA8",
"aX c #A7B3A8",
"sX c #B4B3A9",
"dX c #ABACB2",
"fX c #A6ACB7",
"gX c #AAB2B7",
"hX c #B3B4B4",
"jX c #B6B8B9",
"kX c #B6ABB7",
"lX c #A29FAB",
"zX c #C98685",
"xX c #D48687",
"cX c #CC9093",
"vX c #C5B5B1",
"bX c #C393A1",
"nX c #B8C5B5",
"mX c #C5C4BE",
"MX c #B8BBC5",
"NX c #ABB5C8",
"BX c #92B2D1",
"VX c #C2BECA",
"CX c #B9C3C8",
"ZX c #B6C9D8",
"AX c #B0CFED",
"SX c #A9D5EA",
"DX c #C6C7C7",
"FX c #C6C9D2",
"GX c #D8D8D8",
"HX c #D3D2CE",
"JX c #E3E5DC",
"KX c #D1D6E4",
"LX c #D2E4F4",
"PX c #FFFEFB",
"IX c #F8F8F7",
"UX c #E9EDEC",
/* pixels */
";.:.;.:.;.;.:.:.:.:.:.=.=.*.=.:.*.*.*.*.%.*.*.>.*.*.*.*.O.O.O.O.O.O.@.X.>.@.@...*.X.O.X.O...X.............................o.....",
";.;.;.;.;.:.;.;.x.:.:.=.=.=.:.=.=.=.*.*.*.=.*.*.X.X.X.O.*.-.:.:.O.*.>.>.@.X.O.@.O.O.O.O.O...O.O...O.O...o.O.O.o...O.o...o.o...+.",
";.;.;.;.;.;.;.;.:.:.:.;.:.=.=.=.*.*.=.=.=.*.*.@.:.=.;.;.c.K.'.K.].K.-.*.>.>.....O.O.O.O.O.O.O.O.o.O.O.O.O...O...O.O.o.O.O.O.o.o.",
"c.c.E.c.;.;.;.;.:.;.:.x.:.;.:.:.;.=.=.*.*.*.*.;.;.'.[.].[.[.'.L.:.@.>.@.@.O.@.@.O.O.O.O.O.O.O.O.O.X.O.O.O.o.O.o.O.O.O.O.O.o.+.o.",
"E.c.;.;.E.c.c.;.;.;.;.;.;.;.:.;.:.:.x.!.!.!.].[.[.XX[.L.K.K.x.=.-.=.*.@...@.*.*.O.O.@.@.O.O.O.O.O.O.O.o.O.O.o.@.O.O.O.o.O.+.O.+.",
"c.!.'.;.;.c.E.c.;.;.;.-.:.v.=.=.=.=.!.!.XXXX*X-XOXc.o.` ^ ^ ^ ^ ..O.#.=.#.*.*.O.*.#.*.O.*.@.@.@.@.O.O.@.O.@.o.@.#.O.@.O.+.O.O.@.",
"!.!.!.!.'.K.c.c.x.-.=.*.*.#.=.=.c.;.x.:.!.!.c.#.' y *     . . # * e S ^ [ #.=.*.*.@.*.#.*.#.@.#.@.@.@.@.@.@.@.@.@.O.O.@.O.#.#.#.",
"!.!.'.!.'.E.'.E.c.-.=.#.O.#.#.=.*.=.:.:.v.+.! e ; %   . . % # .   % = * v ! ..*.#.*.O.@.*.#.@.@.@.@.@.@.#.#.@.#.@.#.#.@.@.@.+.#.",
"!.].c.K.K.!.[.!.K.K.K.c.;.;.c.;.;.=.=.+.! ; e * * % . . . $ $ $ . . r ; ; : e { -.=.*.:.*.#.=.:.#.#.@.@.*.#.*.+.#.=.#.=.#.#.#.v.",
"}.K.[.[.].].x.!.'.'.].K.K.c.c.c.c.c.L.A ; ; % ; %   . . . . *     . . = b ; b b { #.=.@.-.#.-.-.*.*.-.=.#.#.=.=.#.v.=.#.=.=.#.#.",
"K.].K.K.x.c.XX].'.K.].K.'.K.K.K.c.[...r ; = ; v r . = v : % & & : - % : d d d g n { v.=.c.=.#.#.-.=.=.=.=.=.=.v.=.=.=.v.v.=.v.v.",
"XXOXpXsXiX>XXX[.K.].K.].K.K.K.'.K.v.y e r ; e e ; d G t.w.H H H ) G n : a b d b D _ v.@.-.-.x.L.c.c.x.x.=.-.=.=.v.x.v.-.x.v.:.v.",
"HXPXPXPXPXPXIXrX].].].[.].].].].K.! ; e = d b n ) z.C.B.B.m.f.s.f.N.e.H n d g g h D +.;.;.'.;.-.:.c.c.c.-.x.-.c.v.c.c.v.x.x.x.x.",
"PXPXPXPXIXJXvX*X[.}.[.[.[.}.}.[.+.e b v : n ) a.Z.xXT.F.D.D.B.D.B.M.B.B.e.K g h g d { L.!.H.K.c.c.c.c.x.c.c.x.x.c.v.c.v.x.x.x.x.",
"PXIXGXDXtX}.}.[.}.[. X X[. X[. X` r b b n H m.C.zXzXT.R.T.F.D.D.D.g.D.B.C.B.F h h d S v.c.v.x.c.v.v.=.=.x.c.!.b.c.c.c.c.c.v.v.x.",
"jX;X}.E.!. X'. X X#X X%X X X X%X! ; d n _ N.C.T.zXxXzXzXF.F.F.F.B.T.T.D.T.T.h.6.g g n L.XXXXsXmXHXJXHXsX-Xc.x.!.c.c.c.c.c.!.v.!.",
"!.+X{.+X+X+X+X+X@X{.#X*X#X[.#X#Xm e e b _ N.F.xXzXxXxXxXzXG.G.F.F.G.G./.R.T.B.s.K d G mXJXIXPXPXPXPXPXJXpXv.c.!.b.].!.b.!.c.b.c.",
"{.+X|.|.|.|.|.|.$X).+X#X#X:X:X%Xm r v n r.Z.I.^.cX/./.xXzX^.F.Z.D.F.Z.~.D.T.I.g.F a G IXPXPXIXUXGXjX3XOX!.XXXX!.].!.L.!.].].K.].",
"@X).@X).@X).@X@X$X$X$X&X&X8X8X$X' v v n r.C.zXzX,X^.^.^.^.^.G.F.g.s._ B M B 6.h.6.h D HXHXhX>X X].'.!.].!.!.].!.].].].!.].'.].K.",
"$X$X$X$X$X&X).&X$X).$X$X&X&X%X8X` e v m m.B.A.l.r.) B B w.A.Z.M.5.d p p M K N q.p.g d b.XXXX}.#X X#X XXX}.}. X X}.}.}.].].].].].",
"| | | &.W.E.(.E.(.(.).(.|.|.*X:X[ v v ' V.V.l.) ) B v M H z.I.N.M c B B B B N 5.i.M d L.#X%X%X$X}.}.+X!.#X}.{.!.}.}.}.+X}.}.}.}.",
"w q w w t t t t y U T T ( / ..@.` y b _ U.m.t.q.y.9.B 9.9.f.R.xXN c ) v & M c H N.F d .X&X@X%X+X}.#X!.!.!.!.+X%X#X}.#X$X}.+X+X#X",
"/ / E E ~ T T V U U y V t u y ! ^ u v _ ~.m.t.q.B 0 v ) q.m.F.G.p.M r.m v H K J d.J g z.XX|.#X+X#X$X#X#X%X{.+X!.}.#X%X$X#X#X+X#X",
"_.).(.(.).).(.(.H.&.&.&.,.Q Q @.v.<.r ' V.~.j.) +.v G t.m.A.B.xXB.9.9.9.2.5.f.g.B.7.6.3.9.[ / ` X.,.X.%.:.E.;.E.E.!.!.!.!.+X+X+X",
"0X8X:X8XfXFXMXhXZXNXeXeXeX .| ZXKXn.v G A.I.V.M.t.S.j.A.Z.B.G./.D.u.p.e.u.M.D.D.B.p.7.1.1.' Q m A A A ! m A S S ! ! S ! ` ^ [ [ ",
"8X0XwXyXuXFXKXUXUXFXjXMXgX| (.IXGXu.j.' N.zXZ.zXZ.A.A.^.Z.Z.R.R.R.g.u.B.G.D.B.T.N.h.7.8.y.v.*.!.@.@.[ ^ / ..[ ` / ` ` S ! ^ ! ! ",
"wX<XwXaXyXCXJXJXHXmXhXjXaX .&.FXvX2.G.t.l.T.zX^./././.cXF.F.F.Z.g.u.u.h.D.R.F.B.N.N.u.1.u.jXMXkXhXuX;.^  XiX;X*X%XXXP.L.L.-.=.x.",
"wX1XyXyXrXhXjXjXhXhXhXhXyX&.&.yXiXZ.M.f.V.I.,X/.^.xXcX/.F.m.y.t.N c 5.h.g.D.D.B.g.d.8.3.8.pXKXVXMXjX'.^ ;XvXdXrXtX3X1XOXP.-XOXrX",
"qXwXqXqXqXuXjXjXnXCXfXfXfX| %.hXMX>Xu.A.~.V.zXxXxXxXxXxXzXu.B q.N H h.g.g.g.M.g.B.d.7.8.u.kXMXMXgXkX'.^ *XhXiXrXiXaX1XP.P.4X1X>X",
"qXwXeXqXyXgXjXCXZXZXtXeXNX&.W.ZXIXbXG.xXA.A.^.F.xXxXxXxX^.Z.A.m.t.B.B.B.g.g.g.h.p.d.u.g.N.jXMXhXfXdX(.~  XhXsXrXqXaX1XP.oXaX3X[.",
"wXyXwXwXaXaXMXZXZXCXtXfXgXQ.).KXLXkXG.M.Z.A.z.zXF.F.^.zXF.zXcXA.M.S.M.B.N.f.s.e.p.i.q.l.>XMXNXlXlX7X:.U &XgXuX*X=XwX-X[.>XuX=X:.",
"iXyXfXyXyXyXCXKXGXGXDXFXCX| ).LXKXVXI.G.^.~.b.~.Z.^.Z.~.zXB.S.y.3.N 2.N M w.f.u.6.z.N.XXNXMXMXNXNXNX).I ).gXgX;XwXgXtXiXMXhXqX X",
"iXwXyXaXaXyXnXGXJXGXDXmXNX .Q.HXCXnXvX,XA.V.V.Z.Z.F.I.m.y.9.y.0.0.0.9.2.2.e.f.i.e.n.jXrXqXgXMXMXMXVX$XI (.gXgX8XyXdXrXhXjXdXtX#X",
"1XaXyXwX1XyXjXVXjXjXdXhXNXQ. .eX5X4X6XpXvX,XV.A.Z.Z.Z.m.S.M.A.S.y.9.q.s.h.p.w.e.6.b.iXrXgXCXKXLXKXFX9XI :.fXgXtXqXqX;X>X>XtX;X}.",
"0X1X<X<XqX1XiXjXjXfXgXgXeX .] aX3X-X>X6XDXpXV.Z.A.V.Z.I.T.zXC.t.j.t.s.p.p.p.6.6.6.*XuXpXNXMXGXKXFXMX).I E.yXfX;X:XqX1X-X*XiX>X&X",
"&X_.&X_.oX-XaXjXjXgXgXhXaX .] 5X4X2X6XvXmXHXXXV.V.A.A.B.Z.Z.C.C.G.A.B.f.p.p.6.6.i.lXdXrXkXMXDXFXkXfX).I E.yXtX*X=XqX;X=XXX3X-X[.",
"~ V E T T ~ ] / ..X.} [ X.T T $.>.>.H.OXOX6XXXb.V.V.A.B.Z.D.F.zX/.A.M.g.f.d.e.F n.8XtX-XfXMXMXMXfXyX).I W.wX7X*X&X;X=X-XOX1X-XoX",
"# # O # . # # . . # . # # + E P.oXoXP.P.P.P.U.l.l.b.V.C.I.Z.Z.F.V.m.s.w.p.e.6.F v.E.).c.@X&X{.+X:.;.| q } (.:.o.&.H.>.*.$.@.-.@.",
"w t t t w w . # w t q i # + ~ 5X5X5X6X6X5XmXbXB.k.k.l.z.A.C.A.m.r.r.) J 6.K x 6.>X8XgXkXdXgXdXtX*X=XW.I %.&X#XH.(.|.H.-.-.=.@.@.",
"H._.&.(.H.] i u *X&X_.~ # . ~ 6X5X5XY.Y.Y.nX6X,Xb.k.k.k.k.a.r.r.N B N x f h F d.>XqXMXvXsXCXDXuXrXsX).I (.NXgX[.=X;X*X*X-X-X[.[.",
"0XyX0X0X0X} i A uXjXgX} 3 + ] 5X5XY.Y.2XY.5X>XI.I.z.a.{ r.r.H G H n f f h H 6.d.3XtXMXjXuXjXhXjXdXaX9XY (.aXyX:X#X=X1X*X-X*X}.;X",
"aXeX0X1X&X .i V >XkX7X,.@ + ~ 2XY.P.2XY.P.aX>XT.I.N.d.a.r.w.H H M B x M F i.p.d.4XrXMXjX>XhXjXjXdXuX).R ).aXuXqXoX=X3X*X;XoX}.-X",
"wXyX<X2X_.} # y >XdX8X,.# + V Y.J.J.H.J.2X[ l.R.T.I.V.V.V.N.l.s.w.6.F J 6.p.d.i.c.;XdXjXiXhXuXMXuXrX).R E.wXtXyX:X;X1XOX;X:X#X1X",
"0XaX0X<XoX&.# y rXfX8X/ i + V J.J.H.<X<XwXr P.cXT.I.I.I.I.C.N.N.f.5.6.w.i.p.N.G ( tXdXuXrXuXdXkXuXrX).Y &.=XqXtX:X1X-XoX=X;X:X>X",
"0XaX<XoX<X .+ V iXgX8X( i + E H.H.<X0XeX9XP b.bXI.T.I.,XV.C.C.A.w.5.6.w.p.d.s.e Q tX>XtXrXuXgXuXdXiX).Y %.1X;XwXoX-X1X-X=X:X#XlX",
"5XaX2X`.0XH.+ V dXNX8X( i + E H.Y.<X<XaXW.> <.,XzX,XI.C.V.V.C.A.F 5.J w.l.s.' O U lXlXiXrXlXtXlXlXrX@XR %.;X:X&X#X*XOXoXoX*X#XrX",
"aXaX<X<X0X .+ V iXdX:X~ i + E `.H.H.0XgX| 6 9 _ ,XzXV.V.V.V.l.q.J 6.w.r.l.i.m < 7 $XlXtX>X>XqXlX8X3X+XR %.1X=X&X=X}.L..X[.=X*XtX",
"5X5X5X0X0X .i t ;XqX#XV + + E `.H.H.(.W P P P v z.I.U.U.U.U.m.r.t.J w.k.s._ e 1 9 t ,.7XuXtXqX7X7XrX).R &.1X:X&X#X[.[.oXoX#X X7X",
"aX1XwX0X<X| 5 V 0XeX$X( , + V _.L.S 5 8 7 P P * H V.~.V.~.~.~.l.l.) k.r.b 7 5 @ 9 O 8 u J.,XlXeXtXfX(.R %.tXtX&X:X.X_.&X:XXX[.=X",
"4X1X2X2X<X .+ V rXuX;X( o # A G h r 3 6 P 6 # 9 d r.V.V.A.!.l.l.r.r.r.= = X @ X o @ 8 5 a l w.P.MXLXZXR  .wX1X=X%X%XoXL.oX[.|.}.",
"5X1X<X0XwX| + t lXfX9X/ a s l s k d 7 6 6 1 9 = % M s.N.b.b.l.k.r.a._ = * o X o , 3 < r l l s l Z U.aX]  .gXwX X:X%X%X.X.X).).L.",
"1X0X`.1XaX| 4 y ;XXX_ x l l s a z a 5 6 4 6 4 # # ; H l.A.b.l.k.l.z.' & # $ X X 3 3 , a j l s l s k h n G U.*X8X:X9XeXNXNXeX0X&X",
"ZXSXBXaX0X .i h J l s k l s s s s * 4 1 4 1 1 P @ % g p.l.l.l.b.l.~.b % $ $ , O $ 3 9 f l j s z s l l z z C K i.OXNXAXLXLXLXSX$X",
"SXAXSXeXP.` h C s s s l j k s a e 5 8 1 3 2 2 6 3 . d J l.l.l.l.~.~.; O O # O , 9 4 , * d f s j s l x l z z z z C c.BXAXSXBXBX<X",
"BXSXeX{ C k k s j l j p * * O * 8 < 1 4 5 6 8 + 6 # & M p.l.V.V.,Xr.- X O o O 5 > 3 < 2 1 3 * ; d & s l l l C l z z _ 8X9X} } 2X",
"BX>.C s s j l s a = 5 > 1 4 , , # 4 8 < < 6 , , 6 3 - h w.z.~.Z.cX'   3 < X 3 < $ , 5 + 4 7 8 2 2 4 5 9 * ; d d l z z C ` *.;.H.",
"n g j j s : * 5 , < < 4 4 , < 3 1 < < < < 1 < 2 4 < # & z 8.8.8.5.: O X X 3 O 3 3 3 5 5 4 4 5 3 5 4 1 5 4 4 4 5 7 w f l C J #X(.",
"l s : * 5 8 4 7 < 3 4 3 < 4 4 < 3 < 4 , < < , < 1 + 5 & f Z Z 4.l % O < X O @ 3 4 4 4 4 5 4 4 4 1 4 4 4 4 4 7 7 * 5 7 w a g %.W.",
"r 0 5 4 1 1 , O 3 3 4 4 4 3 3 < 1 , 1 < 4 1 , , 8 + 8 % p z 4.z a - , < @ 4 3 3 4 4 4 5 4 4 4 4 4 4 1 4 4 4 4 4 7 4 6 7 7 9 U I ",
"> 8 3 @ 5 3 3 3 3 3 1 3 4 3 3 3 3 < , < , < < < 7 + 8 . p l 4.4.d # < 3 3 4 4 3 7 4 4 4 7 4 4 4 4 4 5 4 4 4 4 4 7 5 3 4 , > 7 9 ",
"3 3 3 < < < < 3 3 3 1 4 1 < 4 < , < < , 4 < 1 < 4 + 4 5 a s 4.z % @ 1 @ O < 4 7 4 4 4 7 5 4 4 4 5 4 4 4 3 4 4 1 + 4 , @ 3 5 5 9 ",
"7 4 4 1 4 3 3 O < 3 3 3 4 4 3 3 4 < 4 4 , < , , 4 3 5 , & s 4.l * , < , 3 < 7 3 4 4 4 4 1 4 4 4 1 4 4 4 4 3 4 4 3 3 3 3 9 , @ 3 ",
"2 < 1 3 3 3 8 , 3 4 < 4 3 1 4 < < 4 4 3 < < < 3 < 3 4 8 & s Z f @ 3 > , 4 4 4 , < 4 4 4 4 4 4 4 4 4 4 < 3 3 3 3 @ , X < , 3 @ 5 ",
"4 4 4 1 < < 3 < < 3 4 4 3 4 3 3 3 3 3 3 4 3 4 < < 3 4 8 * a K p O 4 1 5 3 < 3 7 q 4 < 4 4 4 4 4 4 4 4 4 3 3 3 < < , # + X < @ 5 "
};
