/* XPM */
static char *result[] = {
/* columns rows colors chars-per-pixel */
"64 64 225 2 ",
"   c #020201",
".  c #090601",
"X  c #0E0902",
"o  c #020A09",
"O  c #070B0A",
"+  c #140C03",
"@  c #190F04",
"#  c #0A130D",
"$  c #1E1205",
"%  c #1C190D",
"&  c #021311",
"*  c #0A1513",
"=  c #051C19",
"-  c #0B1C1A",
";  c #041C17",
":  c #141815",
">  c #231506",
",  c #2A1A07",
"<  c #2D1B08",
"1  c #261909",
"2  c #321F09",
"3  c #1F231C",
"4  c #05221C",
"5  c #34210B",
"6  c #3C250B",
"7  c #322A16",
"8  c #052622",
"9  c #042A25",
"0  c #0B2D29",
"q  c #082925",
"w  c #142928",
"e  c #0A342E",
"r  c #06342C",
"t  c #15332D",
"y  c #0A3632",
"u  c #0A3B35",
"i  c #0B3E3A",
"p  c #143B3A",
"a  c #193937",
"s  c #233C3C",
"d  c #293C38",
"f  c #2F352E",
"g  c #452A0D",
"h  c #4B2E0E",
"j  c #40270C",
"k  c #4F310F",
"l  c #51320F",
"z  c #543410",
"x  c #583611",
"c  c #5E3911",
"v  c #4C2E10",
"b  c #643D13",
"n  c #6B3F15",
"m  c #0A443D",
"M  c #11423D",
"N  c #22403F",
"B  c #6C4215",
"V  c #664016",
"C  c #714516",
"Z  c #734618",
"A  c #7D4C1A",
"S  c #774A17",
"D  c #0C4D44",
"F  c #064D45",
"G  c #164845",
"H  c #0C5147",
"J  c #0B564B",
"K  c #16534D",
"L  c #0D5C52",
"P  c #1B5551",
"I  c #165954",
"U  c #264646",
"Y  c #255A59",
"T  c #385757",
"R  c #344F4D",
"E  c #0C6659",
"W  c #15675C",
"Q  c #34635E",
"!  c #0B6D63",
"~  c #1B6864",
"^  c #027464",
"/  c #14756A",
"(  c #167669",
")  c #1A7D74",
"_  c #256A66",
"`  c #3B6868",
"'  c #27736D",
"]  c #277A75",
"[  c #3A7B7A",
"{  c #3C706E",
"}  c #456969",
"|  c #4A7777",
" . c #814E1B",
".. c #84521C",
"X. c #8A561D",
"o. c #8D591F",
"O. c #925A1F",
"+. c #975E20",
"@. c #9E6323",
"#. c #0C8476",
"$. c #158575",
"%. c #16887C",
"&. c #23847C",
"*. c #30847F",
"=. c #0D9D8A",
"-. c #0D9486",
";. c #1C9B8D",
":. c #169588",
">. c #189C93",
",. c #158D83",
"<. c #248C81",
"1. c #239C8E",
"2. c #279289",
"3. c #289C92",
"4. c #359691",
"5. c #388B88",
"6. c #0DA18E",
"7. c #14A18E",
"8. c #0FA492",
"9. c #0EA998",
"0. c #14A493",
"q. c #1BA695",
"w. c #1CAB9A",
"e. c #17A899",
"r. c #22A59B",
"t. c #25AC9C",
"y. c #2BAC9D",
"u. c #24A696",
"i. c #2FAA9E",
"p. c #1DADA0",
"a. c #1FB4A7",
"s. c #28ACA3",
"d. c #38AAA4",
"f. c #2CB4A4",
"g. c #24B4AB",
"h. c #27B6A8",
"j. c #33BBAC",
"k. c #32B4A8",
"l. c #2CBDB2",
"z. c #24BAB3",
"x. c #33BEB2",
"c. c #3BBEB3",
"v. c #3AB8B6",
"b. c #578685",
"n. c #4A9390",
"m. c #488987",
"M. c #639A99",
"N. c #4FA09E",
"B. c #4DABA7",
"V. c #57B1AE",
"C. c #4BBEB9",
"Z. c #56B6B2",
"A. c #56ACAB",
"S. c #66A7A7",
"D. c #70BBBB",
"F. c #1FCBB8",
"G. c #2FC1AF",
"H. c #2AC3B7",
"J. c #34C1B5",
"K. c #39C3B6",
"L. c #34C5B9",
"P. c #3CC6B9",
"I. c #35C9BD",
"U. c #3BCABD",
"Y. c #25D3BE",
"T. c #42C8BD",
"R. c #55C4BF",
"E. c #60C1BF",
"W. c #1ED9C7",
"Q. c #3ECEC2",
"!. c #35CDCA",
"~. c #2CD6C4",
"^. c #24DBCA",
"/. c #2BDBCB",
"(. c #27D9C6",
"). c #32D9C6",
"_. c #34DDCC",
"`. c #3BDDCD",
"'. c #38D6C9",
"]. c #3BDFD0",
"[. c #33DFD5",
"{. c #2FD5CA",
"}. c #38E1CF",
"|. c #35E5D1",
" X c #3BE2D2",
".X c #37E7D7",
"XX c #43CDC2",
"oX c #4AC8C3",
"OX c #5BC5C1",
"+X c #43D1C6",
"@X c #45D3CA",
"#X c #49D4CB",
"$X c #4AD6CC",
"%X c #48DBD1",
"&X c #53DAD2",
"*X c #57DFD9",
"=X c #54D0CA",
"-X c #78C6C5",
";X c #72D7D5",
":X c #72CECB",
">X c #44E2D4",
",X c #4AE6D9",
"<X c #54E9DE",
"1X c #58E4DA",
"2X c #6AE4DE",
"3X c #5BECE2",
"4X c #54EDE2",
"5X c #56FAED",
"6X c #56F4E8",
"7X c #5BFDF3",
"8X c #4FF3E5",
"9X c #65ECE4",
"0X c #77EBE8",
"qX c #67F3EA",
"wX c #76F3ED",
"eX c #62FFFE",
"rX c #6FFEF6",
"tX c #7EFEFA",
"yX c #93B3B3",
"uX c #A0D5D5",
"iX c #91E1DF",
"pX c #98F8F6",
"aX c #89F2F0",
"sX c #A9F4F4",
"dX c None",
/* pixels */
"dXdXdXdXdXdXdXdXdXdXdXdXdXdXdXdXdXdXdXdXdXdXdXdXdXdXdXdXdXdXdXdXdXdXdXdXdXdXdXdXdXdXdXdXdXdXdXdXdXdXdXdXdXdXdXdXdXdXdXdXdXdXdXdX",
"dXdXdXdXdXdXdXdXdXdXdXdXdXdXdXdXdXdXdXdXdXdXdXdXdXdXdXdXdXdXdXdXdXdXdXdXdXdXdXdXdXdXdXdXdXdXdXdXdXdXdXdXdXdXdXdXdXdXdXdXdXdXdXdX",
"dXdXdXdXdXdXdXdXdXdXdXdXdXdXdXdXdXdXdXdXdXdXdXdXdXdXdXdXdXdXdXdXdXdXdXdXdXdXdXdXdXdXdXdXdXdXdXdXdXdXdXdXdXdXdXdXdXdXdXdXdXdXdXdX",
"dXdXdXdXdXdXdXdXdXdXdXdXdXdXdXdXdXdXdXdXdXdXdXdXdXdXdXdXdXdXdXdXdXdXdXdXdXdXdXdXdXdXdXdXdXdXdXdXdXdXdXdXdXdXdXdXdXdXdXdXdXdXdXdX",
"dXdXdXdXdXdXdXdXdXdXdXdXdXdXdXdXdXdXdXdXdXdXdXdXdXdXdXdXdXdXdXdXdXdXdXdXdXdXdXdXdXdXdXdXdXdXdXdXdXdXdXdXdXdXdXdXdXdXdXdXdXdXdXdX",
"dXdXdXdXdXdXdXdXdXdXdXdXdXdXdXdXdXdXdXdXdXdXdXdXdXdXdXdXdXdXdXdXdXdXdXdXdXdXdXdXdXdXdXdXdXdXdXdXdXdXdXdXdXdXdXdXo       dXdXdXdX",
"dXdXdXdXdXdXdXdXdXdXdXdXdXdXdXdXdXdXdXdXdXdXdXdXdXdXdXdXdXdXdXdXdXdXdXdXdXdXdXdXdXdXdXdXdXdXdXdXdXdX    : f R T | | * * . dXdXdX",
"dXdXdXdXdXdXdXdXdXdXdXdXdXdXdXdXdXdXdXdXdXdXdXdXdXdXdXdXdXdXdXdXdXdXdXdXdXdXdXdXdXdXdXdXdXdXdXdX: | -X;XiXsXaXpXD.s v.w   dXdXdX",
"dXdXdXdXdXdXdXdXdXdXdXdXdXdXdXdXdXdXdXdXdXdXdXdXdXdXdXdXdXdXdXdXdXdXdXdXdXdXdXdXdXdXdXdXdXdXdXf yX' 6X3X3X4XpXb.U T.oX- o dXdXdX",
"dXdXdXdXdXdXdXdXdXdXdXdXdXdXdXdXdXdXdXdXdXdXdXdXdXdXdXdXdXdXdXdXdXdXdXdXdXdXdXdXdXdXdXdXdXdXR sXuX_ 3X3X3XiXU ' #X@XOXt e dXdXdX",
"dXdXdXdXdXdXdXdXdXdXdXdXdXdXdXdXdXdXdXdXdXdXdXdXdXdXdXdXdXdXdXdXdXdXdXdXdXdXdXdXdXdXdXdX  T pXeX-X*.*X3X-Xa i.#X#X@XD.p P dXdXdX",
"dXdXdXdXdXdXdXdXdXdXdXdXdXdXdXdXdXdXdXdXdXdXdXdXdXdXdXdXdXdXdXdXdXdXdXdXdXdXdXdXdXdXdXo } pXeXeXV.C.9XS.a v.@X#X@X@XZ.G <.dXdXdX",
"dXdXdXdXdXdXdXdXdXdXdXdXdXdXdXdXdXdXdXdXdXdXdXdXdXdXdXdXdXdXdXdXdXdXdXdXdXdXdXdXdXdXo b.tXeXeX7X6X9Xb.G XXXX@X@X@X#XS.P 4.  dXdX",
"dXdXdXdXdXdXdXdXdXdXdXdXdXdXdXdXdXdXdXdXdXdXdXdXdXdXdXdXdXdXdXdXdXdXdXdXdXdXdXdXdXo M.rX7X7XeX5XqX| Y @XXX@X&X*X*X9XS.P d.  dXdX",
"dXdXdXdXdXdXdXdXdXdXdXdXdXdXdXdXdXdXdXdXdXdXdXdXdXdXdXdXdXdXdXdXdXdXdXdXdXdXdXdXO A.qX7X7X7X7X9XQ ' oXXX4.[ Y N U Q } P x.o dXdX",
"dXdXdXdXdXdXdXdXdXdXdXdXdXdXdXdXdXdXdXdXdXdXdXdXdXdXdXdXdXdXdXdXdXdXdXdXdXdXdX* C.4X5X5X5X5X9XR n.oXQ.x.g.z.z.g.l.r.y ~ J.= dXdX",
"dXdXdXdXdXdXdXdXdXdXdXdXdXdXdXdXdXdXdXdXdXdXdXdXdXdXdXdXdXdXdXdXdXdXdXdXdXdX- @X X4X5X5X5X2XN V.#XXXQ.x.L.!.x.z.l.( i >./ q dXdX",
"dXdXdXdXdXdXdXdXdXdXdXdXdXdXdXdXdXdXdXdXdXdXdXdXdXdXdXdXdXdXdXdXdXdXdXdXdXt %X[.>X8X5X5X:Xd :X&XXXXXx.!.Q.L.x.g.G K g.>.L   dXdX",
"dXdXdXdXdXdXdXdXdXdXdXdXdXdXdXdXdXdXdXdXdXdXdXdXdXdXdXdXdXdXdXdXdXdXdXdXN *X/.|.,X8X6XZ.N ;X&X+XXXQ.H.!.L.Q.s.y / g.s.! o dXdXdX",
"dXdXdXdXdXdXdXdXdXdXdXdXdXdXdXdXdXdXdXdXdXdXdXdXdXdXdXdXdXdXdXdXdXdXdXT 3X[.^.].8X6Xn.R 2X$X$X+XXXL.l.x.x.3.8 <.g.>.F   dXdXdXdX",
"dXdXdXdXdXdXdXdXdXdXdXdXdXdXdXdXdXdXdXdXdXdXdXdXdXdXdXdXdXdXdXdXdXo } <X X^.|.>X4X{ [ 2XT.+X+X+XP.x.L.L.) q >.s.:.0 dXdXdXdXdXdX",
"dXdXdXdXdXdXdXdXdXdXdXdXdXdXdXdXdXdXdXdXdXdXdXdXdXdXdXdXdXdXdXdXo m.<X]./.^._.1XR B.&XP.U.+XT.T.c.l.L.I i r.p.) & dXdXdXdXdXdXdX",
"dXdXdXdXdXdXdXdXdXdXdXdXdXdXdXdXdXdXdXdXdXdXdXdXdXdXdXdXdXdXdXo N.,X%X/.(.^.%XN B.oXK.K.T.Q.T.K.l.h.M L e.p.I o dXdXdXdXdXdXdXdX",
"dXdXdXdXdXdXdXdXdXdXdXdXdXdXdXdXdXdXdXdXdXdXdXdXdXdXdXdXdXdX# V.>X`._.^.(.`.s V.T.K.K.U.T.U.U.J.r.0 ! >.:.y   dXdXdXdXdXdXdXdXdX",
"dXdXdXdXdXdXdXdXdXdXdXdXdXdXdXdXdXdXdXdXdXdXdXdXdXdXdXdXdX: OX>X%X).^.W.!.a C.XXK.j.c.P.U.U.K.2.q #.>.#.= dXdXdXdXdXdXdXdXdXdXdX",
"dXdXdXdXdXdXdXdXdXdXdXdXdXdXdXdXdXdXdXdXdXdXdXdXdXdXdXdX4 =X X X_.(.W.z.i oXQ.c.K.j.K.T.U.K.( r ,.=.! o dXdXdXdXdXdXdXdXdXdXdXdX",
"dXdXdXdXdXdXdXdXdXg V B n b z   .   dXdXdXdXdXdXdXdXdXa &X%X X`.).^.:.i x.K.U.K.c.j.P.U.K.P m %.-.F   dXdXdXdXdXdXdXdXdXdXdXdXdX",
"dXdXdXdXdXdXdXdX  X.l j 2 j A v 5 z . dXdXdXdXdXdXdXG *X`. X`.).[.~ F p.l.K.K.x.j.G.U.j.u L -.#.9   dXdXdXdXdXdXdXdXdXdXdXdXdXdX",
"dXdXdXdXdXdXdXdX  C & | V.a 7 Z 6 , 6   dXdXdXdXdXY >X X`. X`._.I ^ 9.p.j.J.J.k.k.K.i.0 ( -.E & dXdXdXdXdXdXdXdXdXdXdXdXdXdXdXdX",
"dXdXdXdXdXdXdXdX+ l ) G OX_ S.w B 5 , ,   dXdXo ] >X}.}. X}.`.~ %.9.9.f.j.j.j.k.k.<.0 %.,.F o dXdXdXdXdXdXdXdXdXdXdXdXdXdXdXdXdX",
"dXdXdXdXdXdXdXdX> 6 d.z.4.] B.:X3 S 2 2 + dX& >._._.}.}. X}.u.q.9.9.w.h.j.j.k.f.W y ;.%.u   dXdXdXdXdXdXdXdXdXdXdXdXdXdXdXdXdXdX",
"dXdXdXdXdXdXdXdXj 6 v.~.H.<.C.4XE.2 B @ 2 O g.(.{.|..X|.|.G.t.e.8.9.w.f.f.j.y.M H ;.$.4   dXdXdXdXdXdXdXdXdXdXdXdXdXdXdXdXdXdXdX",
"dXdXdXdXdXdXdXdXg z w I l.>._ ,XwXM.v k * './.Y.}..X|.|.G.f.w.8.8.w.t.k.f.u.t W 7.( # dXdXdXdXdXdXdXdXdXdXdXdXdXdXdXdXdXdXdXdXdX",
"dXdXdXdXdXdXdXdXX S 7 XXXXa.y XX,XwX} B % |.Y.Y.|..X).G.f.t.0.8.e.w.f.k.&.9 $.%.L o dXdXdXdXdXdXdXdXdXdXdXdXdXdXdXdXdXdXdXdXdXdX",
"dXdXdXdXdXdXdXdXdX2 n a L.L.<.~ ,X,XwX5 z %.Y.}.,X4.( f.t.0.6.8.e.t.f.( 4 $.$.r   dXdXdXdXdXdXdXdXdXdXdXdXdXdXdXdXdXdXdXdXdXdXdX",
"dXdXdXdXdXdXdXdXdXdXk g I l.x.i d.,X4Xs A L Y.>XY J f.t.q.6.6.0.q.t.K r $.E ; dXdXdXdXdXdXdXdXdXdXdXdXdXdXdXdXdXdXdXdXdXdXdXdXdX",
"dXdXdXdXdXdXdXdXdXdXX V > <.J.k.p U.Q.[ S t Y.M L 1.t.q.7.6.7.q.1.e m $.H o dXdXdXdXdXdXdXdXdXdXdXdXdXdXdXdXdXdXdXdXdXdXdXdXdXdX",
"dXdXdXdXdXdXdXdXdXdXdX2 b : f.x.3.P _ d.x 7 P W $.t.u.q.6.6.7.%.; E ( m   dXdXdXdXdXdXdXdXdXdXdXdXdXdXdXdXdXdXdXdXdXdXdXdXdXdXdX",
"dXdXdXdXdXdXdXdXdXdXdXdXk l p x.x.<.P '.6 S 3 ( $.u.q.7.=.7.( ; W ! q   dXdXdXdXdXdXdXdXdXdXdXdXdXdXdXdXdXdXdXdXdXdXdXdXdXdXdXdX",
"dXdXdXdXdXdXdXdXdXdXdXdX. b 5 ( l.'.x._.$.7 B 2 J q.7.6.6.L 8 ! L # dXdXdXdXdXdXdXdXdXdXdXdXdXdXdXdXdXdXdXdXdXdXdXdXdXdXdXdXdXdX",
"dXdXdXdXdXdXdXdXdXdXdXdXdX> b % 3.(./.)._.c.f b 6 H 7.=.u 9 E m o dXdXdXdXdXdXdXdXdXdXdXdXdXdXdXdXdXdXdXdXdXdXdXdXdXdXdXdXdXdXdX",
"dXdXdXdXdXdXdXdXdXdXdXdXdX  h z q h.~.(._.%X%XT b g y 9 r J e   dXdXdXdXdXdXdXdXdXdXdXdXdXdXdXdXdXdXdXdXdXdXdXdXdXdXdXdXdXdXdXdX",
"dXdXdXdXdXdXdXdXdXdXdXdX  < > x 6 m H.Y.~.w 4.>XQ x z o       dXdXdXdXdXdXdXdXdXdXdXdXdXdXdXdXdXdXdXdXdXdXdXdXdXdXdXdXdXdXdXdXdX",
"dXdXdXdXdXdXdXdXdXdXdXo z o.b > c > / F.~.&.W ).%X5.h z X >   dXdXdXdXdXdXdXdXdXdXdXdXdXdXdXdXdXdXdXdXdXdXdXdXdXdXdXdXdXdXdXdXdX",
"dXdXdXdXdXdXdXdXdXdX. S X.o. .z > x # :.t.f.I 2.).].Y v h @ >   dXdXdXdXdXdXdXdXdXdXdXdXdXdXdXdXdXdXdXdXdXdXdXdXdXdXdXdXdXdXdXdX",
"dXdXdXdXdXdXdXdXdX+ ..X.X.X.X.n 2 6 g q t.f.t.M f.).].p l 2 > @   dXdXdXdXdXdXdXdXdXdXdXdXdXdXdXdXdXdXdXdXdXdXdXdXdXdXdXdXdXdXdX",
"dXdXdXdXdXdXdXdX6 +.X.X.X.X.X.C b @ l < K y.k.1.0 I.{.`.w c @ , + dXdXdXdXdXdXdXdXdXdXdXdXdXdXdXdXdXdXdXdXdXdXdXdXdXdXdXdXdXdXdX",
"dXdXdXdXdXdX. V @...X.X.X.X.X.n j @ + x + $.f.f.) p '..Xv.1 g X @   dXdXdXdXdXdXdXdXdXdXdXdXdXdXdXdXdXdXdXdXdXdXdXdXdXdXdXdXdXdX",
"dXdXdXdXdX. b +. .X...X...X.A < @ k 2 $ h * t.f.1.J K w.E ; h . + . dXdXdXdXdXdXdXdXdXdXdXdXdXdXdXdXdXdXdXdXdXdXdXdXdXdXdXdXdXdX",
"dXdXdXdX. n +. . . .......A , + c x l . 5 5 G f.W $.9 #.q.m 6 + ,   dXdXdXdXdXdXdXdXdXdXdXdXdXdXdXdXdXdXdXdXdXdXdXdXdXdXdXdXdXdX",
"dXdXdX  Z +. . . .......A > $ B S l , dX  h , W r #.^ 9 =.- 5 + ,   dXdXdXdXdXdXdXdXdXdXdXdXdXdXdXdXdXdXdXdXdXdXdXdXdXdXdXdXdXdX",
"dXdXdXV +. . . . ... .A > 2 Z C B < dXdXdX. h + r ^ ^ F 9 @ > $ $   dXdXdXdXdXdXdXdXdXdXdXdXdXdXdXdXdXdXdXdXdXdXdXdXdXdXdXdXdXdX",
"dXdXX @. . . . . . .S @ 6 Z C B < dXdXdXdXdX@ h < @ # : + 5 @ > + dXdXdXdXdXdXdXdXdXdXdXdXdXdXdXdXdXdXdXdXdXdXdXdXdXdXdXdXdXdXdX",
"dXdX6 X.A A  . . .C + h C B C , dXdXdXdXdXdXdX@ 5 6 j 6 5 , + > X dXdXdXdXdXdXdXdXdXdXdXdXdXdXdXdXdXdXdXdXdXdXdXdXdXdXdXdXdXdXdX",
"dXdX2 o. . .A  .C @ l C B b > dXdXdXdXdXdXdXdXdX    . . X . X     dXdXdXdXdXdXdXdXdXdXdXdXdXdXdXdXdXdXdXdXdXdXdXdXdXdXdXdXdXdXdX",
"dXdX  Z  .A A c @ x C B b + dXdXdXdXdXdXdXdXdXdXdX              dXdXdXdXdXdXdXdXdXdXdXdXdXdXdXdXdXdXdXdXdXdXdXdXdXdXdXdXdXdXdXdX",
"dXdXdX@ v h < > b B B j . dXdXdXdXdXdXdXdXdXdXdXdXdXdXdXdXdXdXdXdXdXdXdXdXdXdXdXdXdXdXdXdXdXdXdXdXdXdXdXdXdXdXdXdXdXdXdXdXdXdXdX",
"dXdXdXdX    $ 2 j 5 @   dXdXdXdXdXdXdXdXdXdXdXdXdXdXdXdXdXdXdXdXdXdXdXdXdXdXdXdXdXdXdXdXdXdXdXdXdXdXdXdXdXdXdXdXdXdXdXdXdXdXdXdX",
"dXdXdXdXdXdXdXdXdXdXdXdXdXdXdXdXdXdXdXdXdXdXdXdXdXdXdXdXdXdXdXdXdXdXdXdXdXdXdXdXdXdXdXdXdXdXdXdXdXdXdXdXdXdXdXdXdXdXdXdXdXdXdXdX",
"dXdXdXdXdXdXdXdXdXdXdXdXdXdXdXdXdXdXdXdXdXdXdXdXdXdXdXdXdXdXdXdXdXdXdXdXdXdXdXdXdXdXdXdXdXdXdXdXdXdXdXdXdXdXdXdXdXdXdXdXdXdXdXdX",
"dXdXdXdXdXdXdXdXdXdXdXdXdXdXdXdXdXdXdXdXdXdXdXdXdXdXdXdXdXdXdXdXdXdXdXdXdXdXdXdXdXdXdXdXdXdXdXdXdXdXdXdXdXdXdXdXdXdXdXdXdXdXdXdX",
"dXdXdXdXdXdXdXdXdXdXdXdXdXdXdXdXdXdXdXdXdXdXdXdXdXdXdXdXdXdXdXdXdXdXdXdXdXdXdXdXdXdXdXdXdXdXdXdXdXdXdXdXdXdXdXdXdXdXdXdXdXdXdXdX",
"dXdXdXdXdXdXdXdXdXdXdXdXdXdXdXdXdXdXdXdXdXdXdXdXdXdXdXdXdXdXdXdXdXdXdXdXdXdXdXdXdXdXdXdXdXdXdXdXdXdXdXdXdXdXdXdXdXdXdXdXdXdXdXdX",
"dXdXdXdXdXdXdXdXdXdXdXdXdXdXdXdXdXdXdXdXdXdXdXdXdXdXdXdXdXdXdXdXdXdXdXdXdXdXdXdXdXdXdXdXdXdXdXdXdXdXdXdXdXdXdXdXdXdXdXdXdXdXdXdX"
};
