/* XPM */
static char *result[] = {
/* columns rows colors chars-per-pixel */
"16 16 17 1 ",
"  c black",
". c #78250E",
"X c #8B2B10",
"o c #912D11",
"O c #A03113",
"+ c #A73413",
"@ c #A83414",
"# c #B23715",
"$ c #B63815",
"% c #B73815",
"& c #C13C17",
"* c #C43C17",
"= c #C93E17",
"- c #DB441A",
"; c #AFAFAF",
": c #CECECE",
"> c gray86",
/* pixels */
"-=%+-=%+-=%+-=%+",
"-&@o-&@o-&@o-&@o",
"-&@o-&@o-&@o-&@o",
"-&@o-&@o-&@o-&@o",
"-&@o-&@o-&@o-&@o",
">>>:>>>>:>>::>>:",
":>   : :> :   >:",
"::: ::  : :: :::",
"::: :: :  :: :::",
":;; :; :: :: ;;:",
";;:;;:;;;:;;:;;;",
"$OX.$OX.$OX.$OX.",
"-&@o-&@o-&@o-&@o",
"-&@o-&@o-&@o-&@o",
"-&@o-&@o-&@o-&@o",
"*#Oo*#Oo*#Oo*#Oo"
};
