/* XPM */
static char *result[] = {
/* columns rows colors chars-per-pixel */
"16 16 4 1 ",
"  c #912D11",
". c #A83414",
"X c #DB441A",
"o c #8E8E8E",
/* pixels */
"XXX.XXX.XXX.XXX.",
"Xoo Xoo Xoo Xoo ",
"Xoo Xoo Xoo Xoo ",
".   .   .   .   ",
"XXX.XXX.XXX.XXX.",
"Xoo Xoo Xoo Xoo ",
"Xoo Xoo Xoo Xoo ",
".   .   .   .   ",
"XXX.XXX.XXX.XXX.",
"Xoo Xoo Xoo Xoo ",
"Xoo Xoo Xoo Xoo ",
".   .   .   .   ",
"XXX.XXX.XXX.XXX.",
"Xoo Xoo Xoo Xoo ",
"Xoo Xoo Xoo Xoo ",
".   .   .   .   "
};
